<svg width="177" height="167" viewBox="0 0 177 167" fill="none" xmlns="http://www.w3.org/2000/svg">
<path d="M37.078 153.468C65.5998 168.502 111.843 168.502 140.365 153.468C168.886 138.434 168.89 114.064 140.365 99.0335C111.839 84.0027 65.5998 83.9991 37.0745 99.0335C8.54915 114.068 8.55269 138.427 37.078 153.468Z" fill="#F5F5F5"/>
<path d="M24.8473 134.653L26.1712 135.414C26.4088 135.534 26.6714 135.597 26.9377 135.597C27.204 135.597 27.4665 135.534 27.7041 135.414L88.8824 100.095C88.9753 100.065 89.0562 100.006 89.1136 99.9269C89.171 99.8477 89.2019 99.7524 89.2019 99.6547C89.2019 99.5569 89.171 99.4617 89.1136 99.3825C89.0562 99.3034 88.9753 99.2444 88.8824 99.214L87.569 98.4635C87.3315 98.3431 87.0689 98.2804 86.8026 98.2804C86.5363 98.2804 86.2738 98.3431 86.0362 98.4635L24.8473 133.768C24.7548 133.799 24.6745 133.859 24.6176 133.938C24.5607 134.018 24.5302 134.113 24.5302 134.21C24.5302 134.308 24.5607 134.403 24.6176 134.483C24.6745 134.562 24.7548 134.622 24.8473 134.653Z" fill="#E0E0E0"/>
<path d="M113.167 147.376C123.478 147.376 131.837 142.794 131.837 137.141C131.837 131.489 123.478 126.907 113.167 126.907C102.856 126.907 94.4967 131.489 94.4967 137.141C94.4967 142.794 102.856 147.376 113.167 147.376Z" fill="#E0E0E0"/>
<path d="M134.736 119.526C142.691 119.526 149.14 115.991 149.14 111.629C149.14 107.267 142.691 103.731 134.736 103.731C126.781 103.731 120.332 107.267 120.332 111.629C120.332 115.991 126.781 119.526 134.736 119.526Z" fill="#E0E0E0"/>
<path d="M141.781 103.692C141.759 101.883 143.023 98.1237 144.871 95.7519C146.719 93.3801 149.646 91.6278 151.753 92.3216C153.714 92.9659 153.523 95.5289 151.183 97.2528C148.843 98.9768 145.303 101.147 144.294 104.099L142.152 107.724L141.781 103.692Z" fill="#F97E26"/>
<path opacity="0.1" d="M141.781 103.692C141.759 101.883 143.023 98.1237 144.871 95.7519C146.719 93.3801 149.646 91.6278 151.753 92.3216C153.714 92.9659 153.523 95.5289 151.183 97.2528C148.843 98.9768 145.303 101.147 144.294 104.099L142.152 107.724L141.781 103.692Z" fill="black"/>
<path d="M141.678 106.17C141.707 106.167 141.733 106.154 141.754 106.134C141.775 106.115 141.79 106.089 141.795 106.06C142.931 99.8724 147.866 94.796 150.839 93.6526C150.873 93.6399 150.9 93.6145 150.914 93.582C150.929 93.5495 150.93 93.5125 150.917 93.4792C150.911 93.4631 150.902 93.4484 150.89 93.436C150.878 93.4236 150.864 93.4136 150.848 93.4067C150.832 93.3998 150.815 93.3961 150.798 93.3958C150.78 93.3954 150.763 93.3985 150.747 93.4048C147.714 94.5695 142.687 99.7308 141.543 106.014C141.54 106.031 141.541 106.049 141.544 106.066C141.548 106.082 141.555 106.098 141.565 106.112C141.575 106.127 141.587 106.139 141.602 106.148C141.616 106.157 141.633 106.164 141.65 106.167L141.678 106.17Z" fill="white"/>
<path d="M142.662 110.11C142.942 109.091 144.163 107.398 146.152 105.986C148.358 104.428 151.162 103.688 151.795 102.488C152.556 101.044 151.331 99.706 149.052 100.01C146.772 100.315 142.8 103.483 142.212 108.177L142.662 110.11Z" fill="#F97E26"/>
<path d="M142.191 109.048C142.216 109.046 142.241 109.036 142.261 109.02C142.281 109.005 142.296 108.984 142.304 108.96C144.131 103.65 148.145 101.745 150.011 101.48C150.045 101.474 150.077 101.456 150.098 101.428C150.119 101.4 150.128 101.366 150.124 101.331C150.122 101.314 150.117 101.297 150.108 101.282C150.099 101.267 150.088 101.254 150.074 101.243C150.06 101.233 150.044 101.225 150.027 101.221C150.01 101.216 149.993 101.215 149.976 101.218C147.912 101.511 143.922 103.451 142.053 108.875C142.048 108.891 142.045 108.908 142.046 108.925C142.047 108.942 142.052 108.959 142.059 108.975C142.067 108.99 142.077 109.004 142.09 109.015C142.103 109.027 142.118 109.035 142.135 109.041C142.152 109.049 142.172 109.051 142.191 109.048Z" fill="white"/>
<path d="M26.4968 133.761L26.2278 133.605C26.0015 133.458 25.8131 133.259 25.6778 133.025C25.5425 132.792 25.4641 132.529 25.449 132.26V41.5438C25.4644 41.2738 25.5429 41.0111 25.6781 40.7769C25.8134 40.5427 26.0016 40.3434 26.2278 40.1951L84.6803 6.45181C84.9217 6.32957 85.1885 6.26587 85.4591 6.26587C85.7297 6.26587 85.9965 6.32957 86.2379 6.45181L86.5034 6.60757C86.7303 6.75508 86.9192 6.95415 87.0545 7.18855C87.1898 7.42294 87.2679 7.68602 87.2822 7.95631V98.6688C87.2679 98.9391 87.1898 99.2021 87.0545 99.4365C86.9192 99.6709 86.7303 99.87 86.5034 100.018L28.0544 133.761C27.813 133.883 27.5462 133.947 27.2756 133.947C27.005 133.947 26.7382 133.883 26.4968 133.761Z" fill="#F97E26"/>
<path opacity="0.4" d="M87.2751 7.83241C87.222 7.42885 86.8963 7.28017 86.5069 7.50319L28.0509 41.25C27.822 41.3942 27.6333 41.5939 27.5022 41.8306L25.6791 40.7686C25.8119 40.5321 26.0018 40.3325 26.2313 40.188L84.6803 6.45181C84.9217 6.32957 85.1885 6.26587 85.4591 6.26587C85.7297 6.26587 85.9965 6.32957 86.2379 6.45181L86.5069 6.60757C86.714 6.74616 86.8894 6.92691 87.0218 7.13798C87.1542 7.34904 87.2405 7.58568 87.2751 7.83241Z" fill="white"/>
<path opacity="0.1" d="M27.9234 133.821C27.6965 133.911 27.453 133.953 27.209 133.942C26.9649 133.932 26.7259 133.87 26.5074 133.761L26.2349 133.605C26.0086 133.457 25.8204 133.258 25.6857 133.024C25.551 132.789 25.4735 132.526 25.4596 132.256V41.5438C25.4678 41.2736 25.5459 41.0102 25.6862 40.7792L27.5093 41.8412C27.3646 42.068 27.2783 42.327 27.2579 42.5952V133.311C27.2579 133.757 27.5553 133.966 27.9234 133.821Z" fill="black"/>
<path d="M34.168 67.5416L33.8989 67.3858C33.6726 67.2377 33.4842 67.0384 33.3489 66.8042C33.2136 66.5699 33.1353 66.3071 33.1201 66.0371V49.746C33.1353 49.4764 33.2136 49.2141 33.3489 48.9804C33.4842 48.7467 33.6726 48.5481 33.8989 48.4008L86.9671 17.7196C87.2079 17.5974 87.4741 17.5337 87.7441 17.5337C88.0141 17.5337 88.2804 17.5974 88.5211 17.7196L88.7902 17.8753C89.017 18.0221 89.2059 18.2205 89.3413 18.4543C89.4767 18.6882 89.5547 18.9507 89.569 19.2205V35.5258C89.5547 35.7961 89.4767 36.0592 89.3413 36.2935C89.206 36.5279 89.0171 36.727 88.7902 36.8745L35.7256 67.5416C35.4841 67.6638 35.2174 67.7275 34.9468 67.7275C34.6762 67.7275 34.4094 67.6638 34.168 67.5416Z" fill="#EBEBEB"/>
<path d="M89.5619 19.0968C89.5088 18.6932 89.1831 18.5481 88.7902 18.7711L35.722 49.4417C35.4925 49.5836 35.3035 49.7823 35.1733 50.0187L33.3502 48.9567C33.4807 48.7184 33.671 48.5183 33.9025 48.3761L86.9671 17.7091C87.2078 17.5869 87.4741 17.5232 87.7441 17.5232C88.0141 17.5232 88.2803 17.5869 88.5211 17.7091L88.7902 17.8648C89.0001 18.0023 89.1778 18.1836 89.311 18.3963C89.4442 18.6089 89.5298 18.8479 89.5619 19.0968Z" fill="#FAFAFA"/>
<path d="M35.5909 67.6018C35.3641 67.6927 35.1206 67.7344 34.8764 67.724C34.6323 67.7136 34.3932 67.6515 34.1749 67.5417L33.8988 67.3859C33.672 67.2369 33.4835 67.0364 33.3488 66.8008C33.2141 66.5652 33.1369 66.3011 33.1235 66.0301V49.7461C33.1311 49.4747 33.2092 49.21 33.3501 48.9779L35.1732 50.0399C35.0342 50.273 34.9552 50.5369 34.9431 50.8081V67.0921C34.9431 67.5381 35.2263 67.7434 35.5909 67.6018Z" fill="#E0E0E0"/>
<path d="M43.898 56.0566C45.07 55.3857 46.02 55.9073 46.02 57.2206C46.02 58.5339 45.0687 60.1324 43.8953 60.7897C42.7219 61.447 41.772 60.9255 41.772 59.6244C41.772 58.3233 42.726 56.7289 43.898 56.0566Z" fill="#F97E26"/>
<path d="M41.6096 49.0747C41.5943 48.9605 41.5439 48.8937 41.4585 48.8744C41.3739 48.8546 41.2658 48.8827 41.134 48.9588C41.0414 49.0123 40.9625 49.0742 40.8974 49.1447C40.8323 49.2153 40.7831 49.2883 40.7499 49.3638C40.7167 49.4394 40.7009 49.5129 40.7026 49.5843C40.7047 49.6433 40.718 49.6877 40.7427 49.7176C40.7682 49.7471 40.8018 49.7653 40.8436 49.7722C40.8853 49.7782 40.9313 49.777 40.9815 49.7687C41.0317 49.7604 41.0822 49.7486 41.133 49.7334L41.3652 49.667C41.4587 49.6384 41.5489 49.6206 41.6358 49.6137C41.7235 49.6063 41.8024 49.6152 41.8725 49.6405C41.9434 49.6654 42.0004 49.7119 42.0435 49.7801C42.0866 49.8482 42.1103 49.9436 42.1146 50.0661C42.1204 50.2319 42.0888 50.3992 42.0197 50.5678C41.9507 50.7355 41.8479 50.8949 41.7115 51.0461C41.5758 51.1958 41.4098 51.3274 41.2134 51.4408C41.0226 51.551 40.8557 51.6125 40.7128 51.6255C40.5707 51.638 40.4579 51.6016 40.3743 51.5164C40.2914 51.4308 40.2436 51.2958 40.2306 51.1115L40.6677 50.8592C40.6776 50.9541 40.7068 51.0209 40.7554 51.0595C40.8039 51.0982 40.8659 51.1122 40.9413 51.1016C41.0175 51.0905 41.1019 51.0583 41.1945 51.0048C41.2911 50.949 41.3751 50.8836 41.4466 50.8085C41.5189 50.732 41.5747 50.6518 41.6141 50.5679C41.6535 50.4832 41.6722 50.4 41.6702 50.3185C41.6668 50.2452 41.6459 50.1953 41.6075 50.1686C41.5691 50.1409 41.5162 50.1301 41.4488 50.1361C41.3822 50.1408 41.3045 50.1555 41.2158 50.1804L40.9339 50.2586C40.7298 50.3153 40.5669 50.3168 40.4453 50.2629C40.3245 50.2077 40.2605 50.0787 40.2534 49.876C40.2476 49.7093 40.2816 49.5407 40.3555 49.3702C40.4302 49.1993 40.5342 49.0401 40.6675 48.8926C40.8007 48.7442 40.9532 48.6205 41.1249 48.5214C41.2989 48.4209 41.4526 48.3679 41.586 48.3623C41.7201 48.3553 41.8269 48.3919 41.9062 48.4721C41.9856 48.5513 42.0292 48.6699 42.0372 48.8279L41.6096 49.0747ZM43.3351 50.2144C43.1507 50.3209 42.9898 50.3686 42.8526 50.3576C42.7162 50.3452 42.6092 50.2783 42.5316 50.1567C42.454 50.0342 42.4114 49.8619 42.4036 49.6398C42.396 49.4215 42.4252 49.2091 42.4913 49.0027C42.5582 48.7949 42.6551 48.6074 42.782 48.4401C42.9089 48.272 43.0601 48.1372 43.2358 48.0358C43.3492 47.9703 43.4569 47.9297 43.5589 47.914C43.6618 47.897 43.7535 47.9098 43.834 47.9526C43.9153 47.995 43.9806 48.071 44.0301 48.1806C44.0795 48.2893 44.1074 48.4367 44.1139 48.6228L44.1193 48.7762L42.6116 49.6467L42.5998 49.3095L43.6919 48.6789C43.6878 48.5836 43.6669 48.5087 43.6291 48.4544C43.5914 48.3991 43.5402 48.368 43.4756 48.3611C43.4118 48.3538 43.3384 48.3741 43.2554 48.422C43.1668 48.4732 43.0898 48.543 43.0245 48.6315C42.9591 48.719 42.9091 48.8137 42.8743 48.9155C42.8404 49.016 42.8247 49.1139 42.8272 49.2092L42.8375 49.5036C42.8418 49.627 42.865 49.7217 42.9072 49.7875C42.9494 49.8525 43.0064 49.8882 43.0783 49.8946C43.1502 49.9001 43.2332 49.8756 43.3275 49.8213C43.3905 49.7848 43.4473 49.7418 43.4976 49.692C43.548 49.6413 43.5912 49.5848 43.6273 49.5226C43.6634 49.4604 43.69 49.3939 43.7071 49.3229L44.1137 49.1417C44.0925 49.2799 44.0475 49.4159 43.9789 49.5495C43.911 49.6817 43.8225 49.8052 43.7133 49.9199C43.6041 50.0338 43.478 50.1319 43.3351 50.2144ZM45.3627 46.836L45.3762 47.2229L44.3188 47.8334L44.3053 47.4465L45.3627 46.836ZM44.5486 46.7872L44.9821 46.5369L45.0517 48.5297C45.054 48.597 45.0646 48.6435 45.0834 48.6693C45.103 48.6937 45.1278 48.7038 45.1578 48.6997C45.1878 48.6955 45.2207 48.6831 45.2567 48.6623C45.2838 48.6466 45.3085 48.63 45.3307 48.6125C45.3537 48.5946 45.3711 48.5803 45.3829 48.5697L45.4696 48.9186C45.4468 48.9412 45.414 48.9704 45.3713 49.0064C45.3294 49.0419 45.2777 49.0783 45.2163 49.1156C45.1078 49.182 45.0094 49.2196 44.9209 49.2284C44.8324 49.2362 44.7611 49.2107 44.7069 49.1517C44.6535 49.0923 44.6249 48.9961 44.6211 48.8629L44.5486 46.7872ZM46.9706 45.1859L47.0694 48.0161L46.6359 48.2664L46.537 45.4361L46.9706 45.1859ZM47.5152 47.7588L47.441 45.636L47.8746 45.3858L47.9487 47.5085L47.5152 47.7588ZM47.6485 45.2089C47.5798 45.2486 47.5198 45.2564 47.4685 45.2325C47.4171 45.2076 47.3901 45.1579 47.3875 45.0833C47.3849 45.0077 47.4074 44.9294 47.4551 44.8483C47.5027 44.7663 47.5609 44.7055 47.6295 44.6658C47.699 44.6257 47.759 44.6183 47.8096 44.6437C47.8609 44.6676 47.8879 44.7173 47.8905 44.7929C47.8931 44.8675 47.8706 44.9458 47.823 45.0278C47.7761 45.1085 47.7179 45.1688 47.6485 45.2089ZM48.3945 47.2511L48.3204 45.1284L48.7347 44.8892L48.7473 45.2498L48.7689 45.2374C48.8029 45.0937 48.8631 44.9621 48.9493 44.8428C49.0355 44.7225 49.1401 44.6269 49.2631 44.5559C49.3876 44.484 49.4938 44.4584 49.5817 44.4791C49.6703 44.4984 49.7343 44.5578 49.7736 44.6573L49.7928 44.6463C49.8294 44.5048 49.8947 44.3712 49.9889 44.2454C50.0838 44.1182 50.1979 44.0162 50.3313 43.9392C50.5005 43.8415 50.6408 43.8234 50.7521 43.8851C50.8634 43.9468 50.9232 44.0961 50.9314 44.3328L50.9812 45.7576L50.5465 46.0086L50.4994 44.6612C50.4948 44.5295 50.4611 44.4507 50.3983 44.4249C50.3355 44.3982 50.2602 44.4102 50.1723 44.4609C50.0678 44.5213 49.9872 44.6063 49.9308 44.716C49.8751 44.8243 49.8494 44.9383 49.8536 45.0581L49.8998 46.382L49.4747 46.6274L49.4269 45.2593C49.4231 45.1497 49.3913 45.0787 49.3315 45.0465C49.2725 45.0138 49.1971 45.024 49.1053 45.077C49.0431 45.1129 48.987 45.1641 48.9372 45.2304C48.8874 45.2959 48.8484 45.3705 48.8204 45.4544C48.7924 45.5373 48.7799 45.6225 48.7829 45.71L48.828 47.0008L48.3945 47.2511ZM51.421 45.5037L51.3469 43.381L51.7804 43.1307L51.8545 45.2534L51.421 45.5037ZM51.5543 42.9539C51.4856 42.9936 51.4256 43.0014 51.3743 42.9775C51.3229 42.9526 51.296 42.9029 51.2934 42.8282C51.2907 42.7527 51.3132 42.6744 51.3609 42.5933C51.4085 42.5113 51.4667 42.4504 51.5353 42.4108C51.6048 42.3707 51.6648 42.3633 51.7154 42.3886C51.7667 42.4126 51.7937 42.4623 51.7963 42.5379C51.7989 42.6125 51.7764 42.6908 51.7288 42.7728C51.6819 42.8535 51.6238 42.9138 51.5543 42.9539ZM53.1447 42.3431L53.1582 42.73L52.1008 43.3405L52.0872 42.9536L53.1447 42.3431ZM52.3306 42.2943L52.7641 42.044L52.8337 44.0368C52.836 44.104 52.8466 44.1506 52.8654 44.1764C52.885 44.2008 52.9098 44.2109 52.9398 44.2067C52.9698 44.2026 53.0027 44.1901 53.0386 44.1694C53.0658 44.1537 53.0905 44.1371 53.1127 44.1196C53.1356 44.1016 53.1531 44.0873 53.1649 44.0767L53.2516 44.4257C53.2288 44.4482 53.196 44.4775 53.1533 44.5135C53.1114 44.5489 53.0597 44.5854 52.9983 44.6227C52.8898 44.6891 52.7914 44.7266 52.7029 44.7354C52.6144 44.7433 52.5431 44.7177 52.4889 44.6588C52.4355 44.5994 52.4069 44.5031 52.403 44.37L52.3306 42.2943Z" fill="#F97E26"/>
<path d="M39.7457 56.5995C39.5653 56.7036 39.4096 56.7357 39.2787 56.6957C39.1478 56.6547 39.045 56.5453 38.9704 56.3675C38.8957 56.1888 38.853 55.9456 38.8423 55.6379C38.8316 55.332 38.856 55.0515 38.9155 54.7962C38.9758 54.5396 39.0674 54.3176 39.1903 54.13C39.3141 53.9411 39.4653 53.795 39.6442 53.6918C39.823 53.5885 39.9779 53.5578 40.1089 53.5997C40.2406 53.6402 40.3438 53.7498 40.4184 53.9285C40.4939 54.1059 40.5369 54.3475 40.5476 54.6533C40.5583 54.9611 40.534 55.243 40.4745 55.4991C40.415 55.7544 40.3238 55.9757 40.2008 56.1633C40.0778 56.3499 39.9261 56.4953 39.7457 56.5995ZM39.7351 56.2954C39.9139 56.1922 40.0494 56.0125 40.1414 55.7563C40.2335 55.5001 40.2731 55.1878 40.2602 54.8193C40.2516 54.5742 40.2216 54.3787 40.1701 54.2327C40.1193 54.0862 40.0501 53.9922 39.9623 53.9508C39.8753 53.9089 39.7728 53.9221 39.6546 53.9903C39.4774 54.0926 39.3424 54.2735 39.2496 54.5329C39.1568 54.7913 39.1169 55.1044 39.1297 55.472C39.1383 55.717 39.1679 55.9123 39.2186 56.0579C39.2693 56.2034 39.3381 56.2967 39.425 56.3377C39.5128 56.3782 39.6161 56.3641 39.7351 56.2954Z" fill="#F97E26"/>
<path d="M77.2321 33.6934L77.3309 36.5237L77.0339 36.6952L76.9476 34.2242L76.9333 34.2325L76.3505 35.037L76.3384 34.6888L76.9351 33.8649L77.2321 33.6934ZM78.8376 35.6933C78.6572 35.7975 78.5015 35.8295 78.3706 35.7895C78.2397 35.7486 78.1369 35.6392 78.0623 35.4614C77.9876 35.2827 77.9449 35.0395 77.9342 34.7317C77.9235 34.4259 77.9479 34.1453 78.0074 33.8901C78.0677 33.6335 78.1593 33.4114 78.2822 33.2239C78.4059 33.035 78.5572 32.8889 78.7361 32.7856C78.9149 32.6824 79.0698 32.6517 79.2008 32.6936C79.3325 32.7341 79.4357 32.8437 79.5103 33.0224C79.5857 33.1997 79.6288 33.4413 79.6395 33.7472C79.6502 34.0549 79.6259 34.3368 79.5664 34.593C79.5069 34.8482 79.4157 35.0696 79.2927 35.2571C79.1697 35.4437 79.018 35.5891 78.8376 35.6933ZM78.827 35.3893C79.0058 35.286 79.1413 35.1063 79.2333 34.8502C79.3254 34.594 79.3649 34.2817 79.3521 33.9131C79.3435 33.6681 79.3135 33.4725 79.2619 33.3265C79.2112 33.18 79.142 33.0861 79.0542 33.0446C78.9672 33.0028 78.8646 33.0159 78.7465 33.0841C78.5692 33.1865 78.4343 33.3673 78.3415 33.6267C78.2487 33.8852 78.2087 34.1982 78.2216 34.5658C78.2301 34.8109 78.2598 35.0062 78.3105 35.1517C78.3612 35.2973 78.43 35.3906 78.5169 35.4315C78.6047 35.472 78.708 35.4579 78.827 35.3893ZM80.4712 34.3159L80.4572 34.4762C80.4473 34.5891 80.4305 34.7135 80.4067 34.8494C80.3838 34.9848 80.3594 35.1141 80.3335 35.2371C80.3077 35.3601 80.2863 35.4584 80.2693 35.5322L80.0537 35.6566C80.0621 35.5916 80.0729 35.506 80.0863 35.3995C80.0997 35.2931 80.1127 35.1752 80.1253 35.0457C80.1387 34.9168 80.1488 34.7868 80.1556 34.656L80.1646 34.4929L80.4712 34.3159ZM81.7192 34.0296C81.5388 34.1338 81.3831 34.1658 81.2522 34.1258C81.1213 34.0849 81.0185 33.9755 80.9439 33.7977C80.8692 33.619 80.8265 33.3758 80.8158 33.0681C80.8051 32.7622 80.8295 32.4816 80.889 32.2264C80.9493 31.9698 81.0409 31.7477 81.1638 31.5602C81.2876 31.3713 81.4388 31.2252 81.6177 31.1219C81.7965 31.0187 81.9514 30.988 82.0824 31.0299C82.2141 31.0704 82.3173 31.18 82.3919 31.3587C82.4674 31.536 82.5104 31.7776 82.5211 32.0835C82.5318 32.3912 82.5075 32.6731 82.448 32.9293C82.3885 33.1845 82.2973 33.4059 82.1743 33.5934C82.0513 33.78 81.8996 33.9254 81.7192 34.0296ZM81.7086 33.7256C81.8874 33.6223 82.0229 33.4426 82.1149 33.1865C82.207 32.9303 82.2465 32.618 82.2337 32.2494C82.2251 32.0044 82.1951 31.8088 82.1436 31.6628C82.0928 31.5163 82.0236 31.4224 81.9358 31.381C81.8488 31.3391 81.7462 31.3522 81.6281 31.4204C81.4509 31.5228 81.3159 31.7036 81.2231 31.963C81.1303 32.2215 81.0904 32.5345 81.1032 32.9021C81.1117 33.1472 81.1414 33.3425 81.1921 33.488C81.2428 33.6336 81.3116 33.7269 81.3985 33.7678C81.4863 33.8083 81.5896 33.7943 81.7086 33.7256ZM83.8269 32.8127C83.6465 32.9169 83.4908 32.949 83.3599 32.9089C83.229 32.868 83.1262 32.7586 83.0516 32.5808C82.9769 32.4021 82.9342 32.1589 82.9235 31.8512C82.9128 31.5453 82.9372 31.2648 82.9967 31.0095C83.057 30.7529 83.1486 30.5308 83.2715 30.3433C83.3952 30.1544 83.5465 30.0083 83.7254 29.9051C83.9042 29.8018 84.0591 29.7711 84.19 29.813C84.3218 29.8535 84.425 29.9631 84.4996 30.1418C84.575 30.3191 84.6181 30.5607 84.6288 30.8666C84.6395 31.1743 84.6152 31.4563 84.5557 31.7124C84.4962 31.9676 84.405 32.189 84.282 32.3766C84.159 32.5632 84.0073 32.7086 83.8269 32.8127ZM83.8163 32.5087C83.9951 32.4054 84.1305 32.2257 84.2226 31.9696C84.3146 31.7134 84.3542 31.4011 84.3414 31.0326C84.3328 30.7875 84.3028 30.5919 84.2512 30.4459C84.2005 30.2995 84.1313 30.2055 84.0435 30.1641C83.9565 30.1222 83.8539 30.1354 83.7358 30.2036C83.5585 30.3059 83.4235 30.4868 83.3308 30.7461C83.238 31.0046 83.198 31.3176 83.2109 31.6852C83.2194 31.9303 83.2491 32.1256 83.2998 32.2712C83.3504 32.4167 83.4193 32.51 83.5062 32.551C83.594 32.5915 83.6973 32.5774 83.8163 32.5087ZM85.9346 31.5959C85.7541 31.7 85.5985 31.7321 85.4676 31.6921C85.3367 31.6511 85.2339 31.5417 85.1593 31.3639C85.0846 31.1852 85.0419 30.942 85.0312 30.6343C85.0205 30.3284 85.0449 30.0479 85.1044 29.7926C85.1647 29.536 85.2563 29.314 85.3792 29.1264C85.5029 28.9375 85.6542 28.7914 85.833 28.6882C86.0119 28.5849 86.1668 28.5543 86.2977 28.5961C86.4295 28.6366 86.5327 28.7462 86.6073 28.9249C86.6827 29.1023 86.7258 29.3439 86.7365 29.6497C86.7472 29.9575 86.7229 30.2394 86.6634 30.4955C86.6039 30.7508 86.5127 30.9721 86.3897 31.1597C86.2667 31.3463 86.115 31.4917 85.9346 31.5959ZM85.924 31.2918C86.1028 31.1886 86.2382 31.0089 86.3303 30.7527C86.4223 30.4965 86.4619 30.1842 86.4491 29.8157C86.4405 29.5706 86.4105 29.3751 86.3589 29.2291C86.3082 29.0826 86.239 28.9886 86.1512 28.9472C86.0642 28.9053 85.9616 28.9185 85.8435 28.9867C85.6662 29.089 85.5312 29.2699 85.4385 29.5293C85.3457 29.7877 85.3057 30.1008 85.3186 30.4684C85.3271 30.7134 85.3568 30.9087 85.4074 31.0543C85.4581 31.1999 85.527 31.2931 85.6139 31.3341C85.7017 31.3746 85.805 31.3605 85.924 31.2918Z" fill="#F97E26"/>
<path d="M39.6478 60.897L86.3758 33.993" stroke="#F97E26" stroke-width="1.062" stroke-linecap="round"/>
<path d="M50.8769 74.6762L50.7732 74.6162C50.6861 74.5591 50.6135 74.4824 50.5614 74.3921C50.5093 74.3019 50.4791 74.2007 50.4733 74.0967V67.8218C50.4791 67.7179 50.5093 67.6169 50.5614 67.5269C50.6135 67.4369 50.6861 67.3604 50.7732 67.3036L71.2137 55.486C71.3065 55.439 71.409 55.4144 71.513 55.4144C71.617 55.4144 71.7196 55.439 71.8123 55.486L71.9159 55.546C72.0033 55.6025 72.0761 55.679 72.1282 55.769C72.1803 55.8591 72.2104 55.9602 72.2159 56.0642V62.3445C72.2104 62.4486 72.1803 62.55 72.1282 62.6402C72.0761 62.7305 72.0033 62.8072 71.9159 62.864L51.4768 74.6762C51.3838 74.7232 51.2811 74.7478 51.1768 74.7478C51.0726 74.7478 50.9699 74.7232 50.8769 74.6762Z" fill="#EBEBEB"/>
<path d="M57.8937 66.7748C57.8783 66.6605 57.8279 66.5938 57.7425 66.5744C57.658 66.5547 57.5498 66.5828 57.4181 66.6589C57.3255 66.7123 57.2466 66.7743 57.1815 66.8448C57.1163 66.9153 57.0671 66.9884 57.034 67.0639C57.0008 67.1395 56.985 67.213 56.9867 67.2844C56.9887 67.3433 57.0021 67.3878 57.0268 67.4177C57.0522 67.4472 57.0858 67.4654 57.1276 67.4723C57.1694 67.4782 57.2153 67.4771 57.2655 67.4688C57.3158 67.4604 57.3662 67.4487 57.417 67.4335L57.6493 67.3671C57.7428 67.3385 57.8329 67.3207 57.9199 67.3138C58.0076 67.3063 58.0865 67.3153 58.1566 67.3406C58.2275 67.3655 58.2845 67.412 58.3276 67.4801C58.3707 67.5483 58.3944 67.6437 58.3987 67.7662C58.4045 67.932 58.3728 68.0993 58.3038 68.2679C58.2347 68.4356 58.132 68.595 57.9955 68.7462C57.8599 68.8959 57.6938 69.0275 57.4974 69.1409C57.3066 69.251 57.1398 69.3126 56.9969 69.3256C56.8548 69.338 56.7419 69.3017 56.6583 69.2165C56.5755 69.1308 56.5276 68.9959 56.5147 68.8116L56.9518 68.5593C56.9616 68.6541 56.9908 68.7209 57.0394 68.7596C57.088 68.7983 57.15 68.8123 57.2254 68.8017C57.3015 68.7906 57.3859 68.7583 57.4785 68.7049C57.5751 68.6491 57.6592 68.5837 57.7307 68.5085C57.8029 68.432 57.8588 68.3519 57.8982 68.268C57.9376 68.1832 57.9563 68.1001 57.9542 68.0186C57.9509 67.9453 57.93 67.8953 57.8916 67.8686C57.8532 67.841 57.8002 67.8302 57.7329 67.8362C57.6662 67.8408 57.5886 67.8556 57.4998 67.8805L57.2179 67.9587C57.0138 68.0154 56.851 68.0169 56.7294 67.963C56.6085 67.9078 56.5446 67.7788 56.5375 67.5761C56.5317 67.4094 56.5657 67.2407 56.6396 67.0703C56.7142 66.8993 56.8182 66.7401 56.9515 66.5927C57.0848 66.4443 57.2373 66.3206 57.4089 66.2215C57.583 66.121 57.7367 66.068 57.87 66.0624C58.0042 66.0554 58.1109 66.092 58.1903 66.1721C58.2696 66.2513 58.3133 66.3699 58.3212 66.528L57.8937 66.7748ZM59.9446 66.7736L59.9016 65.5436L60.3351 65.2933L60.4093 67.416L59.9889 67.6587L59.9758 67.2814L59.9566 67.2925C59.9192 67.4353 59.8544 67.5719 59.762 67.7023C59.6704 67.8323 59.5556 67.9371 59.4175 68.0168C59.2969 68.0864 59.1893 68.1171 59.0945 68.1089C59.0005 68.0992 58.9255 68.0499 58.8694 67.9611C58.8133 67.8712 58.7823 67.7416 58.7764 67.5721L58.7292 66.2205L59.1627 65.9702L59.2072 67.2444C59.2119 67.3789 59.2476 67.4673 59.3142 67.5097C59.3809 67.552 59.4661 67.5433 59.5699 67.4833C59.6337 67.4465 59.695 67.3928 59.7536 67.3223C59.8122 67.2518 59.8595 67.17 59.8953 67.0769C59.9319 66.9825 59.9483 66.8814 59.9446 66.7736ZM60.8742 67.1476L60.7754 64.3173L61.2089 64.067L61.2459 65.1256L61.2638 65.1152C61.2844 65.0507 61.314 64.9777 61.3527 64.8962C61.3913 64.8137 61.4447 64.7317 61.5127 64.6501C61.5807 64.5676 61.6685 64.4953 61.7763 64.4331C61.9184 64.351 62.048 64.3189 62.1651 64.3369C62.283 64.3534 62.3783 64.4239 62.4511 64.5482C62.5246 64.6712 62.5655 64.8506 62.5737 65.0865C62.5818 65.3195 62.5556 65.5368 62.4951 65.7381C62.4345 65.9394 62.3486 66.1159 62.2374 66.2675C62.1263 66.4191 61.9984 66.5366 61.8539 66.62C61.7485 66.6809 61.6604 66.7111 61.5895 66.7106C61.5187 66.7102 61.4611 66.6936 61.4168 66.6609C61.3732 66.6269 61.339 66.5907 61.314 66.5525L61.2889 66.567L61.3005 66.9014L60.8742 67.1476ZM61.2623 65.8408C61.2671 65.9781 61.288 66.0886 61.3252 66.1724C61.3631 66.2558 61.415 66.3081 61.4809 66.3292C61.5476 66.349 61.6268 66.3324 61.7186 66.2794C61.8144 66.2241 61.8936 66.1483 61.9563 66.052C62.0188 65.9548 62.0647 65.8451 62.0938 65.723C62.1237 65.5996 62.1363 65.4715 62.1317 65.3388C62.1271 65.2071 62.1067 65.0995 62.0703 65.0161C62.034 64.9328 61.9825 64.8807 61.9159 64.86C61.8492 64.8393 61.7675 64.8569 61.6709 64.9126C61.5783 64.9661 61.5006 65.0396 61.4379 65.1331C61.3752 65.2267 61.3289 65.3338 61.2989 65.4545C61.2697 65.5747 61.2575 65.7035 61.2623 65.8408ZM62.9792 65.9323L62.9051 63.8096L63.3194 63.5703L63.332 63.931L63.3536 63.9186C63.3877 63.7748 63.4478 63.6433 63.5341 63.524C63.6203 63.4037 63.7248 63.3081 63.8478 63.2371C63.9723 63.1652 64.0785 63.1396 64.1664 63.1603C64.255 63.1796 64.319 63.239 64.3583 63.3385L64.3775 63.3274C64.4141 63.186 64.4795 63.0524 64.5736 62.9266C64.6686 62.7994 64.7827 62.6973 64.916 62.6204C65.0853 62.5226 65.2255 62.5046 65.3368 62.5663C65.4481 62.628 65.5079 62.7772 65.5162 63.014L65.5659 64.4388L65.1312 64.6898L65.0842 63.3424C65.0796 63.2106 65.0459 63.1319 64.9831 63.1061C64.9202 63.0794 64.8449 63.0914 64.7571 63.1421C64.6525 63.2025 64.572 63.2875 64.5155 63.3972C64.4599 63.5054 64.4341 63.6195 64.4383 63.7392L64.4845 65.0632L64.0594 65.3086L64.0116 63.9405C64.0078 63.8308 63.976 63.7599 63.9162 63.7277C63.8573 63.695 63.7819 63.7051 63.6901 63.7582C63.6278 63.7941 63.5717 63.8453 63.5219 63.9116C63.4721 63.977 63.4332 64.0517 63.4051 64.1355C63.3771 64.2185 63.3646 64.3037 63.3677 64.3912L63.4127 65.682L62.9792 65.9323ZM66.0057 64.1849L65.9316 62.0622L66.3651 61.8119L66.4392 63.9346L66.0057 64.1849ZM66.139 61.6351C66.0704 61.6747 66.0104 61.6826 65.959 61.6587C65.9077 61.6338 65.8807 61.5841 65.8781 61.5094C65.8754 61.4339 65.898 61.3556 65.9456 61.2745C65.9933 61.1925 66.0514 61.1316 66.1201 61.092C66.1895 61.0519 66.2495 61.0445 66.3001 61.0698C66.3514 61.0937 66.3784 61.1435 66.3811 61.219C66.3837 61.2937 66.3611 61.372 66.3135 61.454C66.2666 61.5346 66.2085 61.595 66.139 61.6351ZM67.7294 61.0242L67.7429 61.4112L66.6855 62.0217L66.672 61.6347L67.7294 61.0242ZM66.9153 60.9754L67.3488 60.7252L67.4184 62.718C67.4207 62.7852 67.4313 62.8317 67.4501 62.8575C67.4697 62.8819 67.4945 62.8921 67.5245 62.8879C67.5545 62.8838 67.5875 62.8713 67.6234 62.8506C67.6505 62.8349 67.6752 62.8183 67.6974 62.8008C67.7204 62.7828 67.7378 62.7685 67.7496 62.7579L67.8364 63.1068C67.8135 63.1294 67.7807 63.1587 67.738 63.1946C67.6961 63.2301 67.6444 63.2665 67.583 63.3039C67.4746 63.3702 67.3761 63.4078 67.2876 63.4166C67.1991 63.4245 67.1278 63.3989 67.0736 63.34C67.0202 63.2806 66.9916 63.1843 66.9878 63.0512L66.9153 60.9754Z" fill="#F97E26"/>
<path d="M72.2132 56.0161C72.1927 55.8607 72.0673 55.8048 71.9159 55.8907L51.4754 67.7042C51.3871 67.7589 51.3143 67.8354 51.2641 67.9265L50.5619 67.5174C50.6121 67.4256 50.6854 67.3485 50.7746 67.2938L71.2137 55.4816C71.3065 55.4346 71.409 55.41 71.513 55.41C71.617 55.41 71.7196 55.4346 71.8123 55.4816L71.9159 55.5416C71.9968 55.5946 72.0652 55.6644 72.1165 55.7463C72.1678 55.8282 72.2008 55.9203 72.2132 56.0161Z" fill="#FAFAFA"/>
<path d="M51.425 74.699C51.3376 74.734 51.2438 74.75 51.1498 74.746C51.0558 74.742 50.9636 74.7181 50.8796 74.6758L50.7732 74.6158C50.6859 74.5584 50.6133 74.4812 50.5614 74.3904C50.5095 74.2997 50.4798 74.198 50.4746 74.0936V67.8214C50.4775 67.7169 50.5076 67.6149 50.5619 67.5255L51.2641 67.9346C51.2106 68.0244 51.1801 68.126 51.1755 68.2305V74.5026C51.1755 74.6744 51.2845 74.7535 51.425 74.699Z" fill="#E0E0E0"/>
<path d="M86.5014 64.9669L84.9615 64.0783C84.2924 63.696 83.4747 64.0783 83.0428 64.3403L82.0693 63.7987C80.9046 63.0907 79.2833 64.5669 78.9222 64.9173L78.5045 64.6801C77.2691 63.9367 75.0212 65.9298 75.0212 65.9298V58.4887L75.9982 58.0179L74.4442 57.1187C74.2215 57.0199 73.9767 56.9813 73.7344 57.0068C73.4922 57.0322 73.2608 57.1209 73.0635 57.2638C72.4885 57.6383 72.0099 58.1431 71.6667 58.7373C71.3234 59.3315 71.1252 59.9983 71.0882 60.6835V77.8773C69.6722 76.8153 68.1571 76.1781 66.8402 76.4152C65.7912 76.6604 64.8733 77.2926 64.2702 78.1852C63.6188 79.3393 64.695 80.0614 66.0827 81.6474C67.4703 83.2333 68.6739 85.1166 69.9271 86.2848C70.5456 86.9115 71.2803 87.4116 72.09 87.7574V89.9947L73.6122 90.8761L83.6942 83.297V81.0562C83.6942 81.0562 85.1314 75.3143 85.5916 72.9142C86.0341 70.6061 86.4412 66.921 85.6801 65.0094L86.5049 64.9527L86.5014 64.9669Z" fill="#F97E26"/>
<path opacity="0.4" d="M86.5014 64.9669L84.9615 64.0783C84.2924 63.696 83.4747 64.0783 83.0428 64.3403L82.0693 63.7987C80.9046 63.0907 79.2833 64.5669 78.9222 64.9173L78.5045 64.6801C77.2691 63.9367 75.0212 65.9298 75.0212 65.9298V58.4887L75.9982 58.0179L74.4442 57.1187C74.2215 57.0199 73.9767 56.9813 73.7344 57.0068C73.4922 57.0322 73.2608 57.1209 73.0635 57.2638C72.4885 57.6383 72.0099 58.1431 71.6667 58.7373C71.3234 59.3315 71.1252 59.9983 71.0882 60.6835V77.8773C69.6722 76.8153 68.1571 76.1781 66.8402 76.4152C65.7912 76.6604 64.8733 77.2926 64.2702 78.1852C63.6188 79.3393 64.695 80.0614 66.0827 81.6474C67.4703 83.2333 68.6739 85.1166 69.9271 86.2848C70.5456 86.9115 71.2803 87.4116 72.09 87.7574V89.9947L73.6122 90.8761L83.6942 83.297V81.0562C83.6942 81.0562 85.1314 75.3143 85.5916 72.9142C86.0341 70.6061 86.4412 66.921 85.6801 65.0094L86.5049 64.9527L86.5014 64.9669Z" fill="white"/>
<path d="M75.1344 84.7272L67.5093 80.327L64.171 78.3977C63.7462 79.4385 64.7764 80.1677 66.0791 81.658C67.4562 83.2333 68.6704 85.1272 69.9235 86.2954C70.542 86.9221 71.2767 87.4223 72.0865 87.7681V89.9947L73.6087 90.8762L75.8353 89.2018C75.5486 87.3114 75.1344 84.7272 75.1344 84.7272Z" fill="#F97E26"/>
<path d="M72.6139 61.572L71.0917 60.6906V78.7269L72.6139 78.7658V61.572Z" fill="#F97E26"/>
<path d="M84.5755 66.1245L85.7579 65.2537C85.7296 65.1758 85.7083 65.0979 85.6765 65.0236L86.1084 64.9952L85.1596 64.9528L83.5773 64.0784C83.3923 64.1525 83.2136 64.2413 83.0427 64.3439L83.5383 64.6306L84.5755 66.1245Z" fill="#F97E26"/>
<path d="M80.3878 65.8661L81.4958 65.0236L79.9665 64.0961C79.5974 64.3332 79.2524 64.6059 78.9364 64.9103L79.9984 65.5262L80.3878 65.8661Z" fill="#F97E26"/>
<path d="M78.0726 65.7847L76.5575 64.8997L76.5646 64.8855V66.8006L78.3275 66.1564L78.0726 65.7847Z" fill="#F97E26"/>
<g opacity="0.15">
<path d="M75.1344 84.7271L67.5093 80.3269L64.171 78.3976C63.7462 79.4383 64.7764 80.1676 66.0791 81.6579C67.4562 83.2332 68.6704 85.1271 69.9235 86.2953C70.542 86.922 71.2767 87.4222 72.0865 87.768V89.9946L73.6087 90.8761L75.8353 89.2017C75.5486 87.3113 75.1344 84.7271 75.1344 84.7271Z" fill="black"/>
<path d="M72.614 61.572L71.0918 60.6906V78.7269L72.614 78.7658V61.572Z" fill="black"/>
<path d="M84.5757 66.1245L85.758 65.2537C85.7297 65.1758 85.7085 65.0979 85.6766 65.0236L86.1085 64.9952L85.1598 64.9528L83.5774 64.0784C83.3924 64.1525 83.2137 64.2413 83.0428 64.3439L83.5384 64.6306L84.5757 66.1245Z" fill="black"/>
<path d="M80.3879 65.8661L81.4959 65.0236L79.9667 64.0961C79.5976 64.3332 79.2525 64.6059 78.9365 64.9103L79.9985 65.5262L80.3879 65.8661Z" fill="black"/>
<path d="M78.0726 65.7847L76.5575 64.8997L76.5646 64.8855V66.8006L78.3275 66.1564L78.0726 65.7847Z" fill="black"/>
</g>
<path d="M73.6087 90.8904V88.6495C72.7992 88.2988 72.0657 87.7938 71.4493 87.1627C70.1961 85.9945 68.9713 84.0971 67.6048 82.5253C66.2384 80.9536 65.1268 80.2137 65.7924 79.0632C66.3955 78.1705 67.3133 77.5384 68.3624 77.2932C69.6864 77.056 71.1944 77.7039 72.6104 78.7552V61.5721C72.647 60.8872 72.8447 60.2206 73.1873 59.6264C73.5299 59.0322 74.0078 58.5272 74.5822 58.1524C75.6725 57.5223 76.5575 58.0321 76.5575 59.2923V66.8007C76.5575 66.8007 79.2798 64.3864 80.3772 65.8661C80.3772 65.8661 83.0534 63.066 84.2712 65.4307C84.2712 65.4307 86.2323 63.8483 87.1032 65.6856C87.974 67.5228 87.5634 71.4097 87.1032 73.8099C86.643 76.21 85.2022 81.9519 85.2022 81.9519V84.1927L73.6087 90.8904Z" fill="#F97E26"/>
<path d="M76.5645 70.0256C76.5645 70.0256 76.8123 66.5989 78.0726 65.7776H78.0266C77.5051 66.0587 77.015 66.3946 76.5645 66.7794V66.7157C76.5598 66.7256 76.5574 66.7365 76.5574 66.7476C76.5574 66.7586 76.5598 66.7695 76.5645 66.7794V70.0256Z" fill="#455A64"/>
<path d="M80.3878 65.8661V69.0025C80.3878 69.0025 80.7418 65.7776 81.4498 64.9988C81.0651 65.2481 80.7089 65.5389 80.3878 65.8661Z" fill="#455A64"/>
<path d="M84.2676 65.4307V68.5777C84.2676 68.5777 84.4587 65.4094 85.142 64.9421C84.8282 65.0614 84.5336 65.226 84.2676 65.4307Z" fill="#455A64"/>
<path d="M73.0564 55.1044C72.8086 55.246 72.6104 55.1646 72.6104 54.9168V52.4388C72.6235 52.294 72.6707 52.1543 72.7483 52.0312C72.8258 51.9081 72.9314 51.8052 73.0564 51.7308C73.3006 51.5892 73.4989 51.6742 73.4989 51.9184V54.3964C73.4864 54.541 73.4398 54.6806 73.3629 54.8037C73.286 54.9268 73.1809 55.0299 73.0564 55.1044Z" fill="#EBEBEB"/>
<path d="M69.3253 59.0303C69.1518 59.3276 68.8721 59.4905 68.6987 59.3843L67.2579 58.5524C67.0844 58.4533 67.0844 58.1276 67.2579 57.8444C67.4314 57.5435 67.711 57.3806 67.8845 57.4904L69.3253 58.3223C69.5129 58.4037 69.5129 58.7294 69.3253 59.0303Z" fill="#EBEBEB"/>
<path d="M67.7995 64.1739V64.2447C67.7844 64.3986 67.7333 64.5467 67.6502 64.6771C67.5672 64.8075 67.4546 64.9165 67.3216 64.9952L65.3534 66.1316C65.0914 66.2838 64.8755 66.1953 64.8755 65.9298V65.859C64.8914 65.7054 64.9429 65.5576 65.0259 65.4273C65.1088 65.2971 65.2209 65.1879 65.3534 65.1085L67.3216 63.9722C67.5871 63.82 67.7995 63.9084 67.7995 64.1739Z" fill="#EBEBEB"/>
<path d="M78.3098 58.1772V58.1064C78.3244 57.9519 78.3753 57.8031 78.4583 57.6721C78.5414 57.541 78.6543 57.4315 78.7877 57.3524L80.756 56.216C81.0179 56.0638 81.2339 56.1558 81.2339 56.4178V56.4886C81.2179 56.6422 81.1664 56.79 81.0835 56.9203C81.0005 57.0505 80.8884 57.1597 80.756 57.2391L78.7877 58.3754C78.5293 58.5276 78.3098 58.4391 78.3098 58.1772Z" fill="#EBEBEB"/>
<path d="M76.7592 54.7363C76.5858 54.6372 76.5858 54.315 76.7592 54.0283L78.2 51.5503C78.3735 51.2494 78.6531 51.0866 78.8266 51.1963C79.0001 51.299 79.0001 51.6211 78.8266 51.922L77.3858 54.4C77.2265 54.6761 76.9433 54.839 76.7592 54.7363Z" fill="#EBEBEB"/>
<path d="M139.554 108.588V108.184C139.394 108.655 138.658 110.691 137.543 111.724C136.655 112.535 135.44 113.47 135.132 114.372C134.824 115.275 136.821 115.629 137.649 115.484C138.616 115.31 139.862 114.776 140.541 113.93C141.019 113.342 141.324 112.648 141.664 112.185C142.003 111.721 142.789 111.211 142.977 110.676C143.076 110.383 142.956 109.738 142.814 109.197C142.673 108.655 142.542 108.152 142.372 108.198V108.51C141.968 108.826 141.468 108.993 140.956 108.984C140.538 108.984 139.55 108.899 139.554 108.588Z" fill="#263238"/>
<path d="M136.736 112.422C137.012 112.177 137.292 111.937 137.543 111.714C138.322 111.006 138.917 109.795 139.26 108.97C139.454 108.5 139.554 107.996 139.554 107.487V105.883H142.386V108.496V108.567C142.251 109.151 140.97 110.691 140.223 111.724C139.731 112.404 138.807 113.268 137.678 113.42C136.591 113.562 136.049 113.225 136.736 112.422Z" fill="#FFA8A7"/>
<path d="M128.569 105.809V105.405C128.41 105.88 127.67 107.915 126.555 108.945C125.666 109.756 124.452 110.694 124.144 111.597C123.836 112.5 125.833 112.854 126.661 112.705C127.628 112.535 128.874 111.997 129.553 111.154C130.031 110.567 130.336 109.869 130.675 109.409C131.015 108.949 131.805 108.432 131.989 107.898C132.088 107.604 131.968 106.963 131.826 106.421C131.684 105.88 131.553 105.359 131.383 105.42V105.728C130.981 106.045 130.48 106.214 129.967 106.205C129.564 106.205 128.566 106.124 128.569 105.809Z" fill="#263238"/>
<path d="M125.751 109.646C126.024 109.398 126.304 109.161 126.555 108.938C127.334 108.23 127.928 107.016 128.272 106.191C128.467 105.722 128.568 105.22 128.569 104.712V103.104H131.383V105.717V105.788C131.249 106.375 129.967 107.929 129.221 108.945C128.728 109.625 127.805 110.492 126.675 110.641C125.603 110.783 125.061 110.45 125.751 109.646Z" fill="#FFA8A7"/>
<path d="M141.812 64.8087C143.997 69.5771 141.731 86.3815 141.731 86.3815C141.798 87.1532 142.683 88.6789 143.012 92.0844C143.402 96.1094 142.4 106.216 142.4 106.216C141.973 106.463 141.491 106.603 140.998 106.622C140.505 106.642 140.014 106.542 139.568 106.329C139.568 106.329 136.885 91.1074 136.382 87.1072C135.936 83.6132 135.079 75.942 135.079 75.942L132.676 87.093C133.026 88.2188 133.281 89.3722 133.437 90.541C133.667 92.8951 131.384 103.855 131.384 103.855C131.384 103.855 130.414 104.209 128.569 103.94C128.569 103.94 127.762 89.394 127.55 86.5585C127.196 81.7972 128.456 66.9362 129.32 64.1184L141.812 64.8087Z" fill="#37474F"/>
<path d="M135.079 75.9419L134.371 71.5099C134.371 71.5099 131.369 70.8904 130.01 69.6089C130.947 70.7097 132.173 71.5264 133.55 71.9665L134.347 75.3791L132.955 85.7053L135.079 75.9419Z" fill="#263238"/>
<path d="M133.299 48.107C132.614 48.0482 131.925 48.1649 131.297 48.4461C130.67 48.7273 130.125 49.1637 129.713 49.7142C128.587 51.1868 124.272 56.7942 124.272 56.7942C124.272 56.7942 117.9 53.6082 117.599 53.233C117.298 52.8577 117.464 52.0931 117.549 51.6754C117.634 51.2576 117.779 50.3195 117.871 50.0576C118.034 49.6009 117.358 49.7248 116.958 50.1532C116.558 50.5815 116.385 51.4169 116.183 51.5692C115.981 51.7214 114.473 49.9726 113.737 49.1336C113 48.2947 112.675 47.7176 112.168 48.0539C111.814 48.3017 112.041 48.8009 112.568 49.5195C112.814 49.8241 113.041 50.1433 113.248 50.4753C113.308 50.6027 113.117 50.7054 113.039 50.7762C112.898 50.9036 112.643 51.1302 112.625 51.3107C112.629 51.4197 112.622 51.5288 112.604 51.6364C112.537 51.8771 112.25 51.9904 112.158 52.2241C112.098 52.3904 112.158 52.5781 112.129 52.7586C112.108 52.8719 112.045 52.9745 112.023 53.0914C112.016 53.2051 112.033 53.319 112.074 53.4253C112.115 53.5316 112.179 53.6279 112.26 53.7073C112.774 54.3233 113.478 54.5569 114.154 54.9322C114.717 55.2437 115.298 55.3782 115.946 55.6649C116.593 55.9517 124.105 61.1626 125.295 60.5041C126.484 59.8457 132.623 52.7161 132.623 52.7161C134.393 49.7744 133.299 48.107 133.299 48.107Z" fill="#FFA8A7"/>
<path d="M137.961 48.238C140.757 48.4327 140.956 49.785 141.657 51.2611C142.17 52.4016 142.217 53.6973 141.788 54.8719L139.83 60.5147C139.83 60.5147 140.743 62.7237 141.805 64.8087C136.909 67.5416 130.796 66.1044 129.323 64.1007C129.26 63.6759 129.638 60.3696 129.872 58.2102C129.008 56.0472 128.782 54.6702 129.146 53.2542C129.822 50.5992 132.442 48.015 133.603 48.107L137.961 48.238Z" fill="#F5F5F5"/>
<path d="M135.267 45.9193H136.354C137.106 45.9193 137.851 45.771 138.546 45.4829C139.241 45.1948 139.872 44.7725 140.404 44.2402C140.935 43.7079 141.357 43.0761 141.644 42.3808C141.931 41.6855 142.079 40.9404 142.078 40.188C142.077 38.6621 141.47 37.1989 140.391 36.1202C139.311 35.0415 137.848 34.4355 136.322 34.4355H135.299C133.776 34.4402 132.318 35.0484 131.243 36.1267C130.168 37.205 129.564 38.6655 129.564 40.188C129.561 41.704 130.16 43.1592 131.229 44.2338C132.299 45.3084 133.751 45.9146 135.267 45.9193Z" fill="#263238"/>
<path d="M145.14 48.9353C144.244 48.9344 143.384 48.5779 142.75 47.9441C142.117 47.3103 141.76 46.4509 141.759 45.5546V38.3118C142.204 38.3118 142.643 38.3993 143.054 38.5694C143.464 38.7396 143.837 38.9889 144.151 39.3032C144.465 39.6175 144.714 39.9906 144.884 40.4012C145.053 40.8118 145.14 41.2518 145.14 41.696V48.9353Z" fill="#263238"/>
<path d="M142.379 37.0304L141.533 38.3898C141.619 38.45 141.717 38.4922 141.82 38.5137C141.923 38.5351 142.029 38.5354 142.133 38.5146C142.236 38.4937 142.334 38.4521 142.421 38.3924C142.507 38.3326 142.581 38.2558 142.637 38.1667C142.748 37.9803 142.783 37.7584 142.735 37.547C142.687 37.3355 142.559 37.1506 142.379 37.0304Z" fill="#263238"/>
<path d="M131.603 36.9772C130.941 37.3666 130.123 39.0304 130.205 42.5208C130.272 45.4803 131.231 46.2095 131.713 46.4148C132.194 46.6201 133.129 46.4962 134.024 46.344V48.114C134.024 48.114 132.778 49.5619 132.856 50.3761C132.934 51.1903 134.658 51.3814 135.826 50.5885C136.582 50.0423 137.231 49.362 137.741 48.5813V44.305C137.836 44.4214 137.953 44.5178 138.085 44.5886C138.217 44.6594 138.362 44.7031 138.511 44.7173C138.661 44.7315 138.811 44.7158 138.954 44.6711C139.097 44.6264 139.23 44.5537 139.345 44.4572C140.343 43.7952 140.382 42.1562 139.802 41.5686C139.221 40.9809 137.971 41.1685 137.741 41.9792C137.741 41.9792 136.301 42.0323 134.385 40.9809C133.64 40.5793 132.999 40.0074 132.515 39.3118C132.032 38.6161 131.719 37.8163 131.603 36.9772Z" fill="#FFA8A7"/>
<path d="M133.837 41.7774C133.833 41.8507 133.852 41.9233 133.889 41.9861C133.927 42.0489 133.983 42.0992 134.049 42.1305C134.115 42.1619 134.189 42.1729 134.262 42.1623C134.335 42.1516 134.402 42.1197 134.457 42.0707C134.511 42.0216 134.55 41.9575 134.568 41.8865C134.586 41.8154 134.583 41.7406 134.559 41.6714C134.534 41.6022 134.49 41.5418 134.432 41.4976C134.373 41.4535 134.303 41.4277 134.23 41.4234C134.131 41.4213 134.036 41.4567 133.963 41.5225C133.89 41.5883 133.845 41.6795 133.837 41.7774Z" fill="#263238"/>
<path d="M133.408 44.2874L132.545 44.5599C132.56 44.6176 132.587 44.6716 132.624 44.7187C132.66 44.7657 132.706 44.805 132.758 44.834C132.811 44.8631 132.868 44.8813 132.927 44.8878C132.987 44.8942 133.047 44.8887 133.104 44.8715C133.22 44.8325 133.317 44.7498 133.374 44.6409C133.431 44.5319 133.443 44.4052 133.408 44.2874Z" fill="#F28F8F"/>
<path d="M130.789 40.6376L131.539 40.1137C131.508 40.0632 131.466 40.0198 131.417 39.9858C131.369 39.9519 131.313 39.9283 131.255 39.9164C131.197 39.9045 131.137 39.9045 131.078 39.9165C131.02 39.9285 130.965 39.9522 130.916 39.9862C130.815 40.0577 130.746 40.1652 130.722 40.2864C130.699 40.4077 130.722 40.5334 130.789 40.6376Z" fill="#263238"/>
<path d="M130.98 41.5085C130.976 41.5583 130.982 41.6085 130.998 41.6559C131.014 41.7034 131.039 41.7472 131.072 41.7848C131.105 41.8224 131.145 41.853 131.19 41.8749C131.235 41.8967 131.284 41.9094 131.334 41.912C131.411 41.9183 131.487 41.9015 131.554 41.8639C131.621 41.8263 131.676 41.7695 131.71 41.7009C131.745 41.6322 131.758 41.5548 131.748 41.4786C131.738 41.4024 131.706 41.3308 131.655 41.273C131.605 41.2152 131.538 41.1739 131.464 41.1543C131.389 41.1348 131.311 41.1378 131.238 41.1631C131.166 41.1884 131.102 41.2348 131.056 41.2963C131.01 41.3579 130.984 41.4317 130.98 41.5085Z" fill="#263238"/>
<path d="M132.778 41.296L132.718 43.5368L131.539 43.1722L132.778 41.296Z" fill="#F28F8F"/>
<path d="M134.024 46.3512C134.977 46.2273 136.934 45.6644 137.239 44.8927C137.116 45.2841 136.876 45.6286 136.552 45.8804C135.968 46.3795 134.024 46.9424 134.024 46.9424V46.3512Z" fill="#F28F8F"/>
<path opacity="0.1" d="M136.708 65.3397C137.091 65.2514 137.453 65.0873 137.773 64.8571C138.092 64.6269 138.362 64.3352 138.567 63.9992C138.773 63.6632 138.908 63.2896 138.967 62.9004C139.026 62.5111 139.006 62.114 138.91 61.7324C138.853 61.4998 138.719 61.2931 138.53 61.1459C138.341 60.9987 138.108 60.9198 137.869 60.9218C138.183 60.7136 138.453 60.4453 138.663 60.1325C138.873 59.8196 139.02 59.4683 139.094 59.0987L139.688 55.5587C139.76 54.9821 139.708 54.3967 139.536 53.8418L141.504 51.5656L141.858 51.8169C142.157 52.8167 142.129 53.8859 141.777 54.8684L139.83 60.5147C139.83 60.5147 140.743 62.7236 141.805 64.8087C140.214 65.6673 138.456 66.1748 136.652 66.2969C134.847 66.4191 133.038 66.153 131.345 65.5167C133.127 65.7962 134.947 65.7361 136.708 65.3397Z" fill="black"/>
<path d="M146.821 62.2882C144.28 51.8983 142.4 48.4327 139.313 48.4822C138.41 49.5442 138.662 52.8152 140.085 54.7905C140.085 54.7905 143.271 61.4917 143.77 63.8741C144.212 65.9663 144.719 68.6 144.687 70.3984C144.677 70.7175 144.551 71.022 144.333 71.255C143.752 71.8852 143.752 72.3914 143.373 73.0852C143.08 73.6304 142.757 73.8357 142.85 73.9561C142.971 74.0855 143.137 74.1647 143.314 74.1778C143.491 74.1909 143.666 74.137 143.805 74.0269C144.073 73.8247 144.311 73.5864 144.513 73.3189C144.413 73.9856 144.22 74.635 143.94 75.2482C143.288 76.7173 143.448 77.4677 145.43 76.9438C146.673 76.6146 147.455 75.5809 147.643 72.5896C147.732 71.4897 147.743 70.3847 147.675 69.2833C147.423 66.4513 147.232 63.9591 146.821 62.2882Z" fill="#FFA8A7"/>
<path d="M121.603 91.9923C121.875 81.8785 121.064 79.4571 118.374 77.6057L117.33 83.4644C117.33 83.4644 118.555 90.3674 118.424 92.6684C118.31 94.6897 118.112 97.2173 117.634 98.8492C117.55 99.1434 117.36 99.3958 117.1 99.5572C116.413 99.9856 116.137 100.425 115.62 100.973C115.216 101.398 114.873 101.501 114.912 101.635C114.99 101.784 115.121 101.897 115.279 101.954C115.437 102.01 115.611 102.005 115.765 101.94C116.108 101.802 116.433 101.625 116.735 101.412C116.498 102.032 116.162 102.609 115.74 103.122C114.777 104.301 114.735 105.027 116.678 105.044C117.893 105.044 118.863 104.304 119.779 101.625C120.135 100.642 120.42 99.6352 120.633 98.6121C121.114 95.9394 121.56 93.6207 121.603 91.9923Z" fill="#B16668"/>
<path d="M116.112 76.8376C117.397 76.65 119.142 76.919 120.272 78.9368C121.401 80.9546 121.688 84.4274 121.804 87.8789C121.804 87.8789 119.564 89.7515 116.873 88.8311L116.112 76.8376Z" fill="#F97E26"/>
<path opacity="0.1" d="M116.112 76.8376C117.397 76.65 119.142 76.919 120.272 78.9368C121.401 80.9546 121.688 84.4274 121.804 87.8789C121.804 87.8789 119.564 89.7515 116.873 88.8311L116.112 76.8376Z" fill="black"/>
<path d="M119.889 132.455C120.091 132.532 120.144 132.922 120.176 133.694C120.197 134.278 120.325 135.301 119.638 135.502C118.951 135.704 117.949 135.602 117.514 135.053C116.965 134.345 116.597 133.757 115.815 132.929C115.135 132.2 114.399 131.513 114.13 130.5C113.882 129.576 114.087 129.176 114.717 128.907C115.581 128.553 116.944 129.746 117.62 129.934C118.201 130.104 119.684 132.377 119.889 132.455Z" fill="#263238"/>
<path d="M119.889 131.739V132.688C119.533 132.916 119.121 133.042 118.698 133.054C118.275 133.065 117.857 132.961 117.489 132.752C117.45 132.66 117.241 131.396 117.241 131.396L119.889 131.739Z" fill="#B16668"/>
<path d="M112.218 137.924C112.384 138.432 112.523 138.948 112.636 139.471C112.753 140.044 112.919 141.004 112.721 141.436C112.522 141.867 111.737 142.144 110.519 142.144C109.733 142.144 108.508 142.671 107.669 143.138C106.83 143.606 104.996 143.814 104.08 143.708C103 143.581 101.881 142.954 101.704 142.505C101.527 142.055 101.761 141.595 104.31 140.508C104.334 140.508 107.85 139.354 109.082 137.995L112.218 137.924Z" fill="#263238"/>
<path d="M112.218 136.897C112.218 136.897 112.218 137.605 112.218 138.005C112.218 138.405 111.747 139.007 110.515 138.961C109.652 138.933 109.05 138.699 109.099 137.988V136.961L112.218 136.897Z" fill="#B16668"/>
<path d="M120.505 119.148C120.295 117.463 119.92 115.803 119.386 114.192C119.386 114.192 119.723 109.944 119.886 105.887C120.063 101.518 119.886 96.0315 119.96 94.9412C119.96 94.9412 105.871 92.1091 105.619 97.136C105.368 102.163 106.175 115.034 106.327 117.25C106.48 119.466 106.876 121.431 107.336 125.038C107.797 128.646 109.053 136.961 109.053 136.961C109.541 137.209 110.082 137.333 110.629 137.322C111.177 137.311 111.712 137.165 112.19 136.897C112.19 136.897 113.181 126.805 113.078 124.245C112.998 122.35 112.672 120.474 112.108 118.663C112.108 118.663 112.374 114.5 112.611 110.875C112.848 107.25 113.096 105.515 113.149 103.943L113.453 103.791C113.453 103.791 113.761 110.036 113.928 112.255C114.094 114.475 114.448 116.599 115.089 120.716C115.648 124.291 117.305 131.849 117.305 131.849C118.912 132.72 119.875 131.736 119.875 131.736C119.875 131.736 120.941 122.249 120.505 119.148Z" fill="#37474F"/>
<path d="M113.163 103.947C113.163 103.947 116.583 102.262 118.293 100.743C118.293 100.743 116.703 102.981 114.618 103.972C114.618 103.972 113.878 111.731 113.882 111.576L113.453 103.933L113.163 103.947Z" fill="#263238"/>
<path d="M110.122 75.2375L110.958 79.8254L115.1 79.5245L114.232 74.3207L110.122 75.2375Z" fill="#B16668"/>
<path d="M119.478 79.1882C119.068 77.9421 117.485 76.5827 115.903 76.8766C113.55 77.2764 111.23 77.8551 108.965 78.6076C107.513 79.128 106.193 80.3776 106.073 85.1495C106.073 85.1495 105.588 96.2722 105.58 98.421C109.22 99.8618 113.014 99.8193 115.1 99.3626C119.461 98.4104 119.985 96.6014 119.985 96.6014C119.985 96.6014 120.041 88.6046 119.91 85.1495C119.801 82.2149 119.762 80.0449 119.478 79.1882Z" fill="#F97E26"/>
<path d="M106.926 69.6549C106.926 69.6549 105.864 71.3329 106.002 71.4922C106.14 71.6515 106.933 71.7789 106.933 71.7789L106.926 69.6549Z" fill="#B16668"/>
<path d="M109.843 65.021C107.651 65.5343 107.039 66.5149 106.908 70.0195C106.773 73.6799 107.173 74.8198 107.666 75.3012C107.995 75.6269 109.789 75.6552 110.703 75.3755C111.832 75.0215 114.384 74.0657 115.546 72.1895C116.912 69.9947 117.22 67.0565 115.677 65.8848C113.503 64.2599 110.735 64.8086 109.843 65.021Z" fill="#B16668"/>
<path d="M110.168 75.4889C110.912 74.8906 110.844 74.5048 110.844 74.5048C110.313 75.0039 108.338 75.4287 107.658 75.3013C107.938 75.588 109.223 75.6305 110.168 75.4889Z" fill="#9A4A4D"/>
<path d="M106.933 65.9309C107.577 67.0318 108.972 67.5593 108.972 67.5593C109.393 68.0372 109.159 69.9063 109.899 70.2001C109.899 70.2001 110.218 68.8407 111.361 68.9859C112.505 69.131 112.699 70.5895 111.995 71.4922C111.291 72.3949 110.614 72.0728 110.614 72.0728C110.614 72.0728 110.692 74.0021 111.574 75.0782C111.574 75.0782 112.554 75.372 114.335 74.9472C115.432 74.6888 116.958 73.2764 117.578 71.8073C118.894 68.6921 118.926 65.9167 116.94 65.1308C116.696 63.7148 115.563 63.1024 114.282 62.8369C111.524 62.2705 109.747 63.9909 107.623 63.8423C106.405 63.7573 106.179 64.6388 106.933 65.9309Z" fill="#263238"/>
<path d="M116.986 65.6052L118.286 64.7981C118.179 64.6258 118.007 64.5031 117.81 64.4569C117.612 64.4108 117.405 64.445 117.232 64.552C117.06 64.6591 116.937 64.8302 116.891 65.0277C116.845 65.2252 116.879 65.4329 116.986 65.6052Z" fill="#263238"/>
<path d="M109.078 78.5898C109.078 78.5898 107.018 78.9722 105.942 80.6006C104.865 82.229 100.207 88.07 100.207 88.07C100.207 88.07 93.5091 84.7176 93.1799 84.3176C92.8507 83.9175 93.0347 83.1175 93.1268 82.675C93.2188 82.2325 93.3675 81.259 93.4808 80.9758C93.6507 80.4908 92.9392 80.6218 92.5179 81.0714C92.0966 81.521 91.9126 82.4024 91.7037 82.5546C91.4948 82.7069 89.8983 80.8731 89.1266 79.9881C88.3549 79.1031 87.9902 78.4836 87.4699 78.8483C87.0982 79.1138 87.3389 79.6377 87.8911 80.3952C88.1509 80.7129 88.3876 81.0489 88.5991 81.4006C88.6664 81.5351 88.4611 81.6449 88.3832 81.7157C88.231 81.8502 87.9655 82.0697 87.9442 82.2821C87.9555 82.3998 87.9555 82.5183 87.9442 82.6361C87.8699 82.8874 87.5584 82.9901 87.4699 83.252C87.4061 83.4326 87.4699 83.6308 87.4415 83.8184C87.4168 83.9388 87.353 84.045 87.3283 84.1724C87.3214 84.2926 87.3403 84.4129 87.3836 84.5252C87.427 84.6376 87.4938 84.7393 87.5796 84.8238C88.1212 85.4716 88.8646 85.7194 89.5762 86.1123C90.1673 86.4416 90.7798 86.5832 91.463 86.8876C92.1462 87.192 100.175 93.1251 101.428 92.4348C102.681 91.7445 109.103 84.2397 109.103 84.2397C109.645 83.3964 109.932 82.4138 109.927 81.4111C109.923 80.4083 109.628 79.4284 109.078 78.5898Z" fill="#B16668"/>
<path d="M109.797 78.3491C108.912 78.4482 107.673 78.2854 105.935 80.1474C104.539 81.7454 103.239 83.4239 102.041 85.1742C102.269 86.0938 102.758 86.9279 103.449 87.5766C104.139 88.2252 105.002 88.6608 105.935 88.8311C105.935 88.8311 108.972 85.7194 109.829 84.0025C110.685 82.2856 110.837 79.5032 109.797 78.3491Z" fill="#F97E26"/>
<path opacity="0.1" d="M109.797 78.3491C108.912 78.4482 107.673 78.2854 105.935 80.1474C104.539 81.7454 103.239 83.4239 102.041 85.1742C102.269 86.0938 102.758 86.9279 103.449 87.5766C104.139 88.2252 105.002 88.6608 105.935 88.8311C105.935 88.8311 108.972 85.7194 109.829 84.0025C110.685 82.2856 110.837 79.5032 109.797 78.3491Z" fill="black"/>
</svg>
