<svg width="177" height="167" viewBox="0 0 500 500" fill="none" xmlns="http://www.w3.org/2000/svg">
<path d="M104.74 442C185.31 484.47 315.94 484.47 396.51 442C477.08 399.53 477.09 330.69 396.51 288.23C315.93 245.77 185.31 245.76 104.73 288.23C24.1501 330.7 24.16 399.51 104.74 442Z" fill="#F5F5F5"/>
<path d="M70.19 388.85L73.93 391C74.6011 391.34 75.3428 391.517 76.095 391.517C76.8473 391.517 77.589 391.34 78.26 391L251.08 291.23C251.343 291.144 251.571 290.977 251.733 290.754C251.895 290.53 251.983 290.261 251.983 289.985C251.983 289.709 251.895 289.44 251.733 289.216C251.571 288.993 251.343 288.826 251.08 288.74L247.37 286.62C246.699 286.28 245.957 286.103 245.205 286.103C244.453 286.103 243.711 286.28 243.04 286.62L70.19 386.35C69.9288 386.439 69.702 386.607 69.5413 386.831C69.3806 387.055 69.2942 387.324 69.2942 387.6C69.2942 387.876 69.3806 388.145 69.5413 388.369C69.702 388.593 69.9288 388.761 70.19 388.85Z" fill="#E0E0E0"/>
<path d="M319.68 424.79C348.807 424.79 372.42 411.847 372.42 395.88C372.42 379.913 348.807 366.97 319.68 366.97C290.552 366.97 266.94 379.913 266.94 395.88C266.94 411.847 290.552 424.79 319.68 424.79Z" fill="#E0E0E0"/>
<path d="M380.61 346.12C403.082 346.12 421.3 336.131 421.3 323.81C421.3 311.489 403.082 301.5 380.61 301.5C358.137 301.5 339.92 311.489 339.92 323.81C339.92 336.131 358.137 346.12 380.61 346.12Z" fill="#E0E0E0"/>
<path d="M400.51 301.39C400.45 296.28 404.02 285.66 409.24 278.96C414.46 272.26 422.73 267.31 428.68 269.27C434.22 271.09 433.68 278.33 427.07 283.2C420.46 288.07 410.46 294.2 407.61 302.54L401.56 312.78L400.51 301.39Z" fill="#004B84"/>
<path opacity="0.1" d="M400.51 301.39C400.45 296.28 404.02 285.66 409.24 278.96C414.46 272.26 422.73 267.31 428.68 269.27C434.22 271.09 433.68 278.33 427.07 283.2C420.46 288.07 410.46 294.2 407.61 302.54L401.56 312.78L400.51 301.39Z" fill="black"/>
<path d="M400.22 308.39C400.301 308.381 400.377 308.345 400.436 308.29C400.496 308.234 400.536 308.16 400.55 308.08C403.76 290.6 417.7 276.26 426.1 273.03C426.194 272.994 426.27 272.922 426.311 272.831C426.353 272.739 426.356 272.634 426.32 272.54C426.302 272.495 426.276 272.453 426.242 272.418C426.209 272.383 426.168 272.355 426.124 272.335C426.079 272.316 426.031 272.305 425.982 272.305C425.934 272.304 425.885 272.312 425.84 272.33C417.27 275.62 403.07 290.2 399.84 307.95C399.831 307.998 399.832 308.047 399.843 308.095C399.853 308.142 399.873 308.187 399.901 308.227C399.929 308.267 399.964 308.301 400.005 308.328C400.046 308.354 400.092 308.372 400.14 308.38L400.22 308.39Z" fill="white"/>
<path d="M403 319.52C403.79 316.64 407.24 311.86 412.86 307.87C419.09 303.47 427.01 301.38 428.8 297.99C430.95 293.91 427.49 290.13 421.05 290.99C414.61 291.85 403.39 300.8 401.73 314.06L403 319.52Z" fill="#004B84"/>
<path d="M401.67 316.52C401.742 316.513 401.81 316.486 401.866 316.441C401.923 316.397 401.966 316.338 401.99 316.27C407.15 301.27 418.49 295.89 423.76 295.14C423.857 295.125 423.945 295.073 424.005 294.995C424.065 294.916 424.092 294.818 424.08 294.72C424.074 294.671 424.058 294.624 424.034 294.582C424.009 294.539 423.976 294.502 423.937 294.472C423.898 294.442 423.853 294.42 423.806 294.408C423.758 294.396 423.709 294.393 423.66 294.4C417.83 295.23 406.56 300.71 401.28 316.03C401.264 316.076 401.258 316.125 401.261 316.173C401.264 316.222 401.276 316.269 401.298 316.313C401.319 316.356 401.349 316.395 401.385 316.427C401.422 316.46 401.464 316.484 401.51 316.5C401.561 316.521 401.616 316.528 401.67 316.52Z" fill="white"/>
<path d="M74.8499 386.33L74.0899 385.89C73.4507 385.474 72.9185 384.913 72.5363 384.253C72.1541 383.592 71.9327 382.852 71.8899 382.09V125.83C71.9335 125.067 72.1552 124.325 72.5372 123.664C72.9193 123.002 73.451 122.439 74.0899 122.02L239.21 26.7C239.892 26.3547 240.646 26.1747 241.41 26.1747C242.174 26.1747 242.928 26.3547 243.61 26.7L244.36 27.14C245.001 27.5567 245.534 28.119 245.917 28.7812C246.299 29.4433 246.519 30.1865 246.56 30.95V287.2C246.519 287.964 246.299 288.707 245.917 289.369C245.534 290.031 245.001 290.593 244.36 291.01L79.2499 386.33C78.5679 386.675 77.8143 386.855 77.0499 386.855C76.2855 386.855 75.5318 386.675 74.8499 386.33Z" fill="#004B84"/>
<path opacity="0.4" d="M246.54 30.6C246.39 29.46 245.47 29.04 244.37 29.67L79.2398 125C78.5933 125.407 78.0602 125.972 77.6898 126.64L72.5398 123.64C72.9151 122.972 73.4513 122.408 74.0998 122L239.21 26.7C239.892 26.3547 240.645 26.1747 241.41 26.1747C242.174 26.1747 242.928 26.3547 243.61 26.7L244.37 27.14C244.955 27.5315 245.45 28.0421 245.824 28.6383C246.198 29.2346 246.442 29.903 246.54 30.6Z" fill="white"/>
<path opacity="0.1" d="M78.8799 386.5C78.2389 386.755 77.5511 386.872 76.8617 386.843C76.1723 386.814 75.4969 386.639 74.8799 386.33L74.1099 385.89C73.4707 385.472 72.9392 384.909 72.5586 384.247C72.1781 383.585 71.9592 382.843 71.9199 382.08V125.83C71.9431 125.067 72.1636 124.323 72.5599 123.67L77.7099 126.67C77.3013 127.311 77.0574 128.042 76.9999 128.8V385.06C76.9999 386.32 77.8399 386.91 78.8799 386.5Z" fill="black"/>
<path d="M96.5198 199.27L95.7598 198.83C95.1204 198.411 94.5882 197.849 94.2061 197.187C93.824 196.525 93.6026 195.783 93.5598 195.02V149C93.6026 148.238 93.824 147.497 94.2062 146.837C94.5884 146.177 95.1206 145.616 95.7598 145.2L245.67 58.53C246.35 58.1847 247.102 58.0048 247.865 58.0048C248.628 58.0048 249.38 58.1847 250.06 58.53L250.82 58.97C251.461 59.3845 251.994 59.945 252.377 60.6055C252.759 61.266 252.979 62.0078 253.02 62.77V108.83C252.979 109.593 252.759 110.337 252.377 110.999C251.994 111.661 251.461 112.223 250.82 112.64L100.92 199.27C100.238 199.615 99.4842 199.795 98.7198 199.795C97.9554 199.795 97.2018 199.615 96.5198 199.27Z" fill="#EBEBEB"/>
<path d="M253 62.4202C252.85 61.2802 251.93 60.8702 250.82 61.5002L100.91 148.14C100.261 148.541 99.7275 149.103 99.3597 149.77L94.2097 146.77C94.5782 146.097 95.1159 145.532 95.7697 145.13L245.67 58.5002C246.35 58.155 247.102 57.975 247.865 57.975C248.627 57.975 249.38 58.155 250.06 58.5002L250.82 58.9402C251.413 59.3285 251.915 59.8406 252.291 60.4413C252.667 61.042 252.909 61.7171 253 62.4202Z" fill="#FAFAFA"/>
<path d="M100.54 199.44C99.8989 199.697 99.2109 199.814 98.5213 199.785C97.8317 199.756 97.1562 199.58 96.5396 199.27L95.7596 198.83C95.1188 198.409 94.5865 197.843 94.206 197.177C93.8254 196.512 93.6074 195.766 93.5696 195V149C93.591 148.233 93.8116 147.486 94.2096 146.83L99.3596 149.83C98.967 150.489 98.7436 151.234 98.7096 152V198C98.7096 199.26 99.5096 199.84 100.54 199.44Z" fill="#E0E0E0"/>
<path d="M124.006 166.827C127.316 164.932 130 166.405 130 170.115C130 173.825 127.312 178.34 123.998 180.197C120.683 182.054 118 180.581 118 176.905C118 173.23 120.695 168.726 124.006 166.827Z" fill="#004B84"/>
<path d="M117.525 146.629C117.482 146.307 117.339 146.118 117.098 146.064C116.859 146.008 116.554 146.087 116.181 146.302C115.92 146.453 115.697 146.628 115.513 146.827C115.329 147.026 115.19 147.233 115.096 147.446C115.003 147.66 114.958 147.867 114.963 148.069C114.969 148.236 115.006 148.361 115.076 148.446C115.148 148.529 115.243 148.58 115.361 148.6C115.479 148.617 115.609 148.613 115.751 148.59C115.892 148.566 116.035 148.533 116.179 148.49L116.835 148.303C117.099 148.222 117.353 148.172 117.599 148.152C117.847 148.131 118.07 148.156 118.268 148.228C118.468 148.298 118.629 148.429 118.751 148.622C118.873 148.815 118.939 149.084 118.952 149.43C118.968 149.898 118.879 150.371 118.684 150.847C118.488 151.321 118.198 151.771 117.813 152.198C117.429 152.621 116.96 152.993 116.406 153.313C115.867 153.625 115.395 153.798 114.992 153.835C114.59 153.87 114.271 153.768 114.035 153.527C113.801 153.285 113.666 152.904 113.629 152.383L114.864 151.67C114.892 151.938 114.975 152.127 115.112 152.236C115.249 152.346 115.424 152.385 115.637 152.355C115.852 152.324 116.091 152.233 116.352 152.082C116.625 151.924 116.863 151.739 117.065 151.527C117.269 151.311 117.426 151.085 117.538 150.848C117.649 150.608 117.702 150.373 117.696 150.143C117.687 149.936 117.628 149.795 117.519 149.719C117.41 149.641 117.261 149.611 117.071 149.628C116.882 149.641 116.663 149.683 116.412 149.753L115.616 149.974C115.04 150.134 114.58 150.138 114.236 149.986C113.895 149.83 113.714 149.466 113.694 148.893C113.678 148.422 113.774 147.946 113.982 147.464C114.193 146.981 114.487 146.532 114.864 146.115C115.24 145.696 115.671 145.346 116.156 145.066C116.647 144.783 117.081 144.633 117.458 144.617C117.837 144.597 118.139 144.701 118.363 144.927C118.587 145.151 118.71 145.486 118.733 145.932L117.525 146.629ZM122.399 149.849C121.878 150.15 121.424 150.285 121.036 150.254C120.651 150.219 120.349 150.029 120.13 149.686C119.91 149.34 119.79 148.853 119.768 148.226C119.746 147.609 119.829 147.009 120.016 146.426C120.205 145.839 120.478 145.309 120.837 144.837C121.195 144.362 121.622 143.981 122.119 143.695C122.439 143.51 122.743 143.395 123.032 143.351C123.322 143.302 123.581 143.339 123.808 143.46C124.038 143.579 124.223 143.794 124.362 144.104C124.502 144.411 124.581 144.827 124.599 145.353L124.614 145.786L120.355 148.245L120.322 147.293L123.407 145.511C123.396 145.242 123.336 145.031 123.23 144.877C123.123 144.721 122.979 144.633 122.796 144.614C122.616 144.593 122.409 144.65 122.174 144.786C121.924 144.93 121.706 145.127 121.522 145.377C121.337 145.625 121.196 145.892 121.098 146.18C121.002 146.463 120.957 146.74 120.964 147.009L120.993 147.841C121.006 148.19 121.071 148.457 121.191 148.643C121.31 148.827 121.471 148.927 121.674 148.945C121.877 148.961 122.111 148.892 122.378 148.738C122.556 148.635 122.716 148.514 122.858 148.373C123.001 148.23 123.123 148.071 123.225 147.895C123.327 147.719 123.402 147.531 123.45 147.331L124.599 146.819C124.539 147.209 124.412 147.593 124.218 147.971C124.026 148.344 123.776 148.693 123.468 149.017C123.159 149.339 122.803 149.616 122.399 149.849ZM128.127 140.305L128.165 141.398L125.178 143.123L125.14 142.03L128.127 140.305ZM125.827 140.168L127.052 139.461L127.248 145.09C127.255 145.28 127.285 145.411 127.338 145.484C127.393 145.553 127.463 145.582 127.548 145.57C127.633 145.558 127.726 145.523 127.827 145.464C127.904 145.42 127.974 145.373 128.036 145.324C128.101 145.273 128.151 145.233 128.184 145.203L128.429 146.188C128.364 146.252 128.272 146.335 128.151 146.436C128.033 146.537 127.887 146.64 127.713 146.745C127.407 146.933 127.129 147.039 126.879 147.063C126.629 147.086 126.427 147.014 126.274 146.847C126.124 146.679 126.043 146.407 126.032 146.031L125.827 140.168ZM132.669 135.644L132.948 143.639L131.723 144.346L131.444 136.351L132.669 135.644ZM134.207 142.912L133.998 136.916L135.223 136.209L135.432 142.205L134.207 142.912ZM134.584 135.709C134.39 135.821 134.22 135.843 134.075 135.776C133.93 135.706 133.854 135.565 133.847 135.354C133.839 135.141 133.903 134.92 134.038 134.69C134.172 134.459 134.336 134.287 134.53 134.175C134.727 134.062 134.896 134.041 135.039 134.112C135.184 134.18 135.26 134.32 135.268 134.534C135.275 134.745 135.211 134.966 135.077 135.198C134.944 135.425 134.78 135.596 134.584 135.709ZM136.691 141.478L136.482 135.482L137.652 134.806L137.688 135.825L137.749 135.79C137.845 135.384 138.015 135.012 138.259 134.675C138.502 134.335 138.798 134.065 139.145 133.864C139.497 133.661 139.797 133.589 140.045 133.648C140.295 133.702 140.476 133.87 140.587 134.151L140.641 134.12C140.745 133.72 140.929 133.343 141.195 132.987C141.463 132.628 141.786 132.34 142.162 132.122C142.641 131.846 143.037 131.795 143.351 131.97C143.666 132.144 143.834 132.565 143.858 133.234L143.998 137.259L142.77 137.968L142.637 134.162C142.624 133.79 142.529 133.567 142.352 133.494C142.174 133.419 141.962 133.453 141.713 133.596C141.418 133.767 141.191 134.007 141.031 134.317C140.874 134.623 140.801 134.945 140.813 135.283L140.944 139.023L139.743 139.716L139.608 135.851C139.597 135.542 139.507 135.341 139.338 135.25C139.172 135.158 138.959 135.187 138.699 135.336C138.523 135.438 138.365 135.582 138.224 135.77C138.084 135.955 137.974 136.166 137.894 136.402C137.815 136.637 137.78 136.877 137.789 137.125L137.916 140.771L136.691 141.478ZM145.241 136.542L145.031 130.546L146.256 129.839L146.465 135.835L145.241 136.542ZM145.617 129.339C145.423 129.451 145.254 129.473 145.109 129.406C144.964 129.335 144.888 129.195 144.88 128.984C144.873 128.771 144.936 128.549 145.071 128.32C145.205 128.089 145.37 127.917 145.564 127.805C145.76 127.692 145.929 127.671 146.072 127.742C146.217 127.81 146.294 127.95 146.301 128.164C146.308 128.375 146.245 128.596 146.11 128.827C145.978 129.055 145.813 129.226 145.617 129.339ZM150.11 127.613L150.148 128.707L147.161 130.431L147.123 129.338L150.11 127.613ZM147.81 127.476L149.035 126.769L149.231 132.398C149.238 132.588 149.268 132.719 149.321 132.792C149.376 132.861 149.446 132.89 149.531 132.878C149.616 132.866 149.709 132.831 149.81 132.773C149.887 132.728 149.957 132.681 150.019 132.632C150.084 132.581 150.134 132.541 150.167 132.511L150.412 133.497C150.347 133.56 150.255 133.643 150.134 133.745C150.016 133.845 149.87 133.948 149.696 134.053C149.39 134.241 149.112 134.347 148.862 134.372C148.612 134.394 148.41 134.322 148.257 134.155C148.107 133.987 148.026 133.715 148.015 133.339L147.81 127.476Z" fill="#004B84"/>
<path d="M112.26 167.886C111.75 168.18 111.31 168.27 110.941 168.157C110.571 168.042 110.28 167.733 110.07 167.231C109.859 166.726 109.738 166.039 109.708 165.169C109.678 164.305 109.746 163.513 109.915 162.792C110.085 162.067 110.344 161.44 110.691 160.91C111.04 160.376 111.468 159.964 111.973 159.672C112.478 159.38 112.916 159.294 113.286 159.412C113.658 159.526 113.949 159.836 114.16 160.341C114.373 160.842 114.495 161.524 114.525 162.388C114.555 163.257 114.486 164.054 114.318 164.777C114.15 165.498 113.893 166.124 113.545 166.653C113.198 167.181 112.769 167.591 112.26 167.886ZM112.23 167.027C112.735 166.735 113.118 166.227 113.378 165.504C113.638 164.78 113.749 163.898 113.713 162.857C113.689 162.165 113.604 161.612 113.458 161.2C113.315 160.786 113.12 160.521 112.872 160.404C112.626 160.285 112.336 160.322 112.002 160.515C111.502 160.804 111.12 161.315 110.858 162.048C110.596 162.778 110.483 163.662 110.52 164.701C110.544 165.393 110.627 165.945 110.771 166.356C110.914 166.767 111.108 167.03 111.354 167.146C111.602 167.261 111.894 167.221 112.23 167.027Z" fill="#004B84"/>
<path d="M218.153 103.18L218.432 111.175L217.593 111.659L217.349 104.679L217.309 104.702L215.662 106.975L215.628 105.991L217.314 103.664L218.153 103.18ZM222.688 108.829C222.178 109.123 221.739 109.214 221.369 109.101C220.999 108.985 220.709 108.676 220.498 108.174C220.287 107.669 220.166 106.982 220.136 106.113C220.106 105.249 220.175 104.456 220.343 103.735C220.513 103.01 220.772 102.383 221.119 101.853C221.469 101.32 221.896 100.907 222.401 100.615C222.906 100.324 223.344 100.237 223.714 100.355C224.086 100.47 224.377 100.779 224.588 101.284C224.801 101.785 224.923 102.467 224.953 103.331C224.984 104.201 224.915 104.997 224.747 105.721C224.579 106.442 224.321 107.067 223.974 107.597C223.626 108.124 223.198 108.535 222.688 108.829ZM222.658 107.97C223.163 107.678 223.546 107.171 223.806 106.447C224.066 105.724 224.178 104.841 224.141 103.8C224.117 103.108 224.032 102.556 223.887 102.143C223.743 101.729 223.548 101.464 223.3 101.347C223.054 101.229 222.764 101.266 222.431 101.458C221.93 101.748 221.549 102.258 221.287 102.991C221.024 103.721 220.912 104.606 220.948 105.644C220.972 106.336 221.056 106.888 221.199 107.299C221.342 107.71 221.536 107.974 221.782 108.09C222.03 108.204 222.322 108.164 222.658 107.97ZM227.303 104.938L227.263 105.391C227.235 105.71 227.188 106.061 227.121 106.445C227.056 106.828 226.987 107.193 226.914 107.54C226.841 107.888 226.78 108.166 226.732 108.374L226.123 108.725C226.147 108.542 226.178 108.3 226.215 107.999C226.253 107.699 226.29 107.365 226.325 107C226.363 106.635 226.392 106.268 226.411 105.899L226.437 105.438L227.303 104.938ZM230.828 104.129C230.318 104.424 229.879 104.514 229.509 104.401C229.139 104.285 228.849 103.976 228.638 103.474C228.427 102.969 228.306 102.282 228.276 101.413C228.246 100.549 228.315 99.7565 228.483 99.0355C228.653 98.3106 228.912 97.6833 229.259 97.1535C229.609 96.6199 230.036 96.2072 230.541 95.9155C231.046 95.6239 231.484 95.5372 231.854 95.6555C232.226 95.7699 232.518 96.0795 232.728 96.5843C232.942 97.0852 233.063 97.7677 233.093 98.6318C233.124 99.501 233.055 100.297 232.887 101.021C232.719 101.742 232.461 102.367 232.114 102.897C231.766 103.424 231.338 103.835 230.828 104.129ZM230.798 103.27C231.303 102.979 231.686 102.471 231.946 101.748C232.206 101.024 232.318 100.142 232.281 99.1005C232.257 98.4082 232.172 97.8559 232.027 97.4434C231.884 97.0296 231.688 96.7642 231.44 96.6472C231.194 96.5289 230.904 96.5661 230.571 96.7588C230.07 97.0478 229.689 97.5587 229.427 98.2915C229.165 99.0216 229.052 99.9058 229.088 100.944C229.112 101.637 229.196 102.188 229.339 102.599C229.482 103.011 229.677 103.274 229.922 103.39C230.17 103.504 230.462 103.464 230.798 103.27ZM236.782 100.692C236.272 100.986 235.833 101.077 235.463 100.964C235.093 100.848 234.803 100.539 234.592 100.037C234.381 99.5318 234.26 98.8448 234.23 97.9755C234.2 97.1115 234.269 96.319 234.437 95.598C234.607 94.8731 234.866 94.2458 235.213 93.716C235.563 93.1824 235.99 92.7697 236.495 92.478C237 92.1864 237.438 92.0997 237.808 92.218C238.18 92.3324 238.472 92.642 238.682 93.1468C238.895 93.6477 239.017 94.3302 239.047 95.1943C239.078 96.0635 239.009 96.86 238.841 97.5835C238.673 98.3045 238.415 98.9299 238.068 99.4596C237.72 99.9868 237.292 100.398 236.782 100.692ZM236.752 99.8329C237.257 99.5413 237.64 99.0336 237.9 98.31C238.16 97.5864 238.272 96.7041 238.235 95.663C238.211 94.9707 238.126 94.4184 237.981 94.0059C237.837 93.5921 237.642 93.3267 237.394 93.2097C237.148 93.0914 236.858 93.1286 236.525 93.3213C236.024 93.6103 235.643 94.1212 235.381 94.854C235.119 95.5841 235.006 96.4683 235.042 97.5068C235.066 98.1991 235.15 98.7508 235.293 99.162C235.436 99.5731 235.631 99.8366 235.876 99.9523C236.124 100.067 236.416 100.027 236.752 99.8329ZM242.736 97.2543C242.226 97.5485 241.787 97.6391 241.417 97.5261C241.047 97.4104 240.757 97.1014 240.546 96.5992C240.335 96.0943 240.214 95.4073 240.184 94.538C240.154 93.674 240.223 92.8815 240.391 92.1605C240.561 91.4356 240.82 90.8083 241.167 90.2785C241.517 89.7449 241.944 89.3322 242.449 89.0405C242.954 88.7489 243.392 88.6622 243.762 88.7805C244.134 88.8949 244.425 89.2045 244.636 89.7093C244.849 90.2102 244.971 90.8927 245.001 91.7568C245.032 92.626 244.963 93.4225 244.795 94.146C244.627 94.867 244.369 95.4924 244.022 96.0221C243.674 96.5493 243.246 96.96 242.736 97.2543ZM242.706 96.3954C243.211 96.1038 243.594 95.5961 243.854 94.8725C244.114 94.1489 244.226 93.2666 244.189 92.2255C244.165 91.5332 244.08 90.9809 243.935 90.5684C243.791 90.1546 243.596 89.8892 243.348 89.7722C243.102 89.6539 242.812 89.6911 242.479 89.8838C241.978 90.1728 241.597 90.6837 241.335 91.4165C241.072 92.1466 240.96 93.0308 240.996 94.0693C241.02 94.7616 241.104 95.3133 241.247 95.7245C241.39 96.1356 241.584 96.3991 241.83 96.5148C242.078 96.6292 242.37 96.5894 242.706 96.3954Z" fill="#004B84"/>
<path d="M112 180.5L244 104.5" stroke="#004B84" stroke-width="3" stroke-linecap="round"/>
<path d="M143.72 219.423L143.427 219.253C143.181 219.092 142.976 218.876 142.829 218.621C142.681 218.366 142.596 218.08 142.58 217.786V200.06C142.596 199.767 142.681 199.482 142.829 199.227C142.976 198.973 143.181 198.757 143.427 198.597L201.168 165.214C201.43 165.081 201.72 165.011 202.014 165.011C202.308 165.011 202.597 165.081 202.859 165.214L203.152 165.383C203.399 165.543 203.604 165.759 203.752 166.013C203.899 166.267 203.984 166.553 203.999 166.847V184.588C203.984 184.882 203.899 185.168 203.752 185.423C203.604 185.678 203.399 185.895 203.152 186.055L145.414 219.423C145.152 219.556 144.862 219.625 144.567 219.625C144.273 219.625 143.982 219.556 143.72 219.423Z" fill="#EBEBEB"/>
<path d="M163.525 196.63C163.481 196.307 163.339 196.118 163.098 196.064C162.859 196.008 162.553 196.087 162.181 196.302C161.92 196.453 161.697 196.628 161.513 196.827C161.329 197.027 161.19 197.233 161.096 197.446C161.002 197.66 160.958 197.867 160.963 198.069C160.968 198.236 161.006 198.361 161.076 198.446C161.148 198.529 161.243 198.58 161.361 198.6C161.479 198.617 161.609 198.613 161.75 198.59C161.892 198.567 162.035 198.533 162.178 198.49L162.834 198.303C163.098 198.222 163.353 198.172 163.599 198.152C163.846 198.131 164.069 198.157 164.267 198.228C164.468 198.298 164.629 198.43 164.75 198.622C164.872 198.815 164.939 199.084 164.951 199.43C164.968 199.899 164.878 200.371 164.683 200.847C164.488 201.321 164.198 201.772 163.812 202.198C163.429 202.622 162.96 202.993 162.405 203.314C161.866 203.625 161.395 203.799 160.991 203.835C160.59 203.87 160.271 203.768 160.035 203.527C159.801 203.285 159.666 202.904 159.629 202.383L160.864 201.671C160.892 201.939 160.974 202.127 161.112 202.236C161.249 202.346 161.424 202.385 161.637 202.355C161.852 202.324 162.09 202.233 162.352 202.082C162.625 201.924 162.862 201.739 163.064 201.527C163.268 201.311 163.426 201.085 163.538 200.848C163.649 200.608 163.702 200.373 163.696 200.143C163.686 199.936 163.627 199.795 163.519 199.72C163.41 199.642 163.261 199.611 163.07 199.628C162.882 199.641 162.663 199.683 162.412 199.753L161.616 199.974C161.039 200.134 160.579 200.138 160.236 199.986C159.894 199.83 159.714 199.466 159.694 198.893C159.677 198.422 159.773 197.946 159.982 197.464C160.193 196.981 160.487 196.532 160.863 196.115C161.24 195.696 161.67 195.347 162.155 195.067C162.647 194.783 163.081 194.633 163.458 194.617C163.837 194.598 164.138 194.701 164.363 194.927C164.587 195.151 164.71 195.486 164.732 195.932L163.525 196.63ZM169.318 196.626L169.197 193.152L170.422 192.445L170.631 198.441L169.444 199.127L169.406 198.061L169.352 198.092C169.247 198.496 169.063 198.881 168.802 199.25C168.544 199.617 168.219 199.913 167.829 200.138C167.489 200.335 167.185 200.422 166.917 200.398C166.651 200.371 166.439 200.232 166.281 199.981C166.123 199.727 166.035 199.361 166.018 198.882L165.885 195.064L167.11 194.357L167.235 197.956C167.249 198.336 167.349 198.586 167.538 198.706C167.726 198.825 167.967 198.8 168.26 198.631C168.44 198.527 168.613 198.375 168.779 198.176C168.944 197.977 169.078 197.746 169.179 197.483C169.282 197.216 169.329 196.931 169.318 196.626ZM171.944 197.683L171.665 189.688L172.89 188.981L172.994 191.971L173.045 191.942C173.103 191.759 173.187 191.553 173.296 191.323C173.405 191.09 173.556 190.858 173.748 190.628C173.94 190.395 174.188 190.19 174.493 190.015C174.894 189.783 175.26 189.692 175.591 189.743C175.924 189.79 176.193 189.989 176.399 190.34C176.606 190.687 176.722 191.194 176.745 191.86C176.768 192.519 176.694 193.132 176.523 193.701C176.352 194.27 176.109 194.768 175.795 195.197C175.481 195.625 175.12 195.957 174.712 196.192C174.414 196.364 174.165 196.45 173.965 196.448C173.765 196.447 173.602 196.4 173.477 196.308C173.354 196.212 173.257 196.11 173.187 196.002L173.116 196.043L173.149 196.987L171.944 197.683ZM173.041 193.991C173.054 194.379 173.113 194.691 173.218 194.928C173.325 195.164 173.472 195.311 173.658 195.371C173.846 195.427 174.07 195.38 174.33 195.23C174.6 195.074 174.824 194.86 175.001 194.588C175.178 194.313 175.307 194.003 175.39 193.659C175.474 193.31 175.51 192.948 175.497 192.573C175.484 192.201 175.426 191.897 175.323 191.662C175.221 191.426 175.075 191.279 174.887 191.221C174.698 191.162 174.468 191.212 174.195 191.369C173.933 191.52 173.714 191.728 173.537 191.992C173.36 192.256 173.229 192.559 173.144 192.9C173.061 193.24 173.027 193.603 173.041 193.991ZM177.891 194.25L177.681 188.253L178.852 187.578L178.887 188.596L178.948 188.561C179.044 188.155 179.214 187.784 179.458 187.447C179.702 187.107 179.997 186.837 180.344 186.636C180.696 186.433 180.996 186.361 181.244 186.419C181.495 186.474 181.675 186.642 181.786 186.923L181.841 186.891C181.944 186.492 182.129 186.114 182.395 185.759C182.663 185.4 182.985 185.111 183.362 184.894C183.84 184.618 184.236 184.567 184.551 184.741C184.865 184.916 185.034 185.337 185.057 186.006L185.198 190.031L183.97 190.74L183.837 186.934C183.824 186.561 183.729 186.339 183.551 186.266C183.374 186.191 183.161 186.225 182.913 186.368C182.617 186.538 182.39 186.779 182.231 187.088C182.073 187.394 182.001 187.716 182.012 188.055L182.143 191.795L180.942 192.488L180.807 188.623C180.796 188.313 180.706 188.113 180.538 188.022C180.371 187.93 180.158 187.958 179.899 188.108C179.723 188.21 179.564 188.354 179.424 188.542C179.283 188.726 179.173 188.937 179.094 189.174C179.015 189.408 178.979 189.649 178.988 189.896L179.115 193.543L177.891 194.25ZM186.44 189.314L186.231 183.317L187.455 182.61L187.665 188.607L186.44 189.314ZM186.817 182.111C186.623 182.223 186.453 182.245 186.308 182.177C186.163 182.107 186.087 181.967 186.08 181.756C186.072 181.542 186.136 181.321 186.27 181.092C186.405 180.86 186.569 180.689 186.763 180.577C186.959 180.463 187.129 180.442 187.272 180.514C187.417 180.582 187.493 180.722 187.5 180.935C187.508 181.146 187.444 181.367 187.31 181.599C187.177 181.827 187.013 181.997 186.817 182.111ZM191.309 180.385L191.347 181.478L188.36 183.203L188.322 182.11L191.309 180.385ZM189.01 180.247L190.234 179.54L190.431 185.17C190.437 185.36 190.467 185.491 190.52 185.564C190.576 185.633 190.646 185.662 190.73 185.65C190.815 185.638 190.908 185.603 191.01 185.544C191.086 185.5 191.156 185.453 191.219 185.404C191.284 185.353 191.333 185.313 191.366 185.283L191.611 186.268C191.547 186.332 191.454 186.415 191.334 186.516C191.215 186.616 191.069 186.719 190.896 186.825C190.589 187.012 190.311 187.118 190.061 187.143C189.811 187.165 189.61 187.093 189.457 186.927C189.306 186.759 189.225 186.487 189.214 186.111L189.01 180.247Z" fill="#004B84"/>
<path d="M203.992 166.712C203.934 166.273 203.58 166.115 203.152 166.358L145.411 199.729C145.161 199.884 144.955 200.1 144.814 200.357L142.83 199.202C142.972 198.942 143.179 198.725 143.431 198.57L201.169 165.202C201.431 165.069 201.72 165 202.014 165C202.308 165 202.597 165.069 202.859 165.202L203.152 165.372C203.381 165.521 203.574 165.719 203.719 165.95C203.864 166.181 203.957 166.441 203.992 166.712Z" fill="#FAFAFA"/>
<path d="M145.268 219.489C145.021 219.588 144.756 219.633 144.491 219.622C144.225 219.61 143.965 219.543 143.727 219.423L143.427 219.254C143.18 219.092 142.975 218.873 142.829 218.617C142.682 218.361 142.598 218.073 142.583 217.778V200.06C142.592 199.765 142.677 199.477 142.83 199.225L144.814 200.38C144.662 200.634 144.576 200.921 144.563 201.216V218.934C144.563 219.419 144.871 219.643 145.268 219.489Z" fill="#E0E0E0"/>
<path d="M244.354 191.997L240.004 189.487C238.114 188.407 235.804 189.487 234.584 190.227L231.834 188.697C228.544 186.697 223.964 190.867 222.944 191.857L221.764 191.187C218.274 189.087 211.924 194.717 211.924 194.717V173.697L214.684 172.367L210.294 169.827C209.665 169.548 208.974 169.439 208.289 169.511C207.605 169.583 206.951 169.833 206.394 170.237C204.77 171.295 203.418 172.721 202.448 174.399C201.479 176.078 200.919 177.961 200.814 179.897V228.467C196.814 225.467 192.534 223.667 188.814 224.337C185.851 225.03 183.258 226.815 181.554 229.337C179.714 232.597 182.754 234.637 186.674 239.117C190.594 243.597 193.994 248.917 197.534 252.217C199.281 253.987 201.357 255.4 203.644 256.377V262.697L207.944 265.187L236.424 243.777V237.447C236.424 237.447 240.484 221.227 241.784 214.447C243.034 207.927 244.184 197.517 242.034 192.117L244.364 191.957L244.354 191.997Z" fill="#004B84"/>
<path opacity="0.4" d="M244.354 191.997L240.004 189.487C238.114 188.407 235.804 189.487 234.584 190.227L231.834 188.697C228.544 186.697 223.964 190.867 222.944 191.857L221.764 191.187C218.274 189.087 211.924 194.717 211.924 194.717V173.697L214.684 172.367L210.294 169.827C209.665 169.548 208.974 169.439 208.289 169.511C207.605 169.583 206.951 169.833 206.394 170.237C204.77 171.295 203.418 172.721 202.448 174.399C201.479 176.078 200.919 177.961 200.814 179.897V228.467C196.814 225.467 192.534 223.667 188.814 224.337C185.851 225.03 183.258 226.815 181.554 229.337C179.714 232.597 182.754 234.637 186.674 239.117C190.594 243.597 193.994 248.917 197.534 252.217C199.281 253.987 201.357 255.4 203.644 256.377V262.697L207.944 265.187L236.424 243.777V237.447C236.424 237.447 240.484 221.227 241.784 214.447C243.034 207.927 244.184 197.517 242.034 192.117L244.364 191.957L244.354 191.997Z" fill="white"/>
<path d="M212.244 247.817L190.704 235.387L181.274 229.937C180.074 232.877 182.984 234.937 186.664 239.147C190.554 243.597 193.984 248.947 197.524 252.247C199.271 254.017 201.347 255.43 203.634 256.407V262.697L207.934 265.187L214.224 260.457C213.414 255.117 212.244 247.817 212.244 247.817Z" fill="#004B84"/>
<path d="M205.124 182.407L200.824 179.917V230.867L205.124 230.977V182.407Z" fill="#004B84"/>
<path d="M238.914 195.267L242.254 192.807C242.174 192.587 242.114 192.367 242.024 192.157L243.244 192.077L240.564 191.957L236.094 189.487C235.572 189.696 235.067 189.947 234.584 190.237L235.984 191.047L238.914 195.267Z" fill="#004B84"/>
<path d="M227.084 194.537L230.214 192.157L225.894 189.537C224.851 190.207 223.877 190.977 222.984 191.837L225.984 193.577L227.084 194.537Z" fill="#004B84"/>
<path d="M220.544 194.307L216.264 191.807L216.284 191.767V197.177L221.264 195.357L220.544 194.307Z" fill="#004B84"/>
<g opacity="0.15">
<path d="M212.244 247.817L190.704 235.387L181.274 229.937C180.074 232.877 182.984 234.937 186.664 239.147C190.554 243.597 193.984 248.947 197.524 252.247C199.271 254.017 201.347 255.43 203.634 256.407V262.697L207.934 265.187L214.224 260.457C213.414 255.117 212.244 247.817 212.244 247.817Z" fill="black"/>
<path d="M205.124 182.407L200.824 179.917V230.867L205.124 230.977V182.407Z" fill="black"/>
<path d="M238.914 195.267L242.254 192.807C242.174 192.587 242.114 192.367 242.024 192.157L243.244 192.077L240.564 191.957L236.094 189.487C235.572 189.696 235.067 189.947 234.584 190.237L235.984 191.047L238.914 195.267Z" fill="black"/>
<path d="M227.084 194.537L230.214 192.157L225.894 189.537C224.851 190.207 223.877 190.977 222.984 191.837L225.984 193.577L227.084 194.537Z" fill="black"/>
<path d="M220.544 194.307L216.264 191.807L216.284 191.767V197.177L221.264 195.357L220.544 194.307Z" fill="black"/>
</g>
<path d="M207.934 265.227V258.897C205.648 257.906 203.576 256.48 201.834 254.697C198.294 251.397 194.834 246.037 190.974 241.597C187.114 237.157 183.974 235.067 185.854 231.817C187.558 229.295 190.151 227.51 193.114 226.817C196.854 226.147 201.114 227.977 205.114 230.947V182.407C205.218 180.472 205.776 178.589 206.744 176.911C207.712 175.232 209.062 173.806 210.684 172.747C213.764 170.967 216.264 172.407 216.264 175.967V197.177C216.264 197.177 223.954 190.357 227.054 194.537C227.054 194.537 234.614 186.627 238.054 193.307C238.054 193.307 243.594 188.837 246.054 194.027C248.514 199.217 247.354 210.197 246.054 216.977C244.754 223.757 240.684 239.977 240.684 239.977V246.307L207.934 265.227Z" fill="#004B84"/>
<path d="M216.284 206.287C216.284 206.287 216.984 196.607 220.544 194.287H220.414C218.941 195.081 217.557 196.03 216.284 197.117V196.937C216.271 196.965 216.264 196.996 216.264 197.027C216.264 197.058 216.271 197.089 216.284 197.117V206.287Z" fill="#455A64"/>
<path d="M227.084 194.537V203.397C227.084 203.397 228.084 194.287 230.084 192.087C228.997 192.791 227.991 193.613 227.084 194.537Z" fill="#455A64"/>
<path d="M238.044 193.307V202.197C238.044 202.197 238.584 193.247 240.514 191.927C239.628 192.264 238.796 192.729 238.044 193.307Z" fill="#455A64"/>
<path d="M206.374 164.137C205.674 164.537 205.114 164.307 205.114 163.607V156.607C205.151 156.198 205.285 155.803 205.504 155.455C205.723 155.108 206.021 154.817 206.374 154.607C207.064 154.207 207.624 154.447 207.624 155.137V162.137C207.589 162.545 207.457 162.94 207.24 163.287C207.023 163.635 206.726 163.926 206.374 164.137Z" fill="#EBEBEB"/>
<path d="M195.834 175.227C195.344 176.067 194.554 176.527 194.064 176.227L189.994 173.877C189.504 173.597 189.504 172.677 189.994 171.877C190.484 171.027 191.274 170.567 191.764 170.877L195.834 173.227C196.364 173.457 196.364 174.377 195.834 175.227Z" fill="#EBEBEB"/>
<path d="M191.524 189.757V189.957C191.481 190.391 191.337 190.81 191.102 191.178C190.868 191.547 190.55 191.854 190.174 192.077L184.614 195.287C183.874 195.717 183.264 195.467 183.264 194.717V194.517C183.309 194.083 183.455 193.666 183.689 193.298C183.923 192.93 184.24 192.621 184.614 192.397L190.174 189.187C190.924 188.757 191.524 189.007 191.524 189.757Z" fill="#EBEBEB"/>
<path d="M221.214 172.817V172.617C221.255 172.181 221.399 171.76 221.634 171.39C221.868 171.02 222.187 170.71 222.564 170.487L228.124 167.277C228.864 166.847 229.474 167.107 229.474 167.847V168.047C229.429 168.481 229.284 168.898 229.049 169.266C228.815 169.634 228.498 169.943 228.124 170.167L222.564 173.377C221.834 173.807 221.214 173.557 221.214 172.817Z" fill="#EBEBEB"/>
<path d="M216.834 163.097C216.344 162.817 216.344 161.907 216.834 161.097L220.904 154.097C221.394 153.247 222.184 152.787 222.674 153.097C223.164 153.387 223.164 154.297 222.674 155.147L218.604 162.147C218.154 162.927 217.354 163.387 216.834 163.097Z" fill="#EBEBEB"/>
<path d="M394.22 315.22V314.08C393.77 315.41 391.69 321.16 388.54 324.08C386.03 326.37 382.6 329.01 381.73 331.56C380.86 334.11 386.5 335.11 388.84 334.7C391.57 334.21 395.09 332.7 397.01 330.31C398.36 328.65 399.22 326.69 400.18 325.38C401.14 324.07 403.36 322.63 403.89 321.12C404.17 320.29 403.83 318.47 403.43 316.94C403.03 315.41 402.66 313.99 402.18 314.12V315C401.039 315.892 399.627 316.365 398.18 316.34C397 316.34 394.21 316.1 394.22 315.22Z" fill="#263238"/>
<path d="M386.26 326.05C387.04 325.36 387.83 324.68 388.54 324.05C390.74 322.05 392.42 318.63 393.39 316.3C393.938 314.971 394.22 313.547 394.22 312.11V307.58H402.22V314.96V315.16C401.84 316.81 398.22 321.16 396.11 324.08C394.72 326 392.11 328.44 388.92 328.87C385.85 329.27 384.32 328.32 386.26 326.05Z" fill="#FFA8A7"/>
<path d="M363.19 307.37V306.23C362.74 307.57 360.65 313.32 357.5 316.23C354.99 318.52 351.56 321.17 350.69 323.72C349.82 326.27 355.46 327.27 357.8 326.85C360.53 326.37 364.05 324.85 365.97 322.47C367.32 320.81 368.18 318.84 369.14 317.54C370.1 316.24 372.33 314.78 372.85 313.27C373.13 312.44 372.79 310.63 372.39 309.1C371.99 307.57 371.62 306.1 371.14 306.27V307.14C370.002 308.037 368.589 308.514 367.14 308.49C366 308.49 363.18 308.26 363.19 307.37Z" fill="#263238"/>
<path d="M355.23 318.21C356 317.51 356.79 316.84 357.5 316.21C359.7 314.21 361.38 310.78 362.35 308.45C362.902 307.125 363.188 305.705 363.19 304.27V299.73H371.14V307.11V307.31C370.76 308.97 367.14 313.36 365.03 316.23C363.64 318.15 361.03 320.6 357.84 321.02C354.81 321.42 353.28 320.48 355.23 318.21Z" fill="#FFA8A7"/>
<path d="M400.6 191.55C406.77 205.02 400.37 252.49 400.37 252.49C400.56 254.67 403.06 258.98 403.99 268.6C405.09 279.97 402.26 308.52 402.26 308.52C401.053 309.218 399.693 309.612 398.3 309.668C396.906 309.723 395.52 309.439 394.26 308.84C394.26 308.84 386.68 265.84 385.26 254.54C384 244.67 381.58 223 381.58 223L374.79 254.5C375.78 257.68 376.5 260.938 376.94 264.24C377.59 270.89 371.14 301.85 371.14 301.85C371.14 301.85 368.4 302.85 363.19 302.09C363.19 302.09 360.91 261 360.31 252.99C359.31 239.54 362.87 197.56 365.31 189.6L400.6 191.55Z" fill="#37474F"/>
<path d="M381.58 223L379.58 210.48C379.58 210.48 371.1 208.73 367.26 205.11C369.907 208.22 373.371 210.527 377.26 211.77L379.51 221.41L375.58 250.58L381.58 223Z" fill="#263238"/>
<path d="M376.55 144.37C374.615 144.204 372.669 144.533 370.897 145.328C369.125 146.122 367.584 147.355 366.42 148.91C363.24 153.07 351.05 168.91 351.05 168.91C351.05 168.91 333.05 159.91 332.2 158.85C331.35 157.79 331.82 155.63 332.06 154.45C332.3 153.27 332.71 150.62 332.97 149.88C333.43 148.59 331.52 148.94 330.39 150.15C329.26 151.36 328.77 153.72 328.2 154.15C327.63 154.58 323.37 149.64 321.29 147.27C319.21 144.9 318.29 143.27 316.86 144.22C315.86 144.92 316.5 146.33 317.99 148.36C318.684 149.22 319.325 150.122 319.91 151.06C320.08 151.42 319.54 151.71 319.32 151.91C318.92 152.27 318.2 152.91 318.15 153.42C318.16 153.728 318.14 154.036 318.09 154.34C317.9 155.02 317.09 155.34 316.83 156C316.66 156.47 316.83 157 316.75 157.51C316.69 157.83 316.51 158.12 316.45 158.45C316.43 158.771 316.479 159.093 316.594 159.393C316.71 159.694 316.889 159.965 317.12 160.19C318.57 161.93 320.56 162.59 322.47 163.65C324.06 164.53 325.7 164.91 327.53 165.72C329.36 166.53 350.58 181.25 353.94 179.39C357.3 177.53 374.64 157.39 374.64 157.39C379.64 149.08 376.55 144.37 376.55 144.37Z" fill="#FFA8A7"/>
<path d="M389.72 144.74C397.62 145.29 398.18 149.11 400.16 153.28C401.609 156.502 401.742 160.162 400.53 163.48L395 179.42C395 179.42 397.58 185.66 400.58 191.55C386.75 199.27 369.48 195.21 365.32 189.55C365.14 188.35 366.21 179.01 366.87 172.91C364.43 166.8 363.79 162.91 364.82 158.91C366.73 151.41 374.13 144.11 377.41 144.37L389.72 144.74Z" fill="#F5F5F5"/>
<path d="M382.11 138.19H385.18C387.305 138.19 389.41 137.771 391.373 136.957C393.336 136.143 395.119 134.95 396.621 133.447C398.123 131.943 399.313 130.158 400.125 128.194C400.936 126.23 401.353 124.125 401.35 122C401.347 117.689 399.633 113.556 396.584 110.509C393.535 107.462 389.401 105.75 385.09 105.75H382.2C377.899 105.763 373.779 107.481 370.742 110.527C367.705 113.573 366 117.699 366 122C365.992 126.282 367.684 130.393 370.705 133.429C373.726 136.464 377.828 138.177 382.11 138.19Z" fill="#263238"/>
<path d="M410 146.71C407.468 146.707 405.041 145.7 403.25 143.91C401.46 142.12 400.453 139.692 400.45 137.16V116.7C401.705 116.7 402.948 116.947 404.107 117.428C405.266 117.908 406.32 118.613 407.207 119.501C408.094 120.389 408.797 121.443 409.276 122.602C409.755 123.762 410.001 125.005 410 126.26V146.71Z" fill="#263238"/>
<path d="M402.2 113.08L399.81 116.92C400.054 117.09 400.33 117.209 400.621 117.27C400.913 117.331 401.213 117.331 401.505 117.273C401.797 117.214 402.073 117.096 402.318 116.927C402.563 116.758 402.771 116.542 402.93 116.29C403.243 115.763 403.342 115.137 403.206 114.539C403.07 113.942 402.71 113.42 402.2 113.08Z" fill="#263238"/>
<path d="M371.76 112.93C369.89 114.03 367.58 118.73 367.81 128.59C368 136.95 370.71 139.01 372.07 139.59C373.43 140.17 376.07 139.82 378.6 139.39V144.39C378.6 144.39 375.08 148.48 375.3 150.78C375.52 153.08 380.39 153.62 383.69 151.38C385.825 149.837 387.659 147.915 389.1 145.71V133.63C389.367 133.959 389.697 134.231 390.07 134.431C390.444 134.631 390.853 134.755 391.275 134.795C391.697 134.835 392.122 134.79 392.526 134.664C392.931 134.538 393.306 134.333 393.63 134.06C396.45 132.19 396.56 127.56 394.92 125.9C393.28 124.24 389.75 124.77 389.1 127.06C389.1 127.06 385.03 127.21 379.62 124.24C377.513 123.105 375.703 121.49 374.338 119.525C372.972 117.56 372.089 115.3 371.76 112.93Z" fill="#FFA8A7"/>
<path d="M378.07 126.49C378.06 126.697 378.112 126.902 378.219 127.079C378.326 127.257 378.483 127.399 378.67 127.487C378.857 127.576 379.066 127.607 379.271 127.577C379.476 127.547 379.668 127.457 379.822 127.318C379.976 127.18 380.085 126.999 380.136 126.798C380.187 126.597 380.178 126.386 380.11 126.19C380.041 125.995 379.916 125.824 379.751 125.7C379.585 125.575 379.387 125.502 379.18 125.49C378.902 125.484 378.633 125.584 378.427 125.77C378.22 125.956 378.093 126.213 378.07 126.49Z" fill="#263238"/>
<path d="M376.86 133.58L374.42 134.35C374.464 134.513 374.54 134.665 374.644 134.798C374.747 134.931 374.877 135.042 375.024 135.124C375.171 135.206 375.334 135.258 375.501 135.276C375.669 135.294 375.839 135.279 376 135.23C376.329 135.12 376.603 134.886 376.763 134.579C376.924 134.271 376.958 133.913 376.86 133.58Z" fill="#F28F8F"/>
<path d="M369.46 123.27L371.58 121.79C371.491 121.648 371.374 121.525 371.236 121.429C371.098 121.333 370.942 121.266 370.777 121.233C370.613 121.199 370.443 121.199 370.278 121.233C370.114 121.267 369.958 121.334 369.82 121.43C369.535 121.632 369.339 121.936 369.272 122.278C369.205 122.621 369.273 122.976 369.46 123.27Z" fill="#263238"/>
<path d="M370 125.73C369.989 125.871 370.006 126.012 370.051 126.147C370.096 126.281 370.167 126.404 370.26 126.511C370.353 126.617 370.467 126.703 370.594 126.765C370.721 126.827 370.859 126.862 371 126.87C371.216 126.888 371.433 126.84 371.622 126.734C371.812 126.628 371.965 126.467 372.062 126.273C372.16 126.08 372.197 125.861 372.17 125.646C372.142 125.43 372.051 125.228 371.908 125.065C371.765 124.902 371.576 124.785 371.366 124.73C371.156 124.674 370.935 124.683 370.73 124.754C370.525 124.826 370.346 124.957 370.216 125.131C370.086 125.304 370.011 125.513 370 125.73Z" fill="#263238"/>
<path d="M375.08 125.13L374.91 131.46L371.58 130.43L375.08 125.13Z" fill="#F28F8F"/>
<path d="M378.6 139.41C381.29 139.06 386.82 137.47 387.68 135.29C387.332 136.396 386.655 137.369 385.74 138.08C384.09 139.49 378.6 141.08 378.6 141.08V139.41Z" fill="#F28F8F"/>
<path opacity="0.1" d="M386.18 193.05C387.264 192.8 388.287 192.337 389.189 191.687C390.091 191.036 390.854 190.213 391.433 189.263C392.013 188.314 392.397 187.259 392.563 186.159C392.729 185.06 392.673 183.938 392.4 182.86C392.24 182.203 391.862 181.619 391.329 181.203C390.795 180.787 390.136 180.564 389.46 180.57C390.348 179.982 391.11 179.224 391.704 178.34C392.298 177.457 392.711 176.464 392.92 175.42L394.6 165.42C394.803 163.791 394.657 162.138 394.17 160.57L399.73 154.14L400.73 154.85C401.575 157.674 401.494 160.695 400.5 163.47L395 179.42C395 179.42 397.58 185.66 400.58 191.55C396.083 193.976 391.119 195.409 386.022 195.754C380.925 196.099 375.812 195.348 371.03 193.55C376.066 194.34 381.207 194.17 386.18 193.05Z" fill="black"/>
<path d="M414.75 184.43C407.57 155.08 402.26 145.29 393.54 145.43C390.99 148.43 391.7 157.67 395.72 163.25C395.72 163.25 404.72 182.18 406.13 188.91C407.38 194.82 408.81 202.26 408.72 207.34C408.692 208.241 408.336 209.102 407.72 209.76C406.08 211.54 406.08 212.97 405.01 214.93C404.18 216.47 403.27 217.05 403.53 217.39C403.873 217.756 404.341 217.979 404.841 218.016C405.341 218.053 405.837 217.901 406.23 217.59C406.986 217.019 407.659 216.346 408.23 215.59C407.947 217.473 407.402 219.308 406.61 221.04C404.77 225.19 405.22 227.31 410.82 225.83C414.33 224.9 416.54 221.98 417.07 213.53C417.324 210.423 417.354 207.301 417.16 204.19C416.45 196.19 415.91 189.15 414.75 184.43Z" fill="#FFA8A7"/>
<path d="M343.51 268.34C344.28 239.77 341.99 232.93 334.39 227.7L331.44 244.25C331.44 244.25 334.9 263.75 334.53 270.25C334.21 275.96 333.65 283.1 332.3 287.71C332.063 288.541 331.524 289.254 330.79 289.71C328.85 290.92 328.07 292.16 326.61 293.71C325.47 294.91 324.5 295.2 324.61 295.58C324.831 295.999 325.201 296.321 325.647 296.48C326.094 296.639 326.584 296.625 327.02 296.44C327.988 296.05 328.907 295.55 329.76 294.95C329.09 296.701 328.141 298.332 326.95 299.78C324.23 303.11 324.11 305.16 329.6 305.21C333.03 305.21 335.77 303.12 338.36 295.55C339.364 292.774 340.17 289.93 340.77 287.04C342.13 279.49 343.39 272.94 343.51 268.34Z" fill="#B16668"/>
<path d="M328 225.53C331.63 225 336.56 225.76 339.75 231.46C342.94 237.16 343.75 246.97 344.08 256.72C344.08 256.72 337.75 262.01 330.15 259.41L328 225.53Z" fill="#004B84"/>
<path opacity="0.1" d="M328 225.53C331.63 225 336.56 225.76 339.75 231.46C342.94 237.16 343.75 246.97 344.08 256.72C344.08 256.72 337.75 262.01 330.15 259.41L328 225.53Z" fill="black"/>
<path d="M338.67 382.64C339.24 382.86 339.39 383.96 339.48 386.14C339.54 387.79 339.9 390.68 337.96 391.25C336.02 391.82 333.19 391.53 331.96 389.98C330.41 387.98 329.37 386.32 327.16 383.98C325.24 381.92 323.16 379.98 322.4 377.12C321.7 374.51 322.28 373.38 324.06 372.62C326.5 371.62 330.35 374.99 332.26 375.52C333.9 376 338.09 382.42 338.67 382.64Z" fill="#263238"/>
<path d="M338.67 380.62V383.3C337.663 383.944 336.5 384.301 335.305 384.333C334.11 384.364 332.93 384.07 331.89 383.48C331.78 383.22 331.19 379.65 331.19 379.65L338.67 380.62Z" fill="#B16668"/>
<path d="M317 398.09C317.468 399.526 317.861 400.984 318.18 402.46C318.51 404.08 318.98 406.79 318.42 408.01C317.86 409.23 315.64 410.01 312.2 410.01C309.98 410.01 306.52 411.5 304.15 412.82C301.78 414.14 296.6 414.73 294.01 414.43C290.96 414.07 287.8 412.3 287.3 411.03C286.8 409.76 287.46 408.46 294.66 405.39C294.73 405.39 304.66 402.13 308.14 398.29L317 398.09Z" fill="#263238"/>
<path d="M317 395.19C317 395.19 317 397.19 317 398.32C317 399.45 315.67 401.15 312.19 401.02C309.75 400.94 308.05 400.28 308.19 398.27V395.37L317 395.19Z" fill="#B16668"/>
<path d="M340.41 345.05C339.817 340.291 338.759 335.602 337.25 331.05C337.25 331.05 338.2 319.05 338.66 307.59C339.16 295.25 338.66 279.75 338.87 276.67C338.87 276.67 299.07 268.67 298.36 282.87C297.65 297.07 299.93 333.43 300.36 339.69C300.79 345.95 301.91 351.5 303.21 361.69C304.51 371.88 308.06 395.37 308.06 395.37C309.438 396.071 310.967 396.421 312.513 396.39C314.058 396.358 315.572 395.946 316.92 395.19C316.92 395.19 319.72 366.68 319.43 359.45C319.204 354.097 318.283 348.796 316.69 343.68C316.69 343.68 317.44 331.92 318.11 321.68C318.78 311.44 319.48 306.54 319.63 302.1L320.49 301.67C320.49 301.67 321.36 319.31 321.83 325.58C322.3 331.85 323.3 337.85 325.11 349.48C326.69 359.58 331.37 380.93 331.37 380.93C335.91 383.39 338.63 380.61 338.63 380.61C338.63 380.61 341.64 353.81 340.41 345.05Z" fill="#37474F"/>
<path d="M319.67 302.11C319.67 302.11 329.33 297.35 334.16 293.06C334.16 293.06 329.67 299.38 323.78 302.18C323.78 302.18 321.69 324.1 321.7 323.66L320.49 302.07L319.67 302.11Z" fill="#263238"/>
<path d="M311.08 221.01L313.44 233.97L325.14 233.12L322.69 218.42L311.08 221.01Z" fill="#B16668"/>
<path d="M337.51 232.17C336.35 228.65 331.88 224.81 327.41 225.64C320.762 226.769 314.21 228.404 307.81 230.53C303.71 232 299.98 235.53 299.64 249.01C299.64 249.01 298.27 280.43 298.25 286.5C308.53 290.57 319.25 290.45 325.14 289.16C337.46 286.47 338.94 281.36 338.94 281.36C338.94 281.36 339.1 258.77 338.73 249.01C338.42 240.72 338.31 234.59 337.51 232.17Z" fill="#004B84"/>
<path d="M302.05 205.24C302.05 205.24 299.05 209.98 299.44 210.43C299.83 210.88 302.07 211.24 302.07 211.24L302.05 205.24Z" fill="#B16668"/>
<path d="M310.29 192.15C304.1 193.6 302.37 196.37 302 206.27C301.62 216.61 302.75 219.83 304.14 221.19C305.07 222.11 310.14 222.19 312.72 221.4C315.91 220.4 323.12 217.7 326.4 212.4C330.26 206.2 331.13 197.9 326.77 194.59C320.63 190 312.81 191.55 310.29 192.15Z" fill="#B16668"/>
<path d="M311.21 221.72C313.31 220.03 313.12 218.94 313.12 218.94C311.62 220.35 306.04 221.55 304.12 221.19C304.91 222 308.54 222.12 311.21 221.72Z" fill="#9A4A4D"/>
<path d="M302.07 194.72C303.89 197.83 307.83 199.32 307.83 199.32C309.02 200.67 308.36 205.95 310.45 206.78C310.45 206.78 311.35 202.94 314.58 203.35C317.81 203.76 318.36 207.88 316.37 210.43C314.38 212.98 312.47 212.07 312.47 212.07C312.47 212.07 312.69 217.52 315.18 220.56C315.18 220.56 317.95 221.39 322.98 220.19C326.08 219.46 330.39 215.47 332.14 211.32C335.86 202.52 335.95 194.68 330.34 192.46C329.65 188.46 326.45 186.73 322.83 185.98C315.04 184.38 310.02 189.24 304.02 188.82C300.58 188.58 299.94 191.07 302.07 194.72Z" fill="#263238"/>
<path d="M330.47 193.8L334.14 191.52C333.838 191.033 333.354 190.687 332.797 190.556C332.239 190.426 331.652 190.523 331.165 190.825C330.678 191.127 330.332 191.611 330.201 192.169C330.071 192.727 330.168 193.313 330.47 193.8Z" fill="#263238"/>
<path d="M308.13 230.48C308.13 230.48 302.31 231.56 299.27 236.16C296.23 240.76 283.07 257.26 283.07 257.26C283.07 257.26 264.15 247.79 263.22 246.66C262.29 245.53 262.81 243.27 263.07 242.02C263.33 240.77 263.75 238.02 264.07 237.22C264.55 235.85 262.54 236.22 261.35 237.49C260.16 238.76 259.64 241.25 259.05 241.68C258.46 242.11 253.95 236.93 251.77 234.43C249.59 231.93 248.56 230.18 247.09 231.21C246.04 231.96 246.72 233.44 248.28 235.58C249.014 236.477 249.682 237.427 250.28 238.42C250.47 238.8 249.89 239.11 249.67 239.31C249.24 239.69 248.49 240.31 248.43 240.91C248.462 241.243 248.462 241.577 248.43 241.91C248.22 242.62 247.34 242.91 247.09 243.65C246.91 244.16 247.09 244.72 247.01 245.25C246.94 245.59 246.76 245.89 246.69 246.25C246.671 246.59 246.724 246.929 246.846 247.247C246.969 247.564 247.158 247.851 247.4 248.09C248.93 249.92 251.03 250.62 253.04 251.73C254.71 252.66 256.44 253.06 258.37 253.92C260.3 254.78 282.98 271.54 286.52 269.59C290.06 267.64 308.2 246.44 308.2 246.44C309.733 244.058 310.542 241.282 310.529 238.45C310.517 235.617 309.683 232.849 308.13 230.48Z" fill="#B16668"/>
<path d="M310.16 229.8C307.66 230.08 304.16 229.62 299.25 234.88C295.309 239.394 291.636 244.136 288.25 249.08C288.895 251.678 290.276 254.034 292.227 255.866C294.179 257.699 296.617 258.929 299.25 259.41C299.25 259.41 307.83 250.62 310.25 245.77C312.67 240.92 313.1 233.06 310.16 229.8Z" fill="#004B84"/>
<path opacity="0.1" d="M310.16 229.8C307.66 230.08 304.16 229.62 299.25 234.88C295.309 239.394 291.636 244.136 288.25 249.08C288.895 251.678 290.276 254.034 292.227 255.866C294.179 257.699 296.617 258.929 299.25 259.41C299.25 259.41 307.83 250.62 310.25 245.77C312.67 240.92 313.1 233.06 310.16 229.8Z" fill="black"/>
</svg>
