<svg width="26" height="26" viewBox="0 0 26 26" fill="none" xmlns="http://www.w3.org/2000/svg">
<circle cx="13" cy="13" r="10.25" stroke="#AD2120" stroke-width="1.5"/>
<path d="M13 19C16.3137 19 19 16.3137 19 13C19 9.68629 16.3137 7 13 7C9.68629 7 7 9.68629 7 13" stroke="#AD2120" stroke-width="1.5" stroke-linecap="round"/>
<path d="M14.318 11.234V11.332H15.13V11.906H14.276C14.2247 12.2187 14.1267 12.4683 13.982 12.655C13.842 12.837 13.6413 12.97 13.38 13.054C13.1187 13.1333 12.7803 13.173 12.365 13.173V13.614C12.365 13.8707 12.4187 14.0737 12.526 14.223C12.638 14.3723 12.8247 14.447 13.086 14.447C13.562 14.447 13.8 14.1787 13.8 13.642H14.535C14.5303 14.1133 14.402 14.4703 14.15 14.713C13.9027 14.951 13.5433 15.07 13.072 15.07C12.6007 15.07 12.239 14.9393 11.987 14.678C11.7397 14.4167 11.616 14.0503 11.616 13.579V12.62C12.134 12.62 12.5143 12.606 12.757 12.578C12.9997 12.5453 13.1793 12.48 13.296 12.382C13.4173 12.284 13.4967 12.1253 13.534 11.906H11.322V11.332H13.569V11.234V10.709H11.322V10.128H15.13V10.709H14.318V11.234Z" fill="#AE2121"/>
<path d="M14.4767 16L12.263 18.7391L15.0025 20.9522" stroke="#AE2121" stroke-linecap="round"/>
</svg>
