<svg width="177" height="167" viewBox="0 0 177 167" fill="none" xmlns="http://www.w3.org/2000/svg">
<path d="M35.5166 152.732C64.1996 160.678 110.704 160.678 139.387 152.732C168.07 144.785 168.073 131.904 139.387 123.959C110.7 116.015 64.1996 116.013 35.5131 123.959C6.8266 131.906 6.83016 144.781 35.5166 152.732Z" fill="#F5F5F5"/>
<path d="M113.806 150.225C124.176 150.225 132.582 145.617 132.582 139.933C132.582 134.249 124.176 129.641 113.806 129.641C103.437 129.641 95.0308 134.249 95.0308 139.933C95.0308 145.617 103.437 150.225 113.806 150.225Z" fill="#E0E0E0"/>
<path d="M135.497 122.219C143.498 122.219 149.983 118.663 149.983 114.276C149.983 109.89 143.498 106.334 135.497 106.334C127.497 106.334 121.012 109.89 121.012 114.276C121.012 118.663 127.497 122.219 135.497 122.219Z" fill="#E0E0E0"/>
<path d="M142.582 106.295C142.56 104.476 143.831 100.695 145.69 98.3098C147.548 95.9246 150.492 94.1624 152.61 94.8602C154.583 95.5081 154.39 98.0856 152.037 99.8193C149.684 101.553 146.124 103.735 145.109 106.704L142.956 110.35L142.582 106.295Z" fill="#AD2120"/>
<path opacity="0.1" d="M142.582 106.295C142.56 104.476 143.831 100.695 145.69 98.3098C147.548 95.9246 150.492 94.1624 152.61 94.8602C154.583 95.5081 154.39 98.0856 152.037 99.8193C149.684 101.553 146.124 103.735 145.109 106.704L142.956 110.35L142.582 106.295Z" fill="black"/>
<path d="M142.478 108.787C142.507 108.783 142.534 108.771 142.555 108.751C142.576 108.731 142.591 108.705 142.596 108.676C143.738 102.454 148.701 97.3485 151.691 96.1986C151.725 96.1859 151.752 96.1603 151.767 96.1276C151.781 96.0949 151.783 96.0577 151.77 96.0242C151.763 96.008 151.754 95.9933 151.742 95.9808C151.73 95.9683 151.716 95.9583 151.7 95.9514C151.684 95.9444 151.667 95.9407 151.65 95.9403C151.632 95.94 151.615 95.9431 151.599 95.9494C148.548 97.1207 143.493 102.311 142.343 108.63C142.34 108.647 142.34 108.665 142.344 108.682C142.348 108.699 142.355 108.715 142.365 108.729C142.374 108.743 142.387 108.755 142.402 108.765C142.416 108.774 142.433 108.78 142.45 108.783L142.478 108.787Z" fill="white"/>
<path d="M143.468 112.749C143.749 111.724 144.978 110.022 146.978 108.602C149.196 107.035 152.016 106.291 152.653 105.084C153.418 103.632 152.187 102.286 149.894 102.592C147.601 102.899 143.607 106.085 143.016 110.805L143.468 112.749Z" fill="#AD2120"/>
<path d="M142.995 111.681C143.02 111.679 143.044 111.669 143.064 111.653C143.085 111.637 143.1 111.616 143.109 111.592C144.945 106.252 148.983 104.337 150.859 104.07C150.893 104.065 150.925 104.046 150.946 104.018C150.967 103.99 150.977 103.955 150.973 103.92C150.97 103.903 150.965 103.886 150.956 103.871C150.947 103.856 150.936 103.843 150.922 103.832C150.908 103.821 150.892 103.814 150.875 103.809C150.858 103.805 150.84 103.804 150.823 103.806C148.748 104.102 144.735 106.053 142.856 111.507C142.85 111.523 142.848 111.54 142.849 111.558C142.85 111.575 142.854 111.592 142.862 111.607C142.87 111.623 142.88 111.637 142.893 111.648C142.906 111.66 142.921 111.668 142.938 111.674C142.956 111.682 142.975 111.684 142.995 111.681Z" fill="white"/>
<path d="M26.647 136.533L26.3765 136.377C26.1489 136.229 25.9594 136.029 25.8234 135.794C25.6873 135.559 25.6085 135.295 25.5933 135.024V43.7954C25.6088 43.5238 25.6877 43.2597 25.8237 43.0242C25.9597 42.7886 26.149 42.5882 26.3765 42.439L85.1592 8.5051C85.402 8.38217 85.6703 8.31812 85.9424 8.31812C86.2145 8.31812 86.4828 8.38217 86.7256 8.5051L86.9926 8.66174C87.2208 8.81009 87.4107 9.01029 87.5468 9.24601C87.6829 9.48173 87.7614 9.74629 87.7758 10.0181V101.243C87.7614 101.515 87.6829 101.779 87.5468 102.015C87.4107 102.251 87.2208 102.451 86.9926 102.599L28.2134 136.533C27.9706 136.656 27.7023 136.72 27.4302 136.72C27.1581 136.72 26.8898 136.656 26.647 136.533Z" fill="#AD2120"/>
<path opacity="0.4" d="M87.7682 9.8935C87.7148 9.48766 87.3873 9.33814 86.9957 9.56242L28.2094 43.4999C27.9793 43.645 27.7895 43.8458 27.6576 44.0837L25.8242 43.0157C25.9578 42.7779 26.1487 42.5772 26.3796 42.4319L85.1587 8.5051C85.4015 8.38217 85.6698 8.31812 85.9419 8.31812C86.2141 8.31812 86.4824 8.38217 86.7251 8.5051L86.9957 8.66174C87.2039 8.80112 87.3803 8.98289 87.5135 9.19515C87.6466 9.40741 87.7334 9.64538 87.7682 9.8935Z" fill="white"/>
<path opacity="0.1" d="M28.0813 136.594C27.8531 136.685 27.6082 136.727 27.3628 136.716C27.1174 136.706 26.8769 136.643 26.6573 136.533L26.3832 136.377C26.1556 136.228 25.9664 136.028 25.8309 135.792C25.6954 135.556 25.6175 135.292 25.6035 135.02V43.7955C25.6118 43.5238 25.6903 43.2588 25.8314 43.0265L27.6648 44.0945C27.5193 44.3226 27.4325 44.583 27.412 44.8528V136.081C27.412 136.53 27.711 136.74 28.0813 136.594Z" fill="black"/>
<path d="M34.3609 69.94L34.0903 69.7834C33.8627 69.6344 33.6732 69.4341 33.5372 69.1985C33.4012 68.9629 33.3224 68.6987 33.3071 68.427V52.0439C33.3224 51.7728 33.4012 51.509 33.5372 51.274C33.6733 51.039 33.8628 50.8393 34.0903 50.6911L87.4583 19.8366C87.7004 19.7137 87.9682 19.6497 88.2397 19.6497C88.5113 19.6497 88.779 19.7137 89.0211 19.8366L89.2917 19.9932C89.5198 20.1408 89.7098 20.3404 89.8459 20.5755C89.982 20.8106 90.0605 21.0747 90.0749 21.346V37.7434C90.0605 38.0152 89.982 38.2798 89.8459 38.5155C89.7098 38.7512 89.5199 38.9514 89.2917 39.0998L35.9273 69.94C35.6845 70.063 35.4162 70.127 35.1441 70.127C34.872 70.127 34.6037 70.063 34.3609 69.94Z" fill="#EBEBEB"/>
<path d="M90.0678 21.2216C90.0144 20.8158 89.6869 20.6698 89.2917 20.8941L35.9238 51.7379C35.693 51.8807 35.5029 52.0806 35.372 52.3182L33.5386 51.2502C33.6697 51.0106 33.8612 50.8094 34.0939 50.6664L87.4583 19.8261C87.7005 19.7032 87.9682 19.6392 88.2398 19.6392C88.5113 19.6392 88.779 19.7032 89.0212 19.8261L89.2917 19.9827C89.5029 20.121 89.6815 20.3033 89.8155 20.5172C89.9495 20.731 90.0356 20.9713 90.0678 21.2216Z" fill="#FAFAFA"/>
<path d="M35.7924 70.0006C35.5643 70.092 35.3193 70.1339 35.0738 70.1235C34.8283 70.113 34.5879 70.0506 34.3684 69.9401L34.0907 69.7835C33.8626 69.6336 33.6731 69.432 33.5376 69.1951C33.4021 68.9582 33.3245 68.6926 33.311 68.42V52.044C33.3187 51.7711 33.3972 51.5049 33.5389 51.2715L35.3723 52.3395C35.2325 52.5739 35.153 52.8393 35.1409 53.112V69.488C35.1409 69.9366 35.4257 70.143 35.7924 70.0006Z" fill="#E0E0E0"/>
<path d="M44.1464 58.3902C45.325 57.7155 46.2803 58.24 46.2803 59.5607C46.2803 60.8814 45.3236 62.4889 44.1436 63.15C42.9636 63.811 42.0083 63.2866 42.0083 61.9781C42.0083 60.6697 42.9677 59.0663 44.1464 58.3902Z" fill="#AD2120"/>
<path d="M53.4446 44.5824L53.4581 44.9716L52.3947 45.5855L52.3811 45.1964L53.4446 44.5824ZM52.6258 44.5334L53.0618 44.2817L53.1318 46.2857C53.1341 46.3534 53.1448 46.4001 53.1637 46.4261C53.1834 46.4506 53.2083 46.4608 53.2385 46.4566C53.2686 46.4524 53.3018 46.4399 53.3379 46.4191C53.3652 46.4033 53.39 46.3866 53.4123 46.369C53.4355 46.3509 53.453 46.3366 53.4649 46.3259L53.5521 46.6768C53.5291 46.6995 53.4962 46.7289 53.4532 46.7651C53.411 46.8008 53.3591 46.8374 53.2973 46.8749C53.1883 46.9417 53.0892 46.9795 53.0003 46.9883C52.9113 46.9962 52.8395 46.9705 52.785 46.9112C52.7313 46.8515 52.7026 46.7547 52.6987 46.6208L52.6258 44.5334Z" fill="#AD2120"/>
<path d="M51.7112 47.761L51.6366 45.6263L52.0726 45.3746L52.1471 47.5093L51.7112 47.761ZM51.8452 45.1968C51.7762 45.2367 51.7158 45.2446 51.6642 45.2205C51.6126 45.1955 51.5854 45.1455 51.5828 45.0704C51.5801 44.9944 51.6028 44.9157 51.6507 44.8341C51.6986 44.7517 51.7571 44.6905 51.8261 44.6506C51.896 44.6103 51.9564 44.6029 52.0072 44.6283C52.0588 44.6524 52.086 44.7024 52.0886 44.7784C52.0912 44.8534 52.0686 44.9322 52.0207 45.0147C51.9736 45.0958 51.9151 45.1565 51.8452 45.1968Z" fill="#AD2120"/>
<path d="M48.6678 49.5182L48.5933 47.3835L49.0099 47.1429L49.0226 47.5057L49.0443 47.4931C49.0786 47.3486 49.1391 47.2163 49.2258 47.0963C49.3125 46.9754 49.4176 46.8792 49.5413 46.8078C49.6665 46.7355 49.7733 46.7097 49.8617 46.7306C49.9508 46.75 50.0152 46.8097 50.0547 46.9098L50.074 46.8987C50.1108 46.7564 50.1765 46.622 50.2712 46.4955C50.3667 46.3677 50.4815 46.265 50.6155 46.1876C50.7857 46.0893 50.9268 46.0712 51.0387 46.1332C51.1507 46.1953 51.2108 46.3454 51.2191 46.5835L51.2691 48.0163L50.832 48.2687L50.7846 46.9137C50.78 46.7812 50.7461 46.702 50.683 46.6761C50.6198 46.6492 50.544 46.6613 50.4557 46.7123C50.3505 46.773 50.2696 46.8585 50.2128 46.9688C50.1568 47.0777 50.1309 47.1923 50.1351 47.3128L50.1816 48.6442L49.7541 48.891L49.706 47.5152C49.7022 47.4049 49.6702 47.3336 49.6101 47.3012C49.5508 47.2683 49.475 47.2785 49.3827 47.3318C49.32 47.368 49.2637 47.4194 49.2136 47.4861C49.1635 47.5519 49.1243 47.627 49.0961 47.7113C49.0679 47.7947 49.0554 47.8804 49.0584 47.9685L49.1038 49.2665L48.6678 49.5182Z" fill="#AD2120"/>
<path d="M47.7834 50.0287L47.7089 47.894L48.1448 47.6423L48.2194 49.777L47.7834 50.0287ZM47.9175 47.4645C47.8484 47.5044 47.7881 47.5123 47.7365 47.4882C47.6848 47.4632 47.6577 47.4132 47.6551 47.3381C47.6524 47.2621 47.6751 47.1834 47.723 47.1018C47.7709 47.0194 47.8294 46.9582 47.8984 46.9183C47.9683 46.878 48.0286 46.8706 48.0795 46.896C48.1311 46.9201 48.1582 46.9701 48.1609 47.0461C48.1635 47.1211 48.1409 47.1999 48.093 47.2824C48.0458 47.3635 47.9873 47.4242 47.9175 47.4645Z" fill="#AD2120"/>
<path d="M47.2358 47.4413L47.3352 50.2876L46.8992 50.5393L46.7998 47.693L47.2358 47.4413Z" fill="#AD2120"/>
<path d="M45.6189 49.1007L45.6325 49.4899L44.569 50.1038L44.5555 49.7147L45.6189 49.1007ZM44.8001 49.0517L45.2361 48.8L45.3061 50.804C45.3084 50.8717 45.3191 50.9184 45.338 50.9444C45.3577 50.9689 45.3826 50.9791 45.4128 50.9749C45.443 50.9708 45.4761 50.9582 45.5122 50.9374C45.5395 50.9216 45.5643 50.9049 45.5867 50.8873C45.6098 50.8692 45.6273 50.8549 45.6392 50.8442L45.7264 51.1951C45.7034 51.2178 45.6705 51.2472 45.6275 51.2834C45.5854 51.3191 45.5334 51.3557 45.4716 51.3932C45.3626 51.46 45.2636 51.4978 45.1746 51.5066C45.0856 51.5145 45.0138 51.4888 44.9593 51.4296C44.9057 51.3698 44.8769 51.273 44.873 51.1391L44.8001 49.0517Z" fill="#AD2120"/>
<path d="M43.5794 52.4982C43.3939 52.6053 43.2322 52.6533 43.0942 52.6422C42.957 52.6298 42.8494 52.5624 42.7714 52.4401C42.6934 52.3169 42.6505 52.1437 42.6427 51.9204C42.635 51.7008 42.6644 51.4872 42.7309 51.2797C42.7981 51.0707 42.8956 50.8821 43.0232 50.7139C43.1508 50.5448 43.3029 50.4092 43.4795 50.3073C43.5936 50.2414 43.7019 50.2006 43.8045 50.1848C43.908 50.1677 44.0001 50.1806 44.0811 50.2237C44.1628 50.2662 44.2286 50.3427 44.2783 50.4529C44.328 50.5622 44.3561 50.7105 44.3626 50.8976L44.368 51.0519L42.8518 51.9273L42.8399 51.5882L43.9383 50.954C43.9341 50.8581 43.9131 50.7829 43.8751 50.7282C43.8371 50.6726 43.7857 50.6414 43.7207 50.6345C43.6566 50.6271 43.5827 50.6475 43.4992 50.6957C43.4101 50.7471 43.3327 50.8174 43.267 50.9063C43.2013 50.9944 43.151 51.0896 43.1161 51.192C43.0819 51.293 43.0661 51.3914 43.0686 51.4873L43.079 51.7834C43.0833 51.9075 43.1067 52.0027 43.1491 52.0689C43.1916 52.1342 43.2489 52.1701 43.3212 52.1766C43.3935 52.1821 43.477 52.1575 43.5717 52.1028C43.6352 52.0662 43.6922 52.0229 43.7429 51.9728C43.7935 51.9219 43.837 51.8651 43.8733 51.8025C43.9096 51.74 43.9364 51.673 43.9535 51.6017L44.3624 51.4195C44.3411 51.5585 44.2959 51.6951 44.2269 51.8295C44.1586 51.9625 44.0696 52.0867 43.9597 52.2021C43.8499 52.3165 43.7231 52.4153 43.5794 52.4982Z" fill="#AD2120"/>
<path d="M41.8444 51.3521C41.829 51.2372 41.7783 51.1701 41.6924 51.1506C41.6074 51.1307 41.4986 51.159 41.3661 51.2355C41.273 51.2893 41.1937 51.3516 41.1282 51.4225C41.0627 51.4934 41.0132 51.5669 40.9798 51.6429C40.9464 51.7189 40.9306 51.7928 40.9323 51.8646C40.9344 51.9239 40.9478 51.9686 40.9726 51.9987C40.9982 52.0283 41.032 52.0466 41.074 52.0535C41.116 52.0595 41.1622 52.0584 41.2127 52.05C41.2632 52.0416 41.314 52.0298 41.3651 52.0145L41.5986 51.9477C41.6926 51.919 41.7833 51.9011 41.8707 51.8941C41.9589 51.8867 42.0383 51.8957 42.1088 51.9211C42.1801 51.9461 42.2374 51.9929 42.2808 52.0614C42.3241 52.13 42.348 52.2259 42.3523 52.3491C42.3581 52.5159 42.3263 52.6841 42.2569 52.8536C42.1874 53.0223 42.084 53.1826 41.9468 53.3346C41.8104 53.4852 41.6434 53.6175 41.4459 53.7316C41.254 53.8424 41.0862 53.9043 40.9425 53.9173C40.7996 53.9298 40.6862 53.8933 40.6021 53.8076C40.5188 53.7215 40.4706 53.5857 40.4576 53.4004L40.8972 53.1467C40.9071 53.2421 40.9365 53.3092 40.9853 53.3481C41.0342 53.387 41.0965 53.4011 41.1723 53.3905C41.2489 53.3793 41.3338 53.3469 41.4269 53.2931C41.5241 53.237 41.6086 53.1712 41.6805 53.0957C41.7532 53.0187 41.8093 52.9381 41.849 52.8538C41.8886 52.7685 41.9074 52.6849 41.9053 52.6029C41.9019 52.5292 41.8809 52.479 41.8423 52.4521C41.8037 52.4243 41.7505 52.4135 41.6827 52.4195C41.6157 52.4242 41.5376 52.439 41.4483 52.4641L41.1648 52.5427C40.9596 52.5997 40.7958 52.6012 40.6735 52.547C40.552 52.4915 40.4877 52.3618 40.4806 52.158C40.4747 51.9903 40.5089 51.8207 40.5832 51.6493C40.6583 51.4774 40.7629 51.3173 40.8969 51.169C41.031 51.0198 41.1843 50.8953 41.3569 50.7957C41.5319 50.6946 41.6865 50.6413 41.8206 50.6357C41.9555 50.6287 42.0629 50.6655 42.1427 50.746C42.2225 50.8257 42.2664 50.945 42.2744 51.1039L41.8444 51.3521Z" fill="#AD2120"/>
<path d="M39.9698 58.9193C39.7884 59.024 39.6318 59.0563 39.5002 59.016C39.3685 58.9748 39.2652 58.8648 39.1901 58.686C39.1151 58.5063 39.0721 58.2617 39.0613 57.9523C39.0506 57.6447 39.0751 57.3625 39.135 57.1059C39.1956 56.8478 39.2877 56.6245 39.4113 56.4359C39.5358 56.2459 39.6879 56.099 39.8677 55.9952C40.0476 55.8913 40.2033 55.8605 40.335 55.9026C40.4675 55.9433 40.5713 56.0535 40.6464 56.2333C40.7222 56.4116 40.7655 56.6546 40.7763 56.9622C40.7871 57.2716 40.7626 57.5551 40.7028 57.8127C40.6429 58.0694 40.5512 58.292 40.4275 58.4806C40.3039 58.6683 40.1513 58.8145 39.9698 58.9193ZM39.9592 58.6135C40.139 58.5097 40.2752 58.329 40.3678 58.0714C40.4603 57.8137 40.5002 57.4996 40.4872 57.129C40.4786 56.8826 40.4484 56.6859 40.3966 56.5391C40.3456 56.3918 40.2759 56.2973 40.1877 56.2556C40.1002 56.2135 39.997 56.2268 39.8782 56.2954C39.7 56.3983 39.5642 56.5801 39.4709 56.841C39.3776 57.1009 39.3374 57.4157 39.3503 57.7854C39.359 58.0319 39.3887 58.2283 39.4397 58.3746C39.4907 58.521 39.5599 58.6148 39.6474 58.656C39.7356 58.6967 39.8395 58.6826 39.9592 58.6135Z" fill="#AD2120"/>
<path d="M86.4195 33.7744C86.2381 33.8791 86.0816 33.9114 85.9499 33.8711C85.8182 33.8299 85.7149 33.7199 85.6398 33.5412C85.5648 33.3614 85.5218 33.1168 85.511 32.8074C85.5003 32.4998 85.5248 32.2176 85.5847 31.961C85.6453 31.7029 85.7374 31.4796 85.861 31.291C85.9855 31.101 86.1376 30.9541 86.3174 30.8503C86.4973 30.7464 86.6531 30.7156 86.7848 30.7577C86.9172 30.7984 87.021 30.9086 87.0961 31.0884C87.1719 31.2667 87.2152 31.5097 87.226 31.8173C87.2368 32.1267 87.2123 32.4102 87.1525 32.6678C87.0926 32.9245 87.0009 33.1471 86.8772 33.3357C86.7536 33.5234 86.601 33.6696 86.4195 33.7744ZM86.4089 33.4686C86.5887 33.3648 86.7249 33.1841 86.8175 32.9265C86.9101 32.6688 86.9499 32.3547 86.9369 31.9841C86.9283 31.7377 86.8981 31.541 86.8463 31.3942C86.7953 31.2469 86.7256 31.1524 86.6374 31.1108C86.5499 31.0686 86.4467 31.0819 86.3279 31.1505C86.1497 31.2534 86.0139 31.4353 85.9206 31.6961C85.8273 31.956 85.7871 32.2708 85.8001 32.6405C85.8087 32.887 85.8385 33.0834 85.8894 33.2298C85.9404 33.3761 86.0096 33.4699 86.0971 33.5111C86.1853 33.5518 86.2892 33.5377 86.4089 33.4686Z" fill="#AD2120"/>
<path d="M84.2999 34.9981C84.1185 35.1029 83.9619 35.1351 83.8303 35.0949C83.6986 35.0537 83.5953 34.9437 83.5202 34.7649C83.4451 34.5852 83.4022 34.3406 83.3914 34.0311C83.3806 33.7235 83.4052 33.4414 83.465 33.1847C83.5256 32.9267 83.6178 32.7033 83.7414 32.5148C83.8658 32.3248 84.018 32.1779 84.1978 32.074C84.3777 31.9702 84.5334 31.9393 84.6651 31.9814C84.7976 32.0222 84.9014 32.1324 84.9765 32.3121C85.0523 32.4904 85.0956 32.7334 85.1063 33.041C85.1171 33.3505 85.0926 33.634 85.0328 33.8916C84.973 34.1483 84.8813 34.3709 84.7576 34.5595C84.6339 34.7471 84.4814 34.8934 84.2999 34.9981ZM84.2892 34.6924C84.4691 34.5885 84.6053 34.4078 84.6979 34.1502C84.7904 33.8926 84.8302 33.5785 84.8173 33.2079C84.8087 32.9614 84.7785 32.7648 84.7267 32.618C84.6757 32.4707 84.606 32.3762 84.5177 32.3345C84.4303 32.2924 84.3271 32.3056 84.2083 32.3742C84.0301 32.4771 83.8943 32.659 83.801 32.9199C83.7077 33.1798 83.6675 33.4946 83.6804 33.8643C83.689 34.1107 83.7188 34.3071 83.7698 34.4535C83.8208 34.5999 83.89 34.6937 83.9774 34.7349C84.0657 34.7756 84.1696 34.7614 84.2892 34.6924Z" fill="#AD2120"/>
<path d="M82.1803 36.2219C81.9988 36.3266 81.8423 36.3589 81.7107 36.3186C81.579 36.2774 81.4756 36.1675 81.4006 35.9887C81.3255 35.8089 81.2826 35.5644 81.2718 35.2549C81.261 34.9473 81.2856 34.6652 81.3454 34.4085C81.406 34.1504 81.4981 33.9271 81.6218 33.7385C81.7462 33.5485 81.8983 33.4016 82.0782 33.2978C82.258 33.194 82.4138 33.1631 82.5455 33.2052C82.678 33.2459 82.7817 33.3561 82.8568 33.5359C82.9327 33.7142 82.976 33.9572 82.9867 34.2648C82.9975 34.5742 82.973 34.8578 82.9132 35.1153C82.8534 35.372 82.7616 35.5946 82.638 35.7832C82.5143 35.9709 82.3617 36.1171 82.1803 36.2219ZM82.1696 35.9161C82.3495 35.8123 82.4857 35.6316 82.5782 35.374C82.6708 35.1164 82.7106 34.8023 82.6977 34.4316C82.6891 34.1852 82.6589 33.9885 82.607 33.8417C82.556 33.6944 82.4864 33.5999 82.3981 33.5583C82.3106 33.5161 82.2075 33.5294 82.0887 33.598C81.9104 33.7009 81.7747 33.8828 81.6814 34.1436C81.5881 34.4035 81.5479 34.7183 81.5608 35.088C81.5694 35.3345 81.5992 35.5309 81.6502 35.6773C81.7012 35.8236 81.7704 35.9174 81.8578 35.9586C81.946 35.9994 82.05 35.9852 82.1696 35.9161Z" fill="#AD2120"/>
<path d="M80.9249 36.5098L80.9109 36.671C80.9009 36.7846 80.884 36.9096 80.8601 37.0463C80.837 37.1825 80.8125 37.3125 80.7865 37.4362C80.7605 37.5599 80.739 37.6588 80.7219 37.7329L80.5051 37.8581C80.5135 37.7928 80.5244 37.7066 80.5379 37.5996C80.5513 37.4925 80.5644 37.3739 80.5771 37.2438C80.5906 37.114 80.6007 36.9834 80.6076 36.8518L80.6166 36.6878L80.9249 36.5098Z" fill="#AD2120"/>
<path d="M79.2823 37.895C79.1009 37.9997 78.9443 38.032 78.8127 37.9917C78.681 37.9505 78.5777 37.8406 78.5026 37.6618C78.4276 37.482 78.3846 37.2374 78.3738 36.928C78.3631 36.6204 78.3876 36.3382 78.4475 36.0816C78.5081 35.8235 78.6002 35.6002 78.7238 35.4116C78.8483 35.2216 79.0004 35.0747 79.1802 34.9709C79.3601 34.867 79.5158 34.8362 79.6475 34.8783C79.78 34.919 79.8838 35.0292 79.9589 35.209C80.0347 35.3873 80.078 35.6303 80.0888 35.9379C80.0996 36.2473 80.0751 36.5308 80.0153 36.7884C79.9554 37.0451 79.8637 37.2677 79.74 37.4563C79.6164 37.644 79.4638 37.7902 79.2823 37.895ZM79.2717 37.5892C79.4515 37.4854 79.5877 37.3047 79.6803 37.0471C79.7728 36.7895 79.8127 36.4753 79.7997 36.1047C79.7911 35.8583 79.7609 35.6616 79.7091 35.5148C79.6581 35.3675 79.5884 35.273 79.5002 35.2314C79.4127 35.1892 79.3095 35.2025 79.1907 35.2711C79.0125 35.374 78.8767 35.5559 78.7834 35.8167C78.6901 36.0766 78.6499 36.3914 78.6628 36.7611C78.6715 37.0076 78.7012 37.204 78.7522 37.3504C78.8032 37.4967 78.8724 37.5905 78.9599 37.6317C79.0481 37.6725 79.152 37.6583 79.2717 37.5892Z" fill="#AD2120"/>
<path d="M77.6677 35.8838L77.7671 38.7301L77.4684 38.9025L77.3817 36.4176L77.3672 36.4259L76.7812 37.235L76.7689 36.8848L77.3691 36.0562L77.6677 35.8838Z" fill="#AD2120"/>
<path d="M39.8721 63.2579L86.8641 36.2019" stroke="#AD2120" stroke-width="1.068" stroke-linecap="round"/>
<path d="M51.1642 77.1143L51.06 77.054C50.9723 76.9966 50.8993 76.9194 50.8469 76.8287C50.7945 76.738 50.7642 76.6362 50.7583 76.5316V70.2212C50.7642 70.1168 50.7945 70.0152 50.8469 69.9247C50.8993 69.8341 50.9723 69.7572 51.06 69.7001L71.6159 57.8158C71.7092 57.7684 71.8123 57.7438 71.9169 57.7438C72.0215 57.7438 72.1246 57.7684 72.2179 57.8158L72.3221 57.8761C72.41 57.933 72.4831 58.0098 72.5356 58.1004C72.588 58.191 72.6182 58.2927 72.6238 58.3972V64.713C72.6182 64.8177 72.588 64.9196 72.5356 65.0104C72.4832 65.1012 72.41 65.1783 72.3221 65.2355L51.7675 77.1143C51.674 77.1617 51.5707 77.1864 51.4659 77.1864C51.361 77.1864 51.2577 77.1617 51.1642 77.1143Z" fill="#EBEBEB"/>
<path d="M68.1115 63.3692L68.1251 63.7583L67.0617 64.3723L67.0481 63.9831L68.1115 63.3692ZM67.2928 63.3201L67.7288 63.0684L67.7988 65.0725C67.8011 65.1401 67.8118 65.1869 67.8307 65.2128C67.8504 65.2374 67.8753 65.2475 67.9055 65.2434C67.9356 65.2392 67.9688 65.2267 68.0049 65.2058C68.0322 65.19 68.057 65.1734 68.0793 65.1557C68.1025 65.1377 68.12 65.1233 68.1319 65.1126L68.2191 65.4635C68.1961 65.4862 68.1632 65.5157 68.1202 65.5518C68.078 65.5875 68.0261 65.6241 67.9643 65.6617C67.8552 65.7284 67.7562 65.7662 67.6673 65.775C67.5783 65.783 67.5065 65.7573 67.452 65.698C67.3983 65.6382 67.3696 65.5414 67.3657 65.4075L67.2928 63.3201Z" fill="#AD2120"/>
<path d="M66.3782 66.5478L66.3036 64.4131L66.7396 64.1614L66.8141 66.2961L66.3782 66.5478ZM66.5122 63.9835C66.4432 64.0234 66.3828 64.0313 66.3312 64.0072C66.2796 63.9822 66.2524 63.9322 66.2498 63.8572C66.2471 63.7812 66.2698 63.7024 66.3177 63.6209C66.3656 63.5384 66.4241 63.4772 66.4931 63.4374C66.563 63.397 66.6233 63.3896 66.6742 63.4151C66.7258 63.4391 66.753 63.4892 66.7556 63.5651C66.7582 63.6402 66.7356 63.7189 66.6877 63.8014C66.6406 63.8825 66.5821 63.9432 66.5122 63.9835Z" fill="#AD2120"/>
<path d="M63.3348 68.305L63.2602 66.1703L63.6769 65.9297L63.6896 66.2924L63.7113 66.2799C63.7456 66.1353 63.806 66.0031 63.8928 65.883C63.9795 65.7621 64.0846 65.6659 64.2083 65.5945C64.3335 65.5222 64.4403 65.4965 64.5287 65.5173C64.6178 65.5367 64.6822 65.5965 64.7217 65.6965L64.741 65.6854C64.7778 65.5432 64.8435 65.4088 64.9382 65.2823C65.0337 65.1544 65.1484 65.0517 65.2825 64.9743C65.4527 64.8761 65.5938 64.8579 65.7057 64.92C65.8176 64.982 65.8778 65.1321 65.8861 65.3702L65.9361 66.8031L65.499 67.0555L65.4516 65.7004C65.447 65.5679 65.4131 65.4887 65.35 65.4628C65.2868 65.436 65.211 65.448 65.1227 65.499C65.0175 65.5598 64.9366 65.6453 64.8798 65.7555C64.8238 65.8644 64.7979 65.9791 64.8021 66.0995L64.8486 67.4309L64.4211 67.6778L64.373 66.3019C64.3692 66.1916 64.3372 66.1203 64.2771 66.0879C64.2178 66.055 64.142 66.0652 64.0497 66.1186C63.987 66.1547 63.9307 66.2062 63.8806 66.2729C63.8305 66.3387 63.7913 66.4137 63.7631 66.4981C63.7349 66.5815 63.7224 66.6672 63.7254 66.7552L63.7708 68.0532L63.3348 68.305Z" fill="#AD2120"/>
<path d="M61.2176 69.5272L61.1182 66.6809L61.5541 66.4292L61.5913 67.4938L61.6094 67.4833C61.63 67.4185 61.6598 67.345 61.6987 67.263C61.7376 67.1801 61.7912 67.0976 61.8596 67.0156C61.928 66.9326 62.0164 66.8599 62.1248 66.7973C62.2677 66.7148 62.398 66.6826 62.5158 66.7006C62.6343 66.7172 62.7301 66.7881 62.8033 66.9131C62.8772 67.0368 62.9184 67.2172 62.9266 67.4544C62.9348 67.6888 62.9085 67.9072 62.8476 68.1097C62.7866 68.3122 62.7003 68.4896 62.5885 68.6421C62.4767 68.7945 62.3481 68.9127 62.2028 68.9966C62.0968 69.0578 62.0082 69.0882 61.9369 69.0878C61.8656 69.0873 61.8077 69.0707 61.7632 69.0378C61.7194 69.0035 61.6849 68.9672 61.6598 68.9287L61.6346 68.9433L61.6463 69.2796L61.2176 69.5272ZM61.6078 68.213C61.6126 68.351 61.6337 68.4622 61.6711 68.5465C61.7092 68.6304 61.7614 68.6829 61.8277 68.7042C61.8947 68.7241 61.9744 68.7074 62.0667 68.6541C62.1631 68.5985 62.2427 68.5222 62.3057 68.4254C62.3686 68.3276 62.4147 68.2173 62.444 68.0946C62.4741 67.9704 62.4868 67.8416 62.4822 67.7082C62.4775 67.5757 62.457 67.4675 62.4204 67.3837C62.3839 67.2999 62.3321 67.2475 62.2651 67.2267C62.198 67.2059 62.1159 67.2235 62.0187 67.2796C61.9256 67.3334 61.8475 67.4073 61.7845 67.5014C61.7214 67.5954 61.6748 67.7031 61.6446 67.8245C61.6153 67.9455 61.603 68.0749 61.6078 68.213Z" fill="#AD2120"/>
<path d="M60.2828 69.1509L60.2396 67.914L60.6755 67.6623L60.7501 69.797L60.3274 70.0411L60.3141 69.6617L60.2948 69.6728C60.2573 69.8164 60.192 69.9538 60.0991 70.0849C60.0071 70.2156 59.8916 70.321 59.7527 70.4012C59.6314 70.4712 59.5232 70.5021 59.4279 70.4938C59.3333 70.4841 59.2579 70.4345 59.2015 70.3451C59.1451 70.2548 59.114 70.1244 59.108 69.9539L59.0605 68.5947L59.4965 68.343L59.5413 69.6244C59.546 69.7597 59.5818 69.8486 59.6489 69.8912C59.7159 69.9338 59.8016 69.925 59.9059 69.8647C59.9702 69.8276 60.0318 69.7736 60.0907 69.7027C60.1497 69.6318 60.1972 69.5496 60.2332 69.456C60.27 69.361 60.2866 69.2593 60.2828 69.1509Z" fill="#AD2120"/>
<path d="M58.2204 69.1522C58.2049 69.0373 58.1543 68.9701 58.0684 68.9507C57.9833 68.9308 57.8746 68.9591 57.7421 69.0356C57.649 69.0893 57.5696 69.1517 57.5041 69.2226C57.4386 69.2935 57.3892 69.3669 57.3558 69.4429C57.3224 69.5189 57.3066 69.5928 57.3083 69.6646C57.3103 69.7239 57.3238 69.7686 57.3486 69.7987C57.3742 69.8283 57.408 69.8466 57.45 69.8536C57.492 69.8596 57.5382 69.8584 57.5887 69.85C57.6392 69.8417 57.69 69.8299 57.741 69.8146L57.9746 69.7478C58.0686 69.719 58.1593 69.7011 58.2467 69.6942C58.3349 69.6867 58.4143 69.6957 58.4848 69.7212C58.5561 69.7462 58.6134 69.7929 58.6568 69.8615C58.7001 69.93 58.7239 70.0259 58.7282 70.1492C58.7341 70.3159 58.7023 70.4841 58.6328 70.6537C58.5634 70.8223 58.46 70.9827 58.3228 71.1347C58.1864 71.2853 58.0194 71.4176 57.8219 71.5316C57.63 71.6424 57.4622 71.7043 57.3185 71.7173C57.1756 71.7299 57.0621 71.6933 56.978 71.6077C56.8948 71.5215 56.8466 71.3858 56.8336 71.2005L57.2732 70.9467C57.2831 71.0421 57.3124 71.1093 57.3613 71.1482C57.4102 71.1871 57.4725 71.2012 57.5483 71.1905C57.6249 71.1794 57.7098 71.1469 57.8029 71.0931C57.9 71.0371 57.9846 70.9712 58.0565 70.8957C58.1291 70.8188 58.1853 70.7382 58.2249 70.6538C58.2646 70.5686 58.2833 70.4849 58.2813 70.4029C58.2779 70.3293 58.2569 70.279 58.2183 70.2522C58.1796 70.2244 58.1264 70.2135 58.0587 70.2196C57.9917 70.2242 57.9135 70.2391 57.8243 70.2641L57.5408 70.3427C57.3356 70.3998 57.1718 70.4012 57.0495 70.3471C56.928 70.2915 56.8637 70.1618 56.8566 69.958C56.8507 69.7903 56.8849 69.6207 56.9592 69.4493C57.0343 69.2774 57.1389 69.1173 57.2729 68.969C57.4069 68.8198 57.5603 68.6954 57.7329 68.5957C57.9079 68.4947 58.0625 68.4413 58.1966 68.4357C58.3315 68.4287 58.4389 68.4655 58.5187 68.5461C58.5985 68.6258 58.6423 68.745 58.6504 68.9039L58.2204 69.1522Z" fill="#AD2120"/>
<path d="M72.6217 58.3496C72.6012 58.1933 72.475 58.1371 72.3228 58.2235L51.7669 70.1037C51.678 70.1587 51.6048 70.2357 51.5543 70.3272L50.8481 69.9159C50.8987 69.8236 50.9724 69.7461 51.0621 69.691L71.6166 57.8121C71.7099 57.7648 71.813 57.7401 71.9176 57.7401C72.0222 57.7401 72.1253 57.7648 72.2186 57.8121L72.3228 57.8725C72.4041 57.9257 72.473 57.9959 72.5246 58.0783C72.5762 58.1607 72.6093 58.2532 72.6217 58.3496Z" fill="#FAFAFA"/>
<path d="M51.7155 77.1382C51.6277 77.1734 51.5333 77.1895 51.4388 77.1855C51.3442 77.1815 51.2516 77.1574 51.167 77.1149L51.0601 77.0545C50.9722 76.9968 50.8992 76.9192 50.847 76.8279C50.7948 76.7366 50.7649 76.6344 50.7598 76.5294V70.2217C50.7627 70.1166 50.793 70.0141 50.8475 69.9242L51.5537 70.3356C51.4999 70.4259 51.4692 70.5281 51.4646 70.6331V76.9407C51.4646 77.1135 51.5743 77.193 51.7155 77.1382Z" fill="#E0E0E0"/>
<path d="M140.342 111.218V110.812C140.182 111.286 139.442 113.333 138.32 114.372C137.427 115.188 136.206 116.128 135.896 117.035C135.586 117.943 137.594 118.299 138.427 118.153C139.399 117.979 140.652 117.441 141.336 116.59C141.816 115.999 142.122 115.302 142.464 114.835C142.806 114.369 143.596 113.856 143.785 113.319C143.885 113.023 143.764 112.375 143.621 111.831C143.479 111.286 143.347 110.78 143.176 110.827V111.14C142.77 111.457 142.267 111.626 141.752 111.617C141.332 111.617 140.339 111.532 140.342 111.218Z" fill="#263238"/>
<path d="M137.509 115.074C137.787 114.828 138.068 114.586 138.321 114.362C139.104 113.65 139.702 112.432 140.047 111.603C140.242 111.13 140.343 110.623 140.343 110.111V108.498H143.191V111.126V111.197C143.055 111.784 141.767 113.333 141.015 114.372C140.521 115.056 139.591 115.925 138.456 116.078C137.363 116.22 136.818 115.882 137.509 115.074Z" fill="#FFBE9D"/>
<path d="M129.295 108.424V108.018C129.135 108.495 128.391 110.542 127.27 111.578C126.376 112.393 125.155 113.336 124.845 114.244C124.535 115.152 126.543 115.508 127.376 115.359C128.348 115.188 129.601 114.647 130.285 113.799C130.765 113.208 131.072 112.507 131.413 112.044C131.755 111.581 132.549 111.062 132.734 110.524C132.834 110.229 132.713 109.584 132.57 109.04C132.428 108.495 132.296 107.972 132.125 108.032V108.342C131.72 108.661 131.217 108.831 130.701 108.822C130.296 108.822 129.292 108.74 129.295 108.424Z" fill="#263238"/>
<path d="M126.462 112.283C126.736 112.034 127.018 111.795 127.27 111.571C128.054 110.859 128.652 109.638 128.997 108.808C129.194 108.337 129.295 107.831 129.296 107.32V105.704H132.126V108.331V108.402C131.991 108.993 130.702 110.556 129.951 111.578C129.456 112.261 128.527 113.134 127.391 113.283C126.313 113.425 125.768 113.091 126.462 112.283Z" fill="#FFBE9D"/>
<path d="M142.614 67.1918C144.81 71.9871 142.532 88.8864 142.532 88.8864C142.6 89.6625 143.49 91.1968 143.821 94.6216C144.212 98.6693 143.205 108.833 143.205 108.833C142.775 109.082 142.291 109.222 141.795 109.242C141.299 109.262 140.805 109.16 140.357 108.947C140.357 108.947 137.658 93.639 137.153 89.6162C136.704 86.1025 135.843 78.388 135.843 78.388L133.425 89.602C133.778 90.7341 134.034 91.894 134.191 93.0694C134.422 95.4368 132.126 106.459 132.126 106.459C132.126 106.459 131.151 106.815 129.296 106.544C129.296 106.544 128.484 91.916 128.271 89.0644C127.915 84.2762 129.182 69.3313 130.051 66.4976L142.614 67.1918Z" fill="#37474F"/>
<path d="M135.843 78.388L135.131 73.9309C135.131 73.9309 132.112 73.3079 130.745 72.0192C131.687 73.1262 132.92 73.9475 134.305 74.3901L135.106 77.822L133.707 88.2065L135.843 78.388Z" fill="#263238"/>
<path d="M134.052 50.3956C133.363 50.3364 132.67 50.4537 132.039 50.7365C131.408 51.0193 130.86 51.4582 130.446 52.0119C129.313 53.4928 124.974 59.1319 124.974 59.1319C124.974 59.1319 118.566 55.9279 118.263 55.5505C117.961 55.1731 118.128 54.4042 118.213 53.9841C118.299 53.564 118.445 52.6206 118.537 52.3572C118.701 51.8979 118.021 52.0225 117.619 52.4533C117.217 52.8841 117.042 53.7242 116.839 53.8773C116.636 54.0304 115.12 52.2717 114.379 51.428C113.639 50.5843 113.311 50.004 112.802 50.3422C112.446 50.5914 112.674 51.0934 113.204 51.8161C113.451 52.1224 113.68 52.4434 113.888 52.7773C113.949 52.9054 113.756 53.0087 113.678 53.0799C113.536 53.208 113.279 53.4359 113.261 53.6174C113.265 53.727 113.258 53.8367 113.24 53.9449C113.172 54.187 112.884 54.3009 112.792 54.5359C112.731 54.7032 112.792 54.8919 112.763 55.0735C112.742 55.1874 112.678 55.2906 112.656 55.4081C112.649 55.5224 112.666 55.637 112.708 55.7439C112.749 55.8509 112.813 55.9476 112.895 56.0275C113.411 56.647 114.119 56.8819 114.799 57.2593C115.365 57.5726 115.949 57.7079 116.601 57.9962C117.252 58.2846 124.807 63.5249 126.003 62.8627C127.199 62.2006 133.372 55.0307 133.372 55.0307C135.152 52.0724 134.052 50.3956 134.052 50.3956Z" fill="#FFBE9D"/>
<path d="M138.74 50.5274C141.553 50.7232 141.752 52.0832 142.457 53.5677C142.973 54.7145 143.02 56.0176 142.589 57.1989L140.62 62.8735C140.62 62.8735 141.538 65.095 142.606 67.1918C137.683 69.9401 131.535 68.4948 130.054 66.4798C129.99 66.0526 130.371 62.7276 130.606 60.556C129.737 58.3808 129.509 56.996 129.876 55.572C130.556 52.902 133.19 50.3032 134.358 50.3957L138.74 50.5274Z" fill="#F5F5F5"/>
<path d="M136.031 48.1957H137.124C137.881 48.1957 138.63 48.0466 139.329 47.7569C140.027 47.4671 140.662 47.0425 141.197 46.5072C141.732 45.9719 142.155 45.3364 142.444 44.6372C142.733 43.938 142.881 43.1887 142.881 42.4321C142.88 40.8975 142.269 39.4261 141.184 38.3413C140.098 37.2565 138.627 36.6471 137.092 36.6471H136.063C134.532 36.6518 133.065 37.2634 131.984 38.3478C130.903 39.4321 130.296 40.9009 130.296 42.4321C130.293 43.9566 130.895 45.42 131.971 46.5007C133.046 47.5814 134.507 48.191 136.031 48.1957Z" fill="#263238"/>
<path d="M145.96 51.2287C145.058 51.2278 144.194 50.8693 143.557 50.2319C142.919 49.5945 142.561 48.7303 142.56 47.8289V40.5452C143.007 40.5452 143.449 40.6332 143.862 40.8043C144.275 40.9754 144.65 41.2261 144.965 41.5422C145.281 41.8583 145.531 42.2335 145.702 42.6464C145.873 43.0593 145.96 43.5018 145.96 43.9485V51.2287Z" fill="#263238"/>
<path d="M143.183 39.2565L142.333 40.6235C142.419 40.6841 142.518 40.7265 142.621 40.7481C142.725 40.7697 142.832 40.77 142.936 40.749C143.04 40.7281 143.138 40.6863 143.225 40.6261C143.313 40.566 143.387 40.4888 143.443 40.3992C143.555 40.2117 143.59 39.9886 143.541 39.776C143.493 39.5633 143.365 39.3774 143.183 39.2565Z" fill="#263238"/>
<path d="M132.346 39.203C131.681 39.5946 130.858 41.2678 130.94 44.778C131.008 47.7541 131.973 48.4875 132.457 48.694C132.941 48.9004 133.881 48.7758 134.781 48.6228V50.4028C134.781 50.4028 133.528 51.8588 133.607 52.6776C133.685 53.4964 135.419 53.6886 136.594 52.8912C137.354 52.342 138.007 51.6578 138.519 50.8727V46.5722C138.615 46.6893 138.732 46.7862 138.865 46.8574C138.998 46.9286 139.144 46.9726 139.294 46.9868C139.444 47.0011 139.595 46.9853 139.739 46.9404C139.883 46.8955 140.017 46.8224 140.132 46.7253C141.136 46.0596 141.175 44.4113 140.591 43.8203C140.008 43.2294 138.751 43.418 138.519 44.2333C138.519 44.2333 137.071 44.2867 135.145 43.2294C134.394 42.8255 133.75 42.2504 133.264 41.5508C132.778 40.8512 132.463 40.0469 132.346 39.203Z" fill="#FFBE9D"/>
<path d="M134.593 44.0304C134.589 44.1041 134.608 44.1771 134.646 44.2403C134.684 44.3034 134.74 44.354 134.806 44.3855C134.873 44.417 134.947 44.4281 135.02 44.4174C135.093 44.4067 135.161 44.3746 135.216 44.3253C135.271 44.2759 135.31 44.2115 135.328 44.14C135.347 44.0686 135.343 43.9934 135.319 43.9238C135.294 43.8542 135.25 43.7934 135.191 43.749C135.132 43.7047 135.061 43.6787 134.988 43.6744C134.889 43.6723 134.793 43.7079 134.72 43.7741C134.646 43.8402 134.601 43.9319 134.593 44.0304Z" fill="#263238"/>
<path d="M134.163 46.5544L133.294 46.8286C133.31 46.8866 133.337 46.9408 133.373 46.9882C133.41 47.0355 133.456 47.075 133.509 47.1042C133.561 47.1334 133.619 47.1518 133.679 47.1583C133.739 47.1647 133.799 47.1591 133.856 47.1418C133.974 47.1026 134.071 47.0195 134.128 46.9099C134.185 46.8004 134.198 46.6729 134.163 46.5544Z" fill="#FFBE9D"/>
<path d="M131.527 42.8841L132.282 42.3573C132.251 42.3066 132.209 42.2628 132.16 42.2287C132.111 42.1946 132.055 42.1708 131.996 42.1589C131.938 42.1469 131.877 42.1469 131.819 42.159C131.76 42.1711 131.705 42.1949 131.656 42.2291C131.554 42.301 131.485 42.4091 131.461 42.531C131.437 42.6529 131.461 42.7794 131.527 42.8841Z" fill="#263238"/>
<path d="M131.72 43.7598C131.716 43.81 131.722 43.8604 131.738 43.9081C131.754 43.9558 131.779 43.9999 131.812 44.0377C131.846 44.0755 131.886 44.1063 131.931 44.1283C131.976 44.1503 132.026 44.163 132.076 44.1657C132.153 44.172 132.23 44.1551 132.297 44.1173C132.365 44.0794 132.419 44.0223 132.454 43.9533C132.489 43.8843 132.502 43.8064 132.492 43.7298C132.483 43.6531 132.45 43.5811 132.399 43.523C132.348 43.4649 132.281 43.4234 132.206 43.4037C132.132 43.384 132.053 43.3871 131.98 43.4125C131.907 43.4379 131.843 43.4846 131.797 43.5465C131.75 43.6083 131.724 43.6826 131.72 43.7598Z" fill="#263238"/>
<path d="M133.529 43.5463L133.468 45.7997L132.283 45.4331L133.529 43.5463Z" fill="#DD9671"/>
<path d="M134.781 48.6301C135.739 48.5055 137.708 47.9394 138.014 47.1633C137.89 47.5569 137.649 47.9034 137.323 48.1566C136.736 48.6585 134.781 49.2246 134.781 49.2246V48.6301Z" fill="#DD9671"/>
<path opacity="0.1" d="M137.48 67.7259C137.866 67.637 138.23 67.472 138.551 67.2405C138.872 67.009 139.144 66.7157 139.35 66.3778C139.556 66.0399 139.693 65.6642 139.752 65.2727C139.811 64.8813 139.791 64.482 139.694 64.0982C139.637 63.8642 139.503 63.6564 139.313 63.5084C139.123 63.3604 138.888 63.281 138.648 63.283C138.963 63.0736 139.235 62.8039 139.446 62.4892C139.658 62.1746 139.805 61.8213 139.879 61.4496L140.477 57.8896C140.55 57.3097 140.498 56.7211 140.324 56.163L142.304 53.8739L142.66 54.1267C142.96 55.1321 142.932 56.2074 142.578 57.1954L140.62 62.8736C140.62 62.8736 141.538 65.095 142.606 67.1919C141.005 68.0553 139.238 68.5657 137.424 68.6885C135.609 68.8113 133.789 68.5438 132.086 67.9039C133.879 68.1849 135.709 68.1245 137.48 67.7259Z" fill="black"/>
<path d="M147.651 64.657C145.095 54.2084 143.204 50.7231 140.1 50.773C139.192 51.841 139.445 55.1304 140.876 57.1169C140.876 57.1169 144.08 63.856 144.582 66.2519C145.027 68.3558 145.536 71.0045 145.504 72.8129C145.494 73.1338 145.367 73.4401 145.148 73.6745C144.564 74.3081 144.564 74.8172 144.183 75.515C143.888 76.0632 143.564 76.2697 143.656 76.3908C143.778 76.521 143.945 76.6005 144.123 76.6137C144.301 76.6269 144.478 76.5727 144.618 76.462C144.887 76.2587 145.126 76.019 145.33 75.75C145.229 76.4204 145.035 77.0735 144.753 77.6901C144.098 79.1675 144.258 79.9223 146.252 79.3954C147.501 79.0643 148.288 78.0248 148.477 75.0166C148.567 73.9104 148.578 72.7992 148.509 71.6916C148.256 68.8435 148.064 66.3373 147.651 64.657Z" fill="#FFBE9D"/>
<path d="M122.29 94.5291C122.564 84.3582 121.748 81.9232 119.043 80.0613L117.993 85.9531C117.993 85.9531 119.224 92.8951 119.093 95.2091C118.979 97.2418 118.779 99.7837 118.299 101.425C118.214 101.721 118.023 101.974 117.761 102.137C117.071 102.568 116.793 103.009 116.273 103.561C115.867 103.988 115.522 104.091 115.561 104.227C115.64 104.376 115.772 104.49 115.93 104.547C116.089 104.604 116.264 104.599 116.419 104.533C116.764 104.394 117.091 104.216 117.395 104.002C117.156 104.626 116.818 105.206 116.394 105.722C115.426 106.907 115.383 107.637 117.338 107.655C118.559 107.655 119.534 106.911 120.456 104.216C120.814 103.228 121.1 102.215 121.314 101.186C121.798 98.4985 122.247 96.1667 122.29 94.5291Z" fill="#FFBE9D"/>
<path d="M116.768 79.2887C118.06 79.1 119.815 79.3706 120.951 81.3998C122.087 83.429 122.375 86.9213 122.493 90.3923C122.493 90.3923 120.239 92.2756 117.533 91.35L116.768 79.2887Z" fill="#AD2120"/>
<path opacity="0.1" d="M116.768 79.2887C118.06 79.1 119.815 79.3706 120.951 81.3998C122.087 83.429 122.375 86.9213 122.493 90.3923C122.493 90.3923 120.239 92.2756 117.533 91.35L116.768 79.2887Z" fill="black"/>
<path d="M120.566 135.22C120.769 135.298 120.823 135.69 120.855 136.466C120.876 137.053 121.004 138.082 120.314 138.285C119.623 138.488 118.615 138.385 118.178 137.833C117.626 137.121 117.256 136.53 116.469 135.697C115.785 134.963 115.045 134.273 114.774 133.255C114.525 132.325 114.731 131.923 115.365 131.653C116.234 131.297 117.604 132.496 118.284 132.685C118.868 132.856 120.36 135.141 120.566 135.22Z" fill="#263238"/>
<path d="M120.566 134.501V135.455C120.208 135.684 119.794 135.811 119.368 135.822C118.943 135.834 118.523 135.729 118.153 135.519C118.113 135.426 117.903 134.155 117.903 134.155L120.566 134.501Z" fill="#B16668"/>
<path d="M112.852 140.72C113.019 141.231 113.159 141.75 113.273 142.276C113.39 142.852 113.557 143.817 113.358 144.251C113.159 144.686 112.368 144.963 111.144 144.963C110.353 144.963 109.122 145.494 108.278 145.964C107.434 146.434 105.59 146.644 104.668 146.537C103.582 146.409 102.457 145.779 102.279 145.327C102.101 144.874 102.336 144.412 104.899 143.319C104.924 143.319 108.459 142.158 109.698 140.791L112.852 140.72Z" fill="#263238"/>
<path d="M112.852 139.688C112.852 139.688 112.852 140.4 112.852 140.802C112.852 141.204 112.379 141.809 111.14 141.763C110.271 141.735 109.666 141.5 109.716 140.784V139.752L112.852 139.688Z" fill="#B16668"/>
<path d="M121.186 121.838C120.975 120.144 120.598 118.474 120.061 116.854C120.061 116.854 120.399 112.582 120.563 108.502C120.741 104.109 120.563 98.591 120.637 97.4945C120.637 97.4945 106.469 94.6465 106.216 99.7017C105.963 104.757 106.775 117.701 106.928 119.93C107.081 122.158 107.48 124.134 107.943 127.762C108.405 131.389 109.669 139.752 109.669 139.752C110.16 140.001 110.704 140.126 111.254 140.115C111.804 140.103 112.343 139.957 112.823 139.688C112.823 139.688 113.82 129.538 113.717 126.964C113.636 125.058 113.309 123.171 112.741 121.35C112.741 121.35 113.008 117.163 113.247 113.518C113.485 109.873 113.735 108.128 113.788 106.548L114.094 106.394C114.094 106.394 114.404 112.674 114.571 114.906C114.739 117.139 115.095 119.275 115.739 123.415C116.301 127.01 117.967 134.611 117.967 134.611C119.584 135.487 120.552 134.497 120.552 134.497C120.552 134.497 121.624 124.956 121.186 121.838Z" fill="#37474F"/>
<path d="M113.802 106.551C113.802 106.551 117.241 104.857 118.961 103.329C118.961 103.329 117.362 105.579 115.265 106.576C115.265 106.576 114.521 114.38 114.525 114.223L114.094 106.537L113.802 106.551Z" fill="#263238"/>
<path d="M110.745 77.6796L111.585 82.2934L115.75 81.9908L114.878 76.7576L110.745 77.6796Z" fill="#FFBE9D"/>
<path d="M120.154 81.6525C119.741 80.3994 118.15 79.0324 116.558 79.3278C114.191 79.7299 111.859 80.3119 109.581 81.0687C108.121 81.592 106.793 82.8487 106.672 87.6476C106.672 87.6476 106.184 98.8331 106.177 100.994C109.837 102.443 113.653 102.4 115.75 101.941C120.136 100.983 120.663 99.1642 120.663 99.1642C120.663 99.1642 120.72 91.1221 120.588 87.6476C120.478 84.6963 120.439 82.514 120.154 81.6525Z" fill="#AD2120"/>
<path d="M107.529 72.0654C107.529 72.0654 106.462 73.7529 106.6 73.9131C106.739 74.0733 107.537 74.2014 107.537 74.2014L107.529 72.0654Z" fill="#FFBE9D"/>
<path d="M110.463 67.4053C108.259 67.9215 107.644 68.9077 107.512 72.4321C107.377 76.1131 107.779 77.2594 108.274 77.7436C108.605 78.0711 110.41 78.0996 111.328 77.8183C112.464 77.4623 115.031 76.5011 116.198 74.6143C117.572 72.4071 117.882 69.4523 116.33 68.274C114.144 66.6399 111.36 67.1917 110.463 67.4053Z" fill="#FFBE9D"/>
<path d="M110.791 77.9323C111.538 77.3307 111.471 76.9426 111.471 76.9426C110.937 77.4446 108.95 77.8718 108.267 77.7436C108.548 78.032 109.84 78.0747 110.791 77.9323Z" fill="#DD9671"/>
<path d="M107.537 68.3203C108.185 69.4275 109.588 69.9579 109.588 69.9579C110.011 70.4385 109.777 72.3182 110.521 72.6137C110.521 72.6137 110.841 71.2466 111.991 71.3926C113.141 71.5386 113.337 73.0053 112.628 73.9131C111.92 74.8209 111.24 74.4969 111.24 74.4969C111.24 74.4969 111.318 76.4371 112.204 77.5194C112.204 77.5194 113.191 77.8148 114.981 77.3876C116.085 77.1278 117.619 75.7073 118.242 74.2299C119.567 71.0971 119.599 68.3061 117.601 67.5158C117.356 66.0918 116.217 65.4759 114.928 65.2089C112.155 64.6393 110.367 66.3694 108.231 66.2199C107.007 66.1345 106.779 67.0209 107.537 68.3203Z" fill="#263238"/>
<path d="M117.647 67.9928L118.954 67.1811C118.846 67.0078 118.674 66.8844 118.475 66.838C118.277 66.7916 118.068 66.826 117.894 66.9337C117.721 67.0413 117.598 67.2134 117.551 67.412C117.505 67.6106 117.539 67.8195 117.647 67.9928Z" fill="#263238"/>
<path d="M109.694 81.0509C109.694 81.0509 107.622 81.4354 106.54 83.073C105.458 84.7106 100.773 90.5846 100.773 90.5846C100.773 90.5846 94.0373 87.2133 93.7062 86.811C93.3751 86.4087 93.5602 85.6041 93.6528 85.1591C93.7454 84.7141 93.8949 83.7351 94.0088 83.4503C94.1797 82.9626 93.4641 83.0943 93.0405 83.5465C92.6168 83.9986 92.4317 84.885 92.2217 85.0381C92.0116 85.1912 90.4061 83.3471 89.63 82.4571C88.8539 81.5671 88.4872 80.9441 87.9639 81.3108C87.5901 81.5778 87.8322 82.1047 88.3875 82.8665C88.6488 83.186 88.8868 83.5239 89.0995 83.8775C89.1672 84.0128 88.9607 84.1232 88.8824 84.1944C88.7293 84.3297 88.4623 84.5504 88.4409 84.764C88.4523 84.8824 88.4523 85.0016 88.4409 85.12C88.3662 85.3727 88.0529 85.476 87.9639 85.7394C87.8998 85.921 87.9639 86.1203 87.9354 86.309C87.9105 86.4301 87.8464 86.5369 87.8215 86.665C87.8146 86.7859 87.8336 86.9069 87.8772 87.0198C87.9208 87.1328 87.988 87.2352 88.0743 87.3201C88.6189 87.9715 89.3665 88.2207 90.0821 88.6159C90.6766 88.947 91.2925 89.0894 91.9796 89.3955C92.6667 89.7017 100.741 95.6683 102.001 94.9741C103.261 94.2799 109.719 86.7327 109.719 86.7327C110.265 85.8846 110.553 84.8965 110.548 83.8881C110.544 82.8797 110.247 81.8942 109.694 81.0509Z" fill="#FFBE9D"/>
<path d="M110.417 80.8087C109.527 80.9084 108.281 80.7446 106.533 82.6172C105.13 84.2242 103.822 85.9122 102.617 87.6724C102.846 88.5972 103.338 89.436 104.033 90.0883C104.727 90.7406 105.595 91.1786 106.533 91.3499C106.533 91.3499 109.587 88.2206 110.449 86.494C111.31 84.7674 111.463 81.9693 110.417 80.8087Z" fill="#AD2120"/>
<path opacity="0.1" d="M110.417 80.8087C109.527 80.9084 108.281 80.7446 106.533 82.6172C105.13 84.2242 103.822 85.9122 102.617 87.6724C102.846 88.5972 103.338 89.436 104.033 90.0883C104.727 90.7406 105.595 91.1786 106.533 91.3499C106.533 91.3499 109.587 88.2206 110.449 86.494C111.31 84.7674 111.463 81.9693 110.417 80.8087Z" fill="black"/>
</svg>
