<svg width="177" height="167" viewBox="0 0 500 500" fill="none" xmlns="http://www.w3.org/2000/svg">
<path d="M104.741 442C185.311 484.47 315.941 484.47 396.511 442C477.081 399.53 477.091 330.69 396.511 288.23C315.931 245.77 185.311 245.76 104.731 288.23C24.1508 330.7 24.1608 399.51 104.741 442Z" fill="#F5F5F5"/>
<path d="M70.1908 388.85L73.9308 391C74.6018 391.34 75.3435 391.517 76.0958 391.517C76.848 391.517 77.5897 391.34 78.2608 391L251.081 291.23C251.343 291.144 251.572 290.977 251.734 290.754C251.896 290.53 251.983 290.261 251.983 289.985C251.983 289.709 251.896 289.439 251.734 289.216C251.572 288.992 251.343 288.826 251.081 288.74L247.371 286.62C246.7 286.28 245.958 286.103 245.206 286.103C244.454 286.103 243.712 286.28 243.041 286.62L70.1908 386.35C69.9296 386.438 69.7027 386.607 69.542 386.831C69.3813 387.055 69.2949 387.324 69.2949 387.6C69.2949 387.876 69.3813 388.144 69.542 388.369C69.7027 388.593 69.9296 388.761 70.1908 388.85Z" fill="#E0E0E0"/>
<path d="M319.681 424.79C348.809 424.79 372.421 411.846 372.421 395.88C372.421 379.913 348.809 366.97 319.681 366.97C290.554 366.97 266.941 379.913 266.941 395.88C266.941 411.846 290.554 424.79 319.681 424.79Z" fill="#E0E0E0"/>
<path d="M380.61 346.12C403.082 346.12 421.3 336.131 421.3 323.81C421.3 311.489 403.082 301.5 380.61 301.5C358.137 301.5 339.92 311.489 339.92 323.81C339.92 336.131 358.137 346.12 380.61 346.12Z" fill="#E0E0E0"/>
<path d="M400.511 301.39C400.451 296.28 404.02 285.66 409.24 278.96C414.46 272.26 422.73 267.31 428.68 269.27C434.22 271.09 433.681 278.33 427.071 283.2C420.461 288.07 410.46 294.2 407.61 302.54L401.56 312.78L400.511 301.39Z" fill="#CE6F1D"/>
<path opacity="0.1" d="M400.511 301.39C400.451 296.28 404.02 285.66 409.24 278.96C414.46 272.26 422.73 267.31 428.68 269.27C434.22 271.09 433.681 278.33 427.071 283.2C420.461 288.07 410.46 294.2 407.61 302.54L401.56 312.78L400.511 301.39Z" fill="black"/>
<path d="M400.22 308.39C400.301 308.381 400.377 308.346 400.436 308.29C400.495 308.234 400.535 308.161 400.55 308.08C403.76 290.6 417.7 276.26 426.1 273.03C426.194 272.994 426.27 272.923 426.311 272.831C426.353 272.739 426.356 272.634 426.32 272.54C426.302 272.495 426.276 272.454 426.242 272.418C426.208 272.383 426.168 272.355 426.123 272.336C426.079 272.316 426.031 272.306 425.982 272.305C425.934 272.304 425.885 272.313 425.84 272.33C417.27 275.62 403.07 290.2 399.84 307.95C399.831 307.998 399.832 308.047 399.843 308.095C399.853 308.143 399.873 308.188 399.901 308.228C399.928 308.268 399.964 308.302 400.005 308.328C400.046 308.354 400.092 308.372 400.14 308.38L400.22 308.39Z" fill="white"/>
<path d="M403 319.519C403.79 316.639 407.24 311.859 412.86 307.869C419.09 303.469 427.01 301.379 428.8 297.989C430.95 293.909 427.49 290.129 421.05 290.989C414.61 291.849 403.39 300.799 401.73 314.059L403 319.519Z" fill="#CE6F1D"/>
<path d="M401.67 316.52C401.741 316.513 401.809 316.486 401.866 316.442C401.923 316.397 401.966 316.338 401.99 316.27C407.15 301.27 418.49 295.89 423.76 295.14C423.857 295.125 423.945 295.073 424.005 294.995C424.064 294.917 424.091 294.818 424.08 294.72C424.074 294.672 424.058 294.624 424.033 294.582C424.009 294.539 423.976 294.502 423.937 294.472C423.898 294.442 423.853 294.421 423.806 294.408C423.758 294.396 423.708 294.393 423.66 294.4C417.83 295.23 406.56 300.71 401.28 316.03C401.264 316.076 401.257 316.125 401.26 316.173C401.264 316.222 401.276 316.269 401.297 316.313C401.319 316.357 401.349 316.396 401.385 316.428C401.421 316.46 401.464 316.485 401.51 316.5C401.56 316.521 401.616 316.528 401.67 316.52Z" fill="white"/>
<path d="M74.8506 386.33L74.0906 385.89C73.4514 385.474 72.9192 384.913 72.537 384.253C72.1548 383.593 71.9334 382.852 71.8906 382.09V125.83C71.9342 125.067 72.1559 124.325 72.5379 123.664C72.92 123.002 73.4518 122.439 74.0906 122.02L239.211 26.7001C239.893 26.3547 240.646 26.1748 241.411 26.1748C242.175 26.1748 242.929 26.3547 243.611 26.7001L244.361 27.14C245.002 27.5567 245.535 28.1191 245.917 28.7812C246.3 29.4434 246.52 30.1865 246.561 30.9501V287.2C246.52 287.964 246.3 288.707 245.917 289.369C245.535 290.031 245.002 290.593 244.361 291.01L79.2506 386.33C78.5687 386.675 77.815 386.855 77.0506 386.855C76.2862 386.855 75.5326 386.675 74.8506 386.33Z" fill="#CE6F1D"/>
<path opacity="0.4" d="M246.541 30.6C246.391 29.46 245.471 29.04 244.371 29.67L79.241 125C78.5946 125.408 78.0614 125.972 77.691 126.64L72.541 123.64C72.9163 122.972 73.4525 122.408 74.101 122L239.211 26.7001C239.893 26.3547 240.647 26.1748 241.411 26.1748C242.175 26.1748 242.929 26.3547 243.611 26.7001L244.371 27.14C244.956 27.5316 245.451 28.0421 245.825 28.6384C246.199 29.2346 246.443 29.9031 246.541 30.6Z" fill="white"/>
<path opacity="0.1" d="M78.8799 386.5C78.2389 386.755 77.5511 386.872 76.8617 386.843C76.1723 386.814 75.4969 386.639 74.8799 386.33L74.1099 385.89C73.4707 385.472 72.9392 384.909 72.5586 384.247C72.1781 383.585 71.9592 382.843 71.9199 382.08V125.83C71.9431 125.067 72.1636 124.323 72.5599 123.67L77.7099 126.67C77.3013 127.311 77.0574 128.042 76.9999 128.8V385.06C76.9999 386.32 77.8399 386.91 78.8799 386.5Z" fill="black"/>
<path d="M96.5205 199.269L95.7606 198.829C95.1211 198.411 94.589 197.848 94.2068 197.186C93.8247 196.524 93.6033 195.782 93.5605 195.019V148.999C93.6033 148.237 93.8247 147.497 94.2069 146.836C94.5891 146.176 95.1214 145.615 95.7606 145.199L245.671 58.529C246.351 58.1838 247.103 58.0039 247.866 58.0039C248.628 58.0039 249.38 58.1838 250.061 58.529L250.821 58.969C251.461 59.3836 251.995 59.9441 252.377 60.6046C252.76 61.2651 252.98 62.0069 253.021 62.769V108.829C252.98 109.593 252.76 110.336 252.377 110.998C251.995 111.66 251.462 112.222 250.821 112.639L100.921 199.269C100.239 199.614 99.4849 199.794 98.7206 199.794C97.9562 199.794 97.2025 199.614 96.5205 199.269Z" fill="#EBEBEB"/>
<path d="M253.001 62.4197C252.851 61.2797 251.931 60.8697 250.821 61.4997L100.911 148.14C100.263 148.541 99.7288 149.102 99.3609 149.77L94.2109 146.77C94.5794 146.097 95.1171 145.531 95.7709 145.13L245.671 58.4997C246.351 58.1545 247.103 57.9746 247.866 57.9746C248.629 57.9746 249.381 58.1545 250.061 58.4997L250.821 58.9397C251.414 59.3281 251.916 59.8402 252.292 60.4409C252.669 61.0416 252.91 61.7167 253.001 62.4197Z" fill="#FAFAFA"/>
<path d="M100.54 199.44C99.8996 199.697 99.2116 199.814 98.522 199.785C97.8324 199.756 97.1569 199.58 96.5403 199.27L95.7603 198.83C95.1196 198.409 94.5873 197.843 94.2067 197.177C93.8262 196.512 93.6081 195.766 93.5703 195V149C93.5918 148.233 93.8123 147.486 94.2103 146.83L99.3603 149.83C98.9677 150.489 98.7444 151.234 98.7103 152V198C98.7103 199.26 99.5103 199.84 100.54 199.44Z" fill="#E0E0E0"/>
<path d="M124.006 166.827C127.317 164.932 130 166.405 130 170.115C130 173.825 127.313 178.34 123.998 180.197C120.683 182.054 118 180.581 118 176.905C118 173.23 120.695 168.726 124.006 166.827Z" fill="#CE6F1D"/>
<path d="M117.525 146.63C117.482 146.307 117.339 146.118 117.098 146.064C116.859 146.008 116.554 146.087 116.182 146.302C115.92 146.453 115.697 146.628 115.513 146.827C115.329 147.027 115.19 147.233 115.097 147.446C115.003 147.66 114.958 147.867 114.963 148.069C114.969 148.236 115.007 148.361 115.076 148.446C115.148 148.529 115.243 148.58 115.361 148.6C115.479 148.617 115.609 148.613 115.751 148.59C115.893 148.566 116.035 148.533 116.179 148.49L116.835 148.303C117.099 148.222 117.354 148.172 117.599 148.152C117.847 148.131 118.07 148.156 118.268 148.228C118.468 148.298 118.629 148.429 118.751 148.622C118.873 148.815 118.94 149.084 118.952 149.43C118.968 149.899 118.879 150.371 118.684 150.847C118.489 151.321 118.198 151.771 117.813 152.198C117.43 152.621 116.961 152.993 116.406 153.313C115.867 153.625 115.396 153.798 114.992 153.835C114.59 153.87 114.272 153.768 114.035 153.527C113.802 153.285 113.666 152.904 113.63 152.383L114.864 151.67C114.892 151.938 114.975 152.127 115.112 152.236C115.249 152.346 115.424 152.385 115.637 152.355C115.852 152.324 116.091 152.233 116.352 152.082C116.625 151.924 116.863 151.739 117.065 151.527C117.269 151.311 117.427 151.085 117.538 150.848C117.649 150.608 117.702 150.373 117.696 150.143C117.687 149.936 117.628 149.795 117.519 149.719C117.411 149.641 117.261 149.611 117.071 149.628C116.883 149.641 116.663 149.683 116.413 149.753L115.616 149.974C115.04 150.134 114.58 150.138 114.236 149.986C113.895 149.83 113.714 149.466 113.694 148.893C113.678 148.422 113.774 147.946 113.983 147.464C114.193 146.981 114.487 146.532 114.864 146.115C115.24 145.696 115.671 145.346 116.156 145.066C116.647 144.783 117.082 144.633 117.458 144.617C117.837 144.597 118.139 144.701 118.363 144.927C118.587 145.151 118.71 145.486 118.733 145.932L117.525 146.63ZM122.399 149.849C121.878 150.15 121.424 150.285 121.037 150.254C120.651 150.219 120.349 150.029 120.13 149.686C119.911 149.34 119.79 148.853 119.768 148.226C119.747 147.609 119.829 147.009 120.016 146.426C120.205 145.839 120.478 145.309 120.837 144.837C121.195 144.362 121.623 143.981 122.119 143.695C122.439 143.51 122.743 143.395 123.032 143.351C123.322 143.303 123.581 143.339 123.809 143.46C124.038 143.579 124.223 143.794 124.363 144.104C124.502 144.411 124.581 144.827 124.599 145.353L124.615 145.786L120.356 148.245L120.322 147.293L123.407 145.511C123.396 145.242 123.337 145.031 123.23 144.877C123.123 144.721 122.979 144.633 122.796 144.614C122.616 144.593 122.409 144.65 122.174 144.786C121.924 144.93 121.706 145.128 121.522 145.377C121.337 145.625 121.196 145.892 121.098 146.18C121.002 146.464 120.958 146.74 120.965 147.009L120.994 147.841C121.006 148.19 121.072 148.457 121.191 148.643C121.31 148.827 121.471 148.927 121.674 148.946C121.877 148.961 122.112 148.892 122.378 148.738C122.556 148.636 122.716 148.514 122.859 148.373C123.001 148.23 123.123 148.071 123.225 147.895C123.327 147.719 123.402 147.531 123.45 147.331L124.599 146.819C124.539 147.209 124.412 147.593 124.218 147.971C124.026 148.344 123.776 148.693 123.468 149.017C123.159 149.339 122.803 149.616 122.399 149.849ZM128.127 140.305L128.165 141.399L125.178 143.123L125.14 142.03L128.127 140.305ZM125.827 140.168L127.052 139.461L127.249 145.09C127.255 145.28 127.285 145.411 127.338 145.484C127.394 145.553 127.464 145.582 127.548 145.57C127.633 145.558 127.726 145.523 127.828 145.465C127.904 145.42 127.974 145.373 128.037 145.324C128.102 145.273 128.151 145.233 128.184 145.203L128.429 146.189C128.365 146.252 128.272 146.335 128.151 146.437C128.033 146.537 127.887 146.64 127.714 146.745C127.407 146.933 127.129 147.039 126.879 147.064C126.629 147.086 126.428 147.014 126.275 146.847C126.124 146.679 126.043 146.407 126.032 146.031L125.827 140.168ZM132.669 135.644L132.948 143.639L131.724 144.346L131.444 136.351L132.669 135.644ZM134.208 142.912L133.998 136.916L135.223 136.209L135.432 142.205L134.208 142.912ZM134.584 135.709C134.39 135.821 134.221 135.843 134.076 135.776C133.931 135.706 133.854 135.565 133.847 135.354C133.84 135.141 133.903 134.92 134.038 134.691C134.172 134.459 134.337 134.287 134.531 134.175C134.727 134.062 134.896 134.041 135.039 134.112C135.184 134.18 135.26 134.321 135.268 134.534C135.275 134.745 135.212 134.966 135.077 135.198C134.945 135.425 134.78 135.596 134.584 135.709ZM136.691 141.478L136.482 135.482L137.653 134.806L137.688 135.825L137.749 135.79C137.845 135.384 138.015 135.012 138.259 134.675C138.502 134.335 138.798 134.065 139.145 133.865C139.497 133.661 139.797 133.589 140.045 133.648C140.296 133.702 140.476 133.87 140.587 134.151L140.641 134.12C140.745 133.72 140.93 133.343 141.195 132.987C141.464 132.628 141.786 132.34 142.163 132.122C142.641 131.846 143.037 131.795 143.351 131.97C143.666 132.144 143.835 132.566 143.858 133.234L143.999 137.259L142.771 137.968L142.638 134.162C142.625 133.79 142.529 133.567 142.352 133.495C142.175 133.419 141.962 133.453 141.714 133.596C141.418 133.767 141.191 134.007 141.031 134.317C140.874 134.623 140.801 134.945 140.813 135.283L140.944 139.023L139.743 139.716L139.608 135.851C139.597 135.542 139.507 135.341 139.338 135.25C139.172 135.158 138.959 135.187 138.7 135.336C138.524 135.438 138.365 135.583 138.225 135.77C138.084 135.955 137.974 136.166 137.895 136.403C137.815 136.637 137.78 136.878 137.789 137.125L137.916 140.771L136.691 141.478ZM145.241 136.542L145.032 130.546L146.256 129.839L146.466 135.835L145.241 136.542ZM145.618 129.339C145.424 129.451 145.254 129.473 145.109 129.406C144.964 129.335 144.888 129.195 144.88 128.984C144.873 128.771 144.937 128.549 145.071 128.32C145.206 128.089 145.37 127.917 145.564 127.805C145.76 127.692 145.93 127.671 146.073 127.742C146.218 127.81 146.294 127.95 146.301 128.164C146.309 128.375 146.245 128.596 146.11 128.828C145.978 129.055 145.814 129.226 145.618 129.339ZM150.11 127.614L150.148 128.707L147.161 130.431L147.123 129.338L150.11 127.614ZM147.81 127.476L149.035 126.769L149.232 132.398C149.238 132.588 149.268 132.719 149.321 132.792C149.377 132.861 149.447 132.89 149.531 132.878C149.616 132.866 149.709 132.831 149.811 132.773C149.887 132.728 149.957 132.682 150.02 132.632C150.085 132.581 150.134 132.541 150.167 132.511L150.412 133.497C150.348 133.56 150.255 133.643 150.134 133.745C150.016 133.845 149.87 133.948 149.697 134.053C149.39 134.241 149.112 134.347 148.862 134.372C148.612 134.394 148.411 134.322 148.258 134.155C148.107 133.987 148.026 133.715 148.015 133.339L147.81 127.476Z" fill="#CE6F1D"/>
<path d="M112.26 167.886C111.75 168.18 111.311 168.271 110.941 168.157C110.571 168.042 110.281 167.733 110.07 167.231C109.859 166.726 109.738 166.039 109.708 165.169C109.678 164.305 109.747 163.513 109.915 162.792C110.085 162.067 110.344 161.44 110.691 160.91C111.041 160.376 111.468 159.964 111.973 159.672C112.478 159.38 112.916 159.294 113.286 159.412C113.658 159.526 113.949 159.836 114.16 160.341C114.373 160.842 114.495 161.524 114.525 162.388C114.556 163.257 114.487 164.054 114.319 164.777C114.151 165.498 113.893 166.124 113.546 166.654C113.198 167.181 112.77 167.591 112.26 167.886ZM112.23 167.027C112.735 166.735 113.118 166.228 113.378 165.504C113.638 164.78 113.75 163.898 113.713 162.857C113.689 162.165 113.604 161.612 113.459 161.2C113.315 160.786 113.12 160.521 112.872 160.404C112.626 160.285 112.336 160.322 112.003 160.515C111.502 160.804 111.121 161.315 110.859 162.048C110.596 162.778 110.484 163.662 110.52 164.701C110.544 165.393 110.628 165.945 110.771 166.356C110.914 166.767 111.108 167.03 111.354 167.146C111.602 167.261 111.894 167.221 112.23 167.027Z" fill="#CE6F1D"/>
<path d="M218.153 103.18L218.432 111.175L217.593 111.659L217.349 104.679L217.309 104.703L215.663 106.975L215.628 105.991L217.314 103.664L218.153 103.18ZM222.688 108.829C222.179 109.123 221.739 109.214 221.369 109.101C220.999 108.985 220.709 108.676 220.498 108.174C220.287 107.669 220.167 106.982 220.136 106.113C220.106 105.249 220.175 104.456 220.343 103.735C220.513 103.01 220.772 102.383 221.119 101.853C221.469 101.32 221.896 100.907 222.401 100.615C222.907 100.324 223.344 100.237 223.714 100.355C224.086 100.47 224.378 100.779 224.589 101.284C224.802 101.785 224.923 102.467 224.953 103.332C224.984 104.201 224.915 104.997 224.747 105.721C224.579 106.442 224.321 107.067 223.974 107.597C223.626 108.124 223.198 108.535 222.688 108.829ZM222.658 107.97C223.163 107.679 223.546 107.171 223.806 106.447C224.066 105.724 224.178 104.841 224.142 103.8C224.117 103.108 224.032 102.556 223.887 102.143C223.744 101.729 223.548 101.464 223.3 101.347C223.054 101.229 222.765 101.266 222.431 101.459C221.93 101.748 221.549 102.258 221.287 102.991C221.025 103.721 220.912 104.606 220.948 105.644C220.972 106.336 221.056 106.888 221.199 107.299C221.342 107.71 221.537 107.974 221.782 108.09C222.03 108.204 222.322 108.164 222.658 107.97ZM227.303 104.938L227.263 105.391C227.235 105.71 227.188 106.061 227.121 106.445C227.056 106.828 226.987 107.193 226.914 107.54C226.841 107.888 226.78 108.166 226.733 108.374L226.124 108.725C226.147 108.542 226.178 108.3 226.216 107.999C226.253 107.699 226.29 107.365 226.326 107C226.364 106.635 226.392 106.268 226.411 105.899L226.437 105.438L227.303 104.938ZM230.828 104.129C230.319 104.424 229.879 104.514 229.509 104.401C229.139 104.285 228.849 103.976 228.638 103.474C228.427 102.969 228.307 102.282 228.276 101.413C228.246 100.549 228.315 99.7565 228.483 99.0355C228.653 98.3106 228.912 97.6833 229.26 97.1536C229.609 96.6199 230.036 96.2073 230.542 95.9156C231.047 95.6239 231.484 95.5372 231.854 95.6555C232.226 95.7699 232.518 96.0795 232.729 96.5844C232.942 97.0853 233.063 97.7678 233.094 98.6318C233.124 99.5011 233.055 100.298 232.887 101.021C232.719 101.742 232.461 102.367 232.114 102.897C231.767 103.424 231.338 103.835 230.828 104.129ZM230.798 103.27C231.304 102.979 231.686 102.471 231.946 101.748C232.206 101.024 232.318 100.142 232.282 99.1006C232.257 98.4083 232.173 97.8559 232.027 97.4435C231.884 97.0297 231.688 96.7643 231.44 96.6473C231.194 96.5289 230.905 96.5661 230.571 96.7588C230.07 97.0479 229.689 97.5588 229.427 98.2915C229.165 99.0216 229.052 99.9059 229.088 100.944C229.112 101.637 229.196 102.188 229.339 102.6C229.482 103.011 229.677 103.274 229.922 103.39C230.17 103.504 230.462 103.464 230.798 103.27ZM236.782 100.692C236.273 100.986 235.833 101.077 235.463 100.964C235.093 100.848 234.803 100.539 234.592 100.037C234.381 99.5319 234.261 98.8449 234.23 97.9756C234.2 97.1115 234.269 96.319 234.437 95.598C234.607 94.8731 234.866 94.2458 235.213 93.7161C235.563 93.1824 235.99 92.7698 236.495 92.4781C237.001 92.1864 237.438 92.0997 237.808 92.218C238.18 92.3324 238.472 92.642 238.683 93.1469C238.896 93.6478 239.017 94.3303 239.047 95.1943C239.078 96.0636 239.009 96.86 238.841 97.5836C238.673 98.3046 238.415 98.93 238.068 99.4597C237.721 99.9869 237.292 100.398 236.782 100.692ZM236.752 99.833C237.257 99.5413 237.64 99.0337 237.9 98.3101C238.16 97.5864 238.272 96.7041 238.236 95.6631C238.211 94.9708 238.127 94.4184 237.981 94.006C237.838 93.5922 237.642 93.3268 237.394 93.2098C237.148 93.0914 236.859 93.1286 236.525 93.3213C236.024 93.6104 235.643 94.1213 235.381 94.854C235.119 95.5841 235.006 96.4684 235.042 97.5068C235.066 98.1991 235.15 98.7509 235.293 99.162C235.436 99.5732 235.631 99.8366 235.876 99.9524C236.124 100.067 236.416 100.027 236.752 99.833ZM242.736 97.2543C242.226 97.5486 241.787 97.6392 241.417 97.5261C241.047 97.4104 240.757 97.1015 240.546 96.5992C240.335 96.0944 240.214 95.4074 240.184 94.5381C240.154 93.674 240.223 92.8815 240.391 92.1605C240.561 91.4356 240.82 90.8083 241.167 90.2786C241.517 89.7449 241.944 89.3323 242.449 89.0406C242.955 88.7489 243.392 88.6622 243.762 88.7805C244.134 88.8949 244.426 89.2045 244.637 89.7094C244.85 90.2103 244.971 90.8928 245.001 91.7568C245.032 92.6261 244.963 93.4225 244.795 94.1461C244.627 94.8671 244.369 95.4925 244.022 96.0222C243.674 96.5494 243.246 96.9601 242.736 97.2543ZM242.706 96.3955C243.211 96.1038 243.594 95.5962 243.854 94.8726C244.114 94.1489 244.226 93.2666 244.19 92.2256C244.165 91.5333 244.08 90.9809 243.935 90.5685C243.792 90.1547 243.596 89.8893 243.348 89.7723C243.102 89.6539 242.813 89.6911 242.479 89.8838C241.978 90.1729 241.597 90.6838 241.335 91.4165C241.073 92.1466 240.96 93.0309 240.996 94.0693C241.02 94.7616 241.104 95.3134 241.247 95.7245C241.39 96.1357 241.585 96.3991 241.83 96.5149C242.078 96.6293 242.37 96.5895 242.706 96.3955Z" fill="#CE6F1D"/>
<path d="M112 180.5L244 104.5" stroke="#CE6F1D" stroke-width="3" stroke-linecap="round"/>
<path d="M143.72 219.423L143.427 219.254C143.181 219.093 142.976 218.876 142.829 218.621C142.682 218.366 142.597 218.08 142.58 217.786V200.061C142.597 199.767 142.682 199.482 142.829 199.228C142.976 198.973 143.181 198.757 143.427 198.597L201.169 165.214C201.431 165.081 201.721 165.012 202.014 165.012C202.308 165.012 202.598 165.081 202.86 165.214L203.153 165.383C203.399 165.543 203.605 165.759 203.752 166.013C203.899 166.268 203.984 166.554 204 166.847V184.588C203.984 184.882 203.899 185.169 203.752 185.424C203.605 185.679 203.399 185.895 203.153 186.056L145.415 219.423C145.152 219.556 144.862 219.626 144.568 219.626C144.273 219.626 143.983 219.556 143.72 219.423Z" fill="#EBEBEB"/>
<path d="M163.525 196.63C163.482 196.307 163.339 196.118 163.098 196.064C162.859 196.008 162.554 196.087 162.182 196.302C161.92 196.453 161.697 196.628 161.513 196.827C161.329 197.027 161.19 197.233 161.097 197.446C161.003 197.66 160.958 197.867 160.963 198.069C160.969 198.236 161.007 198.361 161.076 198.446C161.148 198.529 161.243 198.58 161.361 198.6C161.479 198.617 161.609 198.613 161.751 198.59C161.893 198.566 162.035 198.533 162.179 198.49L162.835 198.303C163.099 198.222 163.354 198.172 163.599 198.152C163.847 198.131 164.07 198.156 164.268 198.228C164.468 198.298 164.629 198.429 164.751 198.622C164.873 198.815 164.94 199.084 164.952 199.43C164.968 199.899 164.879 200.371 164.684 200.847C164.489 201.321 164.198 201.771 163.813 202.198C163.43 202.621 162.961 202.993 162.406 203.313C161.867 203.625 161.396 203.798 160.992 203.835C160.59 203.87 160.272 203.768 160.035 203.527C159.802 203.285 159.666 202.904 159.63 202.383L160.864 201.67C160.892 201.938 160.975 202.127 161.112 202.236C161.249 202.346 161.424 202.385 161.637 202.355C161.852 202.324 162.091 202.233 162.352 202.082C162.625 201.924 162.863 201.739 163.065 201.527C163.269 201.311 163.427 201.085 163.538 200.848C163.649 200.608 163.702 200.373 163.696 200.143C163.687 199.936 163.628 199.795 163.519 199.719C163.411 199.641 163.261 199.611 163.071 199.628C162.883 199.641 162.663 199.683 162.413 199.753L161.616 199.974C161.04 200.134 160.58 200.138 160.236 199.986C159.895 199.83 159.714 199.466 159.694 198.893C159.678 198.422 159.774 197.946 159.983 197.464C160.193 196.981 160.487 196.532 160.864 196.115C161.24 195.696 161.671 195.346 162.156 195.066C162.647 194.783 163.082 194.633 163.458 194.617C163.837 194.597 164.139 194.701 164.363 194.927C164.587 195.151 164.71 195.486 164.733 195.932L163.525 196.63ZM169.319 196.626L169.197 193.152L170.422 192.445L170.631 198.441L169.444 199.126L169.407 198.061L169.353 198.092C169.247 198.495 169.064 198.881 168.803 199.25C168.544 199.617 168.22 199.913 167.83 200.138C167.489 200.335 167.185 200.421 166.917 200.398C166.652 200.371 166.44 200.232 166.282 199.981C166.123 199.727 166.036 199.361 166.019 198.882L165.886 195.064L167.11 194.357L167.236 197.956C167.249 198.336 167.35 198.586 167.538 198.706C167.726 198.825 167.967 198.8 168.26 198.631C168.441 198.527 168.614 198.375 168.779 198.176C168.945 197.977 169.078 197.746 169.18 197.483C169.283 197.216 169.329 196.931 169.319 196.626ZM171.945 197.683L171.666 189.687L172.89 188.98L172.995 191.971L173.045 191.942C173.103 191.759 173.187 191.553 173.296 191.323C173.406 191.09 173.556 190.858 173.748 190.628C173.94 190.395 174.189 190.19 174.493 190.014C174.895 189.783 175.261 189.692 175.591 189.743C175.924 189.789 176.194 189.988 176.399 190.34C176.607 190.687 176.722 191.194 176.746 191.86C176.769 192.519 176.695 193.132 176.523 193.701C176.352 194.27 176.11 194.768 175.796 195.196C175.482 195.625 175.121 195.957 174.712 196.192C174.415 196.364 174.166 196.45 173.965 196.448C173.765 196.447 173.603 196.4 173.477 196.308C173.354 196.212 173.258 196.11 173.187 196.002L173.116 196.043L173.149 196.987L171.945 197.683ZM173.041 193.991C173.055 194.379 173.114 194.691 173.219 194.928C173.326 195.163 173.473 195.311 173.659 195.371C173.847 195.427 174.071 195.38 174.33 195.23C174.601 195.074 174.825 194.86 175.001 194.588C175.178 194.313 175.308 194.003 175.39 193.658C175.474 193.31 175.51 192.948 175.497 192.573C175.484 192.201 175.426 191.897 175.324 191.662C175.221 191.426 175.076 191.279 174.887 191.221C174.699 191.162 174.468 191.212 174.195 191.369C173.934 191.52 173.714 191.728 173.537 191.992C173.36 192.256 173.229 192.559 173.144 192.9C173.062 193.24 173.028 193.603 173.041 193.991ZM177.891 194.25L177.682 188.253L178.852 187.577L178.888 188.596L178.949 188.561C179.045 188.155 179.215 187.784 179.458 187.446C179.702 187.107 179.997 186.837 180.345 186.636C180.697 186.433 180.997 186.361 181.245 186.419C181.495 186.474 181.676 186.641 181.787 186.922L181.841 186.891C181.944 186.492 182.129 186.114 182.395 185.759C182.663 185.4 182.986 185.111 183.362 184.894C183.84 184.618 184.237 184.567 184.551 184.741C184.865 184.915 185.034 185.337 185.058 186.006L185.198 190.031L183.97 190.74L183.837 186.933C183.824 186.561 183.729 186.339 183.552 186.266C183.374 186.191 183.161 186.225 182.913 186.368C182.618 186.538 182.39 186.778 182.231 187.088C182.074 187.394 182.001 187.716 182.013 188.055L182.143 191.794L180.943 192.488L180.808 188.623C180.797 188.313 180.707 188.113 180.538 188.022C180.372 187.93 180.159 187.958 179.899 188.108C179.723 188.21 179.565 188.354 179.424 188.541C179.283 188.726 179.173 188.937 179.094 189.174C179.015 189.408 178.98 189.649 178.988 189.896L179.116 193.542L177.891 194.25ZM186.441 189.313L186.231 183.317L187.456 182.61L187.665 188.606L186.441 189.313ZM186.817 182.111C186.623 182.223 186.454 182.245 186.309 182.177C186.164 182.107 186.087 181.966 186.08 181.756C186.073 181.542 186.136 181.321 186.271 181.092C186.405 180.86 186.57 180.688 186.764 180.576C186.96 180.463 187.129 180.442 187.272 180.514C187.417 180.581 187.493 180.722 187.501 180.935C187.508 181.146 187.445 181.367 187.31 181.599C187.178 181.827 187.013 181.997 186.817 182.111ZM191.31 180.385L191.348 181.478L188.361 183.203L188.323 182.11L191.31 180.385ZM189.01 180.247L190.235 179.54L190.431 185.17C190.438 185.36 190.468 185.491 190.521 185.564C190.576 185.633 190.646 185.661 190.731 185.65C190.816 185.638 190.909 185.603 191.01 185.544C191.087 185.5 191.157 185.453 191.219 185.404C191.284 185.353 191.333 185.312 191.367 185.282L191.612 186.268C191.547 186.332 191.455 186.415 191.334 186.516C191.216 186.616 191.07 186.719 190.896 186.825C190.59 187.012 190.312 187.118 190.062 187.143C189.812 187.165 189.61 187.093 189.457 186.927C189.306 186.759 189.226 186.487 189.215 186.111L189.01 180.247Z" fill="#CE6F1D"/>
<path d="M203.992 166.712C203.934 166.273 203.58 166.115 203.152 166.358L145.411 199.729C145.161 199.884 144.955 200.1 144.814 200.357L142.83 199.202C142.972 198.942 143.179 198.725 143.431 198.57L201.169 165.202C201.431 165.069 201.72 165 202.014 165C202.308 165 202.597 165.069 202.859 165.202L203.152 165.372C203.381 165.521 203.574 165.719 203.719 165.95C203.864 166.181 203.957 166.441 203.992 166.712Z" fill="#FAFAFA"/>
<path d="M145.269 219.489C145.022 219.588 144.757 219.633 144.491 219.622C144.226 219.61 143.965 219.543 143.728 219.423L143.428 219.254C143.181 219.092 142.976 218.873 142.829 218.617C142.683 218.361 142.599 218.073 142.584 217.778V200.06C142.592 199.765 142.677 199.477 142.83 199.225L144.814 200.38C144.663 200.634 144.577 200.921 144.564 201.216V218.934C144.564 219.419 144.872 219.643 145.269 219.489Z" fill="#E0E0E0"/>
<path d="M244.355 191.997L240.005 189.487C238.115 188.407 235.805 189.487 234.585 190.227L231.835 188.697C228.545 186.697 223.965 190.867 222.945 191.857L221.765 191.187C218.275 189.087 211.925 194.717 211.925 194.717V173.697L214.685 172.367L210.295 169.827C209.666 169.548 208.974 169.439 208.29 169.511C207.606 169.583 206.952 169.833 206.395 170.237C204.77 171.295 203.418 172.721 202.449 174.399C201.479 176.078 200.919 177.961 200.815 179.897V228.467C196.815 225.467 192.535 223.667 188.815 224.337C185.851 225.03 183.259 226.815 181.555 229.337C179.715 232.597 182.755 234.637 186.675 239.117C190.595 243.597 193.995 248.917 197.535 252.217C199.282 253.987 201.357 255.4 203.645 256.377V262.697L207.945 265.187L236.425 243.777V237.447C236.425 237.447 240.485 221.227 241.785 214.447C243.035 207.927 244.185 197.517 242.035 192.117L244.365 191.957L244.355 191.997Z" fill="#242A42"/>
<path opacity="0.4" d="M244.355 191.997L240.005 189.487C238.115 188.407 235.805 189.487 234.585 190.227L231.835 188.697C228.545 186.697 223.965 190.867 222.945 191.857L221.765 191.187C218.275 189.087 211.925 194.717 211.925 194.717V173.697L214.685 172.367L210.295 169.827C209.666 169.548 208.974 169.439 208.29 169.511C207.606 169.583 206.952 169.833 206.395 170.237C204.77 171.295 203.418 172.721 202.449 174.399C201.479 176.078 200.919 177.961 200.815 179.897V228.467C196.815 225.467 192.535 223.667 188.815 224.337C185.851 225.03 183.259 226.815 181.555 229.337C179.715 232.597 182.755 234.637 186.675 239.117C190.595 243.597 193.995 248.917 197.535 252.217C199.282 253.987 201.357 255.4 203.645 256.377V262.697L207.945 265.187L236.425 243.777V237.447C236.425 237.447 240.485 221.227 241.785 214.447C243.035 207.927 244.185 197.517 242.035 192.117L244.365 191.957L244.355 191.997Z" fill="white"/>
<path d="M212.244 247.817L190.704 235.387L181.274 229.937C180.074 232.877 182.984 234.937 186.664 239.147C190.554 243.597 193.984 248.947 197.524 252.247C199.271 254.017 201.347 255.43 203.634 256.407V262.697L207.934 265.187L214.224 260.457C213.414 255.117 212.244 247.817 212.244 247.817Z" fill="#242A42"/>
<path d="M205.124 182.407L200.824 179.917V230.867L205.124 230.977V182.407Z" fill="#242A42"/>
<path d="M238.914 195.267L242.254 192.807C242.174 192.587 242.114 192.367 242.024 192.157L243.244 192.077L240.564 191.957L236.094 189.487C235.572 189.697 235.067 189.948 234.584 190.237L235.984 191.047L238.914 195.267Z" fill="#242A42"/>
<path d="M227.084 194.537L230.214 192.157L225.894 189.537C224.852 190.207 223.877 190.977 222.984 191.837L225.984 193.577L227.084 194.537Z" fill="#242A42"/>
<path d="M220.544 194.307L216.264 191.807L216.284 191.767V197.177L221.264 195.357L220.544 194.307Z" fill="#242A42"/>
<g opacity="0.15">
<path d="M212.244 247.817L190.704 235.387L181.274 229.937C180.074 232.877 182.984 234.937 186.664 239.147C190.554 243.597 193.984 248.947 197.524 252.247C199.271 254.017 201.347 255.43 203.634 256.407V262.697L207.934 265.187L214.224 260.457C213.414 255.117 212.244 247.817 212.244 247.817Z" fill="black"/>
<path d="M205.124 182.407L200.824 179.917V230.867L205.124 230.977V182.407Z" fill="black"/>
<path d="M238.914 195.267L242.254 192.807C242.174 192.587 242.114 192.367 242.024 192.157L243.244 192.077L240.564 191.957L236.094 189.487C235.572 189.697 235.067 189.948 234.584 190.237L235.984 191.047L238.914 195.267Z" fill="black"/>
<path d="M227.084 194.537L230.214 192.157L225.894 189.537C224.852 190.207 223.877 190.977 222.984 191.837L225.984 193.577L227.084 194.537Z" fill="black"/>
<path d="M220.544 194.307L216.264 191.807L216.284 191.767V197.177L221.264 195.357L220.544 194.307Z" fill="black"/>
</g>
<path d="M207.933 265.227V258.897C205.647 257.907 203.575 256.48 201.833 254.697C198.293 251.397 194.833 246.037 190.973 241.597C187.113 237.157 183.973 235.067 185.853 231.817C187.557 229.296 190.15 227.51 193.113 226.817C196.853 226.147 201.113 227.977 205.113 230.947V182.407C205.217 180.473 205.775 178.59 206.743 176.911C207.711 175.233 209.061 173.806 210.683 172.747C213.763 170.967 216.263 172.407 216.263 175.967V197.177C216.263 197.177 223.953 190.357 227.053 194.537C227.053 194.537 234.613 186.627 238.053 193.307C238.053 193.307 243.593 188.837 246.053 194.027C248.513 199.217 247.353 210.197 246.053 216.977C244.753 223.757 240.683 239.977 240.683 239.977V246.307L207.933 265.227Z" fill="#242A42"/>
<path d="M216.284 206.287C216.284 206.287 216.984 196.607 220.544 194.287H220.414C218.941 195.081 217.556 196.03 216.284 197.117V196.937C216.271 196.965 216.264 196.996 216.264 197.027C216.264 197.058 216.271 197.089 216.284 197.117V206.287Z" fill="#455A64"/>
<path d="M227.084 194.537V203.397C227.084 203.397 228.084 194.287 230.084 192.087C228.997 192.791 227.991 193.613 227.084 194.537Z" fill="#455A64"/>
<path d="M238.045 193.307V202.197C238.045 202.197 238.585 193.247 240.515 191.927C239.629 192.264 238.796 192.729 238.045 193.307Z" fill="#455A64"/>
<path d="M206.373 164.137C205.673 164.537 205.113 164.307 205.113 163.607V156.607C205.15 156.198 205.284 155.803 205.503 155.455C205.722 155.108 206.02 154.817 206.373 154.607C207.063 154.207 207.623 154.447 207.623 155.137V162.137C207.588 162.545 207.456 162.94 207.239 163.287C207.022 163.635 206.725 163.926 206.373 164.137Z" fill="#EBEBEB"/>
<path d="M195.834 175.227C195.344 176.067 194.554 176.527 194.064 176.227L189.994 173.877C189.504 173.597 189.504 172.677 189.994 171.877C190.484 171.027 191.274 170.567 191.764 170.877L195.834 173.227C196.364 173.457 196.364 174.377 195.834 175.227Z" fill="#EBEBEB"/>
<path d="M191.524 189.757V189.957C191.481 190.391 191.336 190.81 191.102 191.178C190.867 191.546 190.549 191.854 190.174 192.077L184.614 195.287C183.874 195.717 183.264 195.467 183.264 194.717V194.517C183.309 194.083 183.454 193.665 183.688 193.297C183.923 192.929 184.24 192.621 184.614 192.397L190.174 189.187C190.924 188.757 191.524 189.007 191.524 189.757Z" fill="#EBEBEB"/>
<path d="M221.215 172.817V172.617C221.256 172.181 221.4 171.76 221.634 171.39C221.869 171.02 222.188 170.711 222.565 170.487L228.125 167.277C228.865 166.847 229.475 167.107 229.475 167.847V168.047C229.43 168.481 229.284 168.899 229.05 169.267C228.816 169.634 228.499 169.943 228.125 170.167L222.565 173.377C221.835 173.807 221.215 173.557 221.215 172.817Z" fill="#EBEBEB"/>
<path d="M216.834 163.097C216.344 162.817 216.344 161.907 216.834 161.097L220.904 154.097C221.394 153.247 222.184 152.787 222.674 153.097C223.164 153.387 223.164 154.297 222.674 155.147L218.604 162.147C218.154 162.927 217.354 163.387 216.834 163.097Z" fill="#EBEBEB"/>
<path d="M394.219 315.22V314.08C393.769 315.41 391.689 321.16 388.539 324.08C386.029 326.37 382.599 329.01 381.729 331.56C380.859 334.11 386.499 335.11 388.839 334.7C391.569 334.21 395.089 332.7 397.009 330.31C398.359 328.65 399.219 326.69 400.179 325.38C401.139 324.07 403.359 322.63 403.889 321.12C404.169 320.29 403.829 318.47 403.429 316.94C403.029 315.41 402.659 313.99 402.179 314.12V315C401.039 315.892 399.626 316.365 398.179 316.34C396.999 316.34 394.209 316.1 394.219 315.22Z" fill="#263238"/>
<path d="M386.26 326.05C387.04 325.36 387.83 324.68 388.54 324.05C390.74 322.05 392.42 318.63 393.39 316.3C393.938 314.971 394.22 313.548 394.22 312.11V307.58H402.22V314.96V315.16C401.84 316.81 398.22 321.16 396.11 324.08C394.72 326 392.11 328.44 388.92 328.87C385.85 329.27 384.32 328.32 386.26 326.05Z" fill="#FFA8A7"/>
<path d="M363.19 307.37V306.23C362.74 307.57 360.65 313.32 357.5 316.23C354.99 318.52 351.56 321.17 350.69 323.72C349.82 326.27 355.46 327.27 357.8 326.85C360.53 326.37 364.05 324.85 365.97 322.47C367.32 320.81 368.18 318.84 369.14 317.54C370.1 316.24 372.33 314.78 372.85 313.27C373.13 312.44 372.79 310.63 372.39 309.1C371.99 307.57 371.62 306.1 371.14 306.27V307.14C370.002 308.038 368.589 308.515 367.14 308.49C366 308.49 363.18 308.26 363.19 307.37Z" fill="#263238"/>
<path d="M355.229 318.21C355.999 317.51 356.789 316.84 357.499 316.21C359.699 314.21 361.379 310.78 362.349 308.45C362.901 307.126 363.186 305.705 363.189 304.27V299.73H371.139V307.11V307.31C370.759 308.97 367.139 313.36 365.029 316.23C363.639 318.15 361.029 320.6 357.839 321.02C354.809 321.42 353.279 320.48 355.229 318.21Z" fill="#FFA8A7"/>
<path d="M400.6 191.55C406.77 205.02 400.37 252.49 400.37 252.49C400.56 254.67 403.06 258.98 403.99 268.6C405.09 279.97 402.26 308.52 402.26 308.52C401.052 309.218 399.693 309.612 398.299 309.667C396.905 309.723 395.519 309.439 394.26 308.84C394.26 308.84 386.68 265.84 385.26 254.54C384 244.67 381.58 223 381.58 223L374.79 254.5C375.78 257.68 376.499 260.938 376.94 264.24C377.59 270.89 371.14 301.85 371.14 301.85C371.14 301.85 368.4 302.85 363.19 302.09C363.19 302.09 360.91 261 360.31 252.99C359.31 239.54 362.87 197.56 365.31 189.6L400.6 191.55Z" fill="#37474F"/>
<path d="M381.58 223L379.58 210.48C379.58 210.48 371.1 208.73 367.26 205.11C369.906 208.22 373.37 210.527 377.26 211.77L379.51 221.41L375.58 250.58L381.58 223Z" fill="#263238"/>
<path d="M376.55 144.37C374.614 144.204 372.669 144.534 370.896 145.328C369.124 146.122 367.583 147.355 366.42 148.91C363.24 153.07 351.05 168.91 351.05 168.91C351.05 168.91 333.05 159.91 332.2 158.85C331.35 157.79 331.82 155.63 332.06 154.45C332.3 153.27 332.71 150.62 332.97 149.88C333.43 148.59 331.52 148.94 330.39 150.15C329.26 151.36 328.77 153.72 328.2 154.15C327.63 154.58 323.37 149.64 321.29 147.27C319.21 144.9 318.29 143.27 316.86 144.22C315.86 144.92 316.5 146.33 317.99 148.36C318.683 149.221 319.325 150.123 319.91 151.06C320.08 151.42 319.54 151.71 319.32 151.91C318.92 152.27 318.2 152.91 318.15 153.42C318.16 153.728 318.14 154.036 318.09 154.34C317.9 155.02 317.09 155.34 316.83 156C316.66 156.47 316.83 157 316.75 157.51C316.69 157.83 316.51 158.12 316.45 158.45C316.429 158.772 316.478 159.093 316.594 159.394C316.71 159.694 316.889 159.966 317.12 160.19C318.57 161.93 320.56 162.59 322.47 163.65C324.06 164.53 325.7 164.91 327.53 165.72C329.36 166.53 350.58 181.25 353.94 179.39C357.3 177.53 374.64 157.39 374.64 157.39C379.64 149.08 376.55 144.37 376.55 144.37Z" fill="#FFA8A7"/>
<path d="M389.72 144.74C397.62 145.29 398.18 149.11 400.16 153.28C401.61 156.502 401.742 160.162 400.53 163.48L395 179.42C395 179.42 397.58 185.66 400.58 191.55C386.75 199.27 369.48 195.21 365.32 189.55C365.14 188.35 366.21 179.01 366.87 172.91C364.43 166.8 363.79 162.91 364.82 158.91C366.73 151.41 374.13 144.11 377.41 144.37L389.72 144.74Z" fill="#242A42"/>
<path d="M382.11 138.19H385.18C387.305 138.19 389.41 137.771 391.373 136.957C393.336 136.143 395.119 134.95 396.621 133.447C398.123 131.943 399.313 130.158 400.125 128.194C400.936 126.23 401.353 124.125 401.35 122C401.347 117.689 399.633 113.556 396.584 110.509C393.535 107.462 389.401 105.75 385.09 105.75H382.2C377.899 105.763 373.779 107.481 370.742 110.527C367.705 113.573 366 117.699 366 122C365.992 126.282 367.684 130.393 370.705 133.429C373.726 136.464 377.828 138.177 382.11 138.19Z" fill="#263238"/>
<path d="M409.999 146.71C407.467 146.708 405.04 145.701 403.249 143.91C401.459 142.12 400.452 139.692 400.449 137.16V116.7C401.704 116.7 402.947 116.948 404.106 117.428C405.265 117.909 406.319 118.613 407.206 119.501C408.093 120.389 408.796 121.443 409.275 122.603C409.754 123.762 410.001 125.005 409.999 126.26V146.71Z" fill="#263238"/>
<path d="M402.199 113.08L399.809 116.92C400.053 117.09 400.329 117.209 400.62 117.27C400.911 117.331 401.212 117.332 401.503 117.273C401.795 117.214 402.072 117.096 402.317 116.927C402.562 116.759 402.77 116.542 402.929 116.29C403.241 115.763 403.34 115.137 403.204 114.539C403.069 113.942 402.708 113.42 402.199 113.08Z" fill="#263238"/>
<path d="M371.759 112.93C369.889 114.03 367.579 118.73 367.809 128.59C367.999 136.95 370.709 139.01 372.069 139.59C373.429 140.17 376.069 139.82 378.599 139.39V144.39C378.599 144.39 375.079 148.48 375.299 150.78C375.519 153.08 380.389 153.62 383.689 151.38C385.824 149.837 387.658 147.915 389.099 145.71V133.63C389.366 133.959 389.696 134.231 390.069 134.431C390.443 134.631 390.852 134.754 391.274 134.794C391.695 134.834 392.121 134.79 392.525 134.664C392.93 134.538 393.305 134.332 393.629 134.06C396.449 132.19 396.559 127.56 394.919 125.9C393.279 124.24 389.749 124.77 389.099 127.06C389.099 127.06 385.029 127.21 379.619 124.24C377.512 123.105 375.702 121.49 374.336 119.525C372.971 117.56 372.088 115.3 371.759 112.93Z" fill="#FFA8A7"/>
<path d="M378.069 126.49C378.06 126.696 378.112 126.902 378.219 127.079C378.325 127.256 378.482 127.398 378.67 127.487C378.857 127.576 379.066 127.607 379.271 127.577C379.476 127.547 379.667 127.456 379.821 127.318C379.975 127.179 380.084 126.998 380.136 126.797C380.187 126.597 380.178 126.385 380.109 126.19C380.041 125.995 379.916 125.824 379.75 125.699C379.585 125.575 379.386 125.502 379.179 125.49C378.902 125.483 378.632 125.584 378.426 125.769C378.22 125.955 378.092 126.213 378.069 126.49Z" fill="#263238"/>
<path d="M376.86 133.58L374.42 134.35C374.464 134.513 374.54 134.665 374.643 134.798C374.747 134.931 374.876 135.042 375.024 135.124C375.171 135.206 375.333 135.258 375.501 135.276C375.669 135.294 375.838 135.279 376 135.23C376.329 135.12 376.603 134.886 376.763 134.579C376.923 134.271 376.958 133.913 376.86 133.58Z" fill="#F28F8F"/>
<path d="M369.459 123.27L371.579 121.79C371.49 121.648 371.373 121.525 371.235 121.429C371.097 121.334 370.941 121.267 370.776 121.233C370.612 121.199 370.442 121.2 370.277 121.234C370.113 121.267 369.957 121.334 369.819 121.43C369.535 121.632 369.338 121.936 369.271 122.279C369.204 122.621 369.272 122.976 369.459 123.27Z" fill="#263238"/>
<path d="M369.999 125.73C369.988 125.871 370.006 126.012 370.05 126.146C370.095 126.28 370.166 126.404 370.259 126.51C370.352 126.616 370.466 126.703 370.593 126.765C370.72 126.826 370.858 126.862 370.999 126.87C371.216 126.887 371.432 126.84 371.622 126.734C371.811 126.628 371.964 126.467 372.062 126.273C372.159 126.079 372.197 125.861 372.169 125.645C372.142 125.43 372.05 125.228 371.907 125.065C371.764 124.901 371.576 124.785 371.366 124.729C371.156 124.674 370.934 124.683 370.729 124.754C370.524 124.826 370.345 124.957 370.215 125.13C370.085 125.304 370.01 125.513 369.999 125.73Z" fill="#263238"/>
<path d="M375.08 125.13L374.91 131.46L371.58 130.43L375.08 125.13Z" fill="#F28F8F"/>
<path d="M378.6 139.41C381.29 139.06 386.82 137.47 387.68 135.29C387.332 136.396 386.655 137.369 385.74 138.08C384.09 139.49 378.6 141.08 378.6 141.08V139.41Z" fill="#F28F8F"/>
<path opacity="0.1" d="M386.179 193.05C387.263 192.8 388.286 192.337 389.188 191.686C390.09 191.036 390.853 190.212 391.433 189.263C392.012 188.314 392.396 187.258 392.562 186.159C392.728 185.059 392.673 183.938 392.399 182.86C392.239 182.202 391.862 181.618 391.328 181.203C390.794 180.787 390.136 180.564 389.459 180.57C390.347 179.982 391.11 179.224 391.703 178.34C392.297 177.456 392.71 176.464 392.919 175.42L394.599 165.42C394.803 163.791 394.656 162.137 394.169 160.57L399.729 154.14L400.729 154.85C401.574 157.674 401.493 160.694 400.499 163.47L394.999 179.42C394.999 179.42 397.579 185.66 400.579 191.55C396.083 193.975 391.119 195.409 386.021 195.754C380.924 196.099 375.812 195.347 371.029 193.55C376.066 194.339 381.206 194.17 386.179 193.05Z" fill="black"/>
<path d="M414.75 184.43C407.57 155.08 402.26 145.29 393.54 145.43C390.99 148.43 391.7 157.67 395.72 163.25C395.72 163.25 404.72 182.18 406.13 188.91C407.38 194.82 408.81 202.26 408.72 207.34C408.692 208.242 408.336 209.102 407.72 209.76C406.08 211.54 406.08 212.97 405.01 214.93C404.18 216.47 403.27 217.05 403.53 217.39C403.873 217.756 404.341 217.979 404.841 218.017C405.341 218.054 405.837 217.901 406.23 217.59C406.986 217.019 407.659 216.346 408.23 215.59C407.947 217.474 407.402 219.308 406.61 221.04C404.77 225.19 405.22 227.31 410.82 225.83C414.33 224.9 416.54 221.98 417.07 213.53C417.323 210.423 417.354 207.302 417.16 204.19C416.45 196.19 415.91 189.15 414.75 184.43Z" fill="#FFA8A7"/>
<path d="M343.51 268.339C344.28 239.769 341.99 232.929 334.39 227.699L331.44 244.249C331.44 244.249 334.9 263.749 334.53 270.249C334.21 275.959 333.65 283.099 332.3 287.709C332.063 288.54 331.524 289.253 330.79 289.709C328.85 290.919 328.07 292.159 326.61 293.709C325.47 294.909 324.5 295.199 324.61 295.579C324.831 295.999 325.201 296.32 325.647 296.479C326.094 296.638 326.584 296.624 327.02 296.439C327.988 296.049 328.907 295.549 329.76 294.949C329.09 296.7 328.141 298.331 326.95 299.779C324.23 303.109 324.11 305.159 329.6 305.209C333.03 305.209 335.77 303.119 338.36 295.549C339.364 292.773 340.17 289.93 340.77 287.039C342.13 279.489 343.39 272.939 343.51 268.339Z" fill="#B16668"/>
<path d="M328 225.529C331.63 224.999 336.56 225.759 339.75 231.459C342.94 237.159 343.75 246.969 344.08 256.719C344.08 256.719 337.75 262.009 330.15 259.409L328 225.529Z" fill="#CE6F1D"/>
<path opacity="0.1" d="M328 225.529C331.63 224.999 336.56 225.759 339.75 231.459C342.94 237.159 343.75 246.969 344.08 256.719C344.08 256.719 337.75 262.009 330.15 259.409L328 225.529Z" fill="black"/>
<path d="M338.67 382.64C339.24 382.86 339.39 383.96 339.48 386.14C339.54 387.79 339.9 390.68 337.96 391.25C336.02 391.82 333.19 391.53 331.96 389.98C330.41 387.98 329.37 386.32 327.16 383.98C325.24 381.92 323.16 379.98 322.4 377.12C321.7 374.51 322.28 373.38 324.06 372.62C326.5 371.62 330.35 374.99 332.26 375.52C333.9 376 338.09 382.42 338.67 382.64Z" fill="#263238"/>
<path d="M338.671 380.619V383.299C337.665 383.943 336.501 384.3 335.306 384.332C334.112 384.364 332.931 384.069 331.891 383.479C331.781 383.219 331.191 379.649 331.191 379.649L338.671 380.619Z" fill="#B16668"/>
<path d="M317.001 398.09C317.468 399.525 317.862 400.984 318.181 402.46C318.511 404.08 318.981 406.79 318.421 408.01C317.861 409.23 315.641 410.01 312.201 410.01C309.981 410.01 306.521 411.5 304.151 412.82C301.781 414.14 296.601 414.73 294.011 414.43C290.961 414.07 287.801 412.3 287.301 411.03C286.801 409.76 287.461 408.46 294.661 405.39C294.731 405.39 304.661 402.13 308.141 398.29L317.001 398.09Z" fill="#263238"/>
<path d="M317.002 395.189C317.002 395.189 317.002 397.189 317.002 398.319C317.002 399.449 315.672 401.149 312.192 401.019C309.752 400.939 308.052 400.279 308.192 398.269V395.369L317.002 395.189Z" fill="#B16668"/>
<path d="M340.411 345.049C339.817 340.291 338.759 335.601 337.251 331.049C337.251 331.049 338.201 319.049 338.661 307.589C339.161 295.249 338.661 279.749 338.871 276.669C338.871 276.669 299.071 268.669 298.361 282.869C297.651 297.069 299.931 333.429 300.361 339.689C300.791 345.949 301.911 351.499 303.211 361.689C304.511 371.879 308.061 395.369 308.061 395.369C309.438 396.07 310.968 396.42 312.513 396.389C314.059 396.358 315.572 395.946 316.921 395.189C316.921 395.189 319.721 366.679 319.431 359.449C319.205 354.096 318.284 348.795 316.691 343.679C316.691 343.679 317.441 331.919 318.111 321.679C318.781 311.439 319.481 306.539 319.631 302.099L320.491 301.669C320.491 301.669 321.361 319.309 321.831 325.579C322.301 331.849 323.301 337.849 325.111 349.479C326.691 359.579 331.371 380.929 331.371 380.929C335.911 383.389 338.631 380.609 338.631 380.609C338.631 380.609 341.641 353.809 340.411 345.049Z" fill="#37474F"/>
<path d="M319.67 302.11C319.67 302.11 329.33 297.35 334.16 293.06C334.16 293.06 329.67 299.38 323.78 302.18C323.78 302.18 321.69 324.1 321.7 323.66L320.49 302.07L319.67 302.11Z" fill="#263238"/>
<path d="M311.08 221.01L313.44 233.97L325.14 233.12L322.69 218.42L311.08 221.01Z" fill="#B16668"/>
<path d="M337.51 232.17C336.35 228.65 331.88 224.81 327.41 225.64C320.762 226.769 314.21 228.404 307.81 230.53C303.71 232 299.98 235.53 299.64 249.01C299.64 249.01 298.27 280.43 298.25 286.5C308.53 290.57 319.25 290.45 325.14 289.16C337.46 286.47 338.94 281.36 338.94 281.36C338.94 281.36 339.1 258.77 338.73 249.01C338.42 240.72 338.31 234.59 337.51 232.17Z" fill="#CE6F1D"/>
<path d="M302.051 205.239C302.051 205.239 299.051 209.979 299.441 210.429C299.831 210.879 302.071 211.239 302.071 211.239L302.051 205.239Z" fill="#B16668"/>
<path d="M310.29 192.149C304.1 193.599 302.37 196.369 302 206.269C301.62 216.609 302.75 219.829 304.14 221.189C305.07 222.109 310.14 222.189 312.72 221.399C315.91 220.399 323.12 217.699 326.4 212.399C330.26 206.199 331.13 197.899 326.77 194.589C320.63 189.999 312.81 191.549 310.29 192.149Z" fill="#B16668"/>
<path d="M311.211 221.719C313.311 220.029 313.121 218.939 313.121 218.939C311.621 220.349 306.041 221.549 304.121 221.189C304.911 221.999 308.541 222.119 311.211 221.719Z" fill="#9A4A4D"/>
<path d="M302.07 194.72C303.89 197.83 307.83 199.32 307.83 199.32C309.02 200.67 308.36 205.95 310.45 206.78C310.45 206.78 311.35 202.94 314.58 203.35C317.81 203.76 318.36 207.88 316.37 210.43C314.38 212.98 312.47 212.07 312.47 212.07C312.47 212.07 312.69 217.52 315.18 220.56C315.18 220.56 317.95 221.39 322.98 220.19C326.08 219.46 330.39 215.47 332.14 211.32C335.86 202.52 335.95 194.68 330.34 192.46C329.65 188.46 326.45 186.73 322.83 185.98C315.04 184.38 310.02 189.24 304.02 188.82C300.58 188.58 299.94 191.07 302.07 194.72Z" fill="#263238"/>
<path d="M330.47 193.799L334.14 191.519C333.837 191.033 333.354 190.686 332.796 190.556C332.238 190.425 331.652 190.522 331.165 190.824C330.678 191.127 330.332 191.61 330.201 192.168C330.071 192.726 330.167 193.313 330.47 193.799Z" fill="#263238"/>
<path d="M308.131 230.479C308.131 230.479 302.311 231.56 299.271 236.16C296.231 240.76 283.071 257.26 283.071 257.26C283.071 257.26 264.151 247.79 263.221 246.66C262.291 245.53 262.811 243.27 263.071 242.02C263.331 240.77 263.751 238.019 264.071 237.219C264.551 235.849 262.541 236.22 261.351 237.49C260.161 238.76 259.641 241.249 259.051 241.679C258.461 242.109 253.951 236.929 251.771 234.429C249.591 231.929 248.561 230.18 247.091 231.21C246.041 231.96 246.721 233.439 248.281 235.579C249.015 236.477 249.683 237.426 250.281 238.419C250.471 238.799 249.891 239.109 249.671 239.309C249.241 239.689 248.491 240.31 248.431 240.91C248.463 241.242 248.463 241.577 248.431 241.91C248.221 242.62 247.341 242.909 247.091 243.649C246.911 244.159 247.091 244.719 247.011 245.249C246.941 245.589 246.761 245.889 246.691 246.249C246.671 246.589 246.725 246.929 246.847 247.246C246.97 247.563 247.158 247.851 247.401 248.089C248.931 249.919 251.031 250.619 253.041 251.729C254.711 252.659 256.441 253.059 258.371 253.919C260.301 254.779 282.981 271.539 286.521 269.589C290.061 267.639 308.201 246.439 308.201 246.439C309.733 244.057 310.542 241.282 310.53 238.449C310.518 235.617 309.684 232.848 308.131 230.479Z" fill="#B16668"/>
<path d="M310.16 229.8C307.66 230.08 304.16 229.62 299.25 234.88C295.309 239.394 291.636 244.135 288.25 249.08C288.895 251.677 290.276 254.034 292.227 255.866C294.179 257.698 296.617 258.929 299.25 259.41C299.25 259.41 307.83 250.62 310.25 245.77C312.67 240.92 313.1 233.06 310.16 229.8Z" fill="#CE6F1D"/>
<path opacity="0.1" d="M310.16 229.8C307.66 230.08 304.16 229.62 299.25 234.88C295.309 239.394 291.636 244.135 288.25 249.08C288.895 251.677 290.276 254.034 292.227 255.866C294.179 257.698 296.617 258.929 299.25 259.41C299.25 259.41 307.83 250.62 310.25 245.77C312.67 240.92 313.1 233.06 310.16 229.8Z" fill="black"/>
</svg>
