<svg xmlns="http://www.w3.org/2000/svg" width="42" height="42" viewBox="0 0 42 42" fill="none">
<g clip-path="url(#clip0_148_187)">
<path d="M30 13.5H12C11.6022 13.5 11.2206 13.658 10.9393 13.9393C10.658 14.2206 10.5 14.6022 10.5 15V27C10.5 27.3978 10.658 27.7794 10.9393 28.0607C11.2206 28.342 11.6022 28.5 12 28.5H30C30.3978 28.5 30.7794 28.342 31.0607 28.0607C31.342 27.7794 31.5 27.3978 31.5 27V15C31.5 14.6022 31.342 14.2206 31.0607 13.9393C30.7794 13.658 30.3978 13.5 30 13.5ZM30 27H12V15H30V27ZM28.5 21C28.5 21.1989 28.421 21.3897 28.2803 21.5303C28.1397 21.671 27.9489 21.75 27.75 21.75H14.25C14.0511 21.75 13.8603 21.671 13.7197 21.5303C13.579 21.3897 13.5 21.1989 13.5 21C13.5 20.8011 13.579 20.6103 13.7197 20.4697C13.8603 20.329 14.0511 20.25 14.25 20.25H27.75C27.9489 20.25 28.1397 20.329 28.2803 20.4697C28.421 20.6103 28.5 20.8011 28.5 21ZM28.5 18C28.5 18.1989 28.421 18.3897 28.2803 18.5303C28.1397 18.671 27.9489 18.75 27.75 18.75H14.25C14.0511 18.75 13.8603 18.671 13.7197 18.5303C13.579 18.3897 13.5 18.1989 13.5 18C13.5 17.8011 13.579 17.6103 13.7197 17.4697C13.8603 17.329 14.0511 17.25 14.25 17.25H27.75C27.9489 17.25 28.1397 17.329 28.2803 17.4697C28.421 17.6103 28.5 17.8011 28.5 18ZM15.75 24C15.75 24.1989 15.671 24.3897 15.5303 24.5303C15.3897 24.671 15.1989 24.75 15 24.75H14.25C14.0511 24.75 13.8603 24.671 13.7197 24.5303C13.579 24.3897 13.5 24.1989 13.5 24C13.5 23.8011 13.579 23.6103 13.7197 23.4697C13.8603 23.329 14.0511 23.25 14.25 23.25H15C15.1989 23.25 15.3897 23.329 15.5303 23.4697C15.671 23.6103 15.75 23.8011 15.75 24ZM24.75 24C24.75 24.1989 24.671 24.3897 24.5303 24.5303C24.3897 24.671 24.1989 24.75 24 24.75H18C17.8011 24.75 17.6103 24.671 17.4697 24.5303C17.329 24.3897 17.25 24.1989 17.25 24C17.25 23.8011 17.329 23.6103 17.4697 23.4697C17.6103 23.329 17.8011 23.25 18 23.25H24C24.1989 23.25 24.3897 23.329 24.5303 23.4697C24.671 23.6103 24.75 23.8011 24.75 24ZM28.5 24C28.5 24.1989 28.421 24.3897 28.2803 24.5303C28.1397 24.671 27.9489 24.75 27.75 24.75H27C26.8011 24.75 26.6103 24.671 26.4697 24.5303C26.329 24.3897 26.25 24.1989 26.25 24C26.25 23.8011 26.329 23.6103 26.4697 23.4697C26.6103 23.329 26.8011 23.25 27 23.25H27.75C27.9489 23.25 28.1397 23.329 28.2803 23.4697C28.421 23.6103 28.5 23.8011 28.5 24Z" fill="#F97E26"/>
<rect x="0.5" y="0.5" width="41" height="41" rx="7.5" stroke="#D6DAE1"/>
</g>
<defs>
<clipPath id="clip0_148_187">
<rect width="42" height="42" fill="white"/>
</clipPath>
</defs>
</svg>