<svg width="70" height="28" viewBox="0 0 70 28" fill="none" xmlns="http://www.w3.org/2000/svg">
<rect x="0.5" y="0.5" width="69" height="27" rx="3.5" stroke="#AD2120"/>
<path d="M37.3919 11.244L32.5899 22.668H30.5039L32.1839 18.804L29.0759 11.244H31.2739L33.2759 16.662L35.3059 11.244H37.3919Z" fill="#AD2120"/>
<path d="M19.9797 15.094C19.9797 14.31 20.1337 13.6147 20.4417 13.008C20.7591 12.4013 21.1837 11.9347 21.7157 11.608C22.2571 11.2813 22.8591 11.118 23.5217 11.118C24.1004 11.118 24.6044 11.2347 25.0337 11.468C25.4724 11.7013 25.8224 11.9953 26.0837 12.35V11.244H28.0577V19H26.0837V17.866C25.8317 18.23 25.4817 18.5333 25.0337 18.776C24.5951 19.0093 24.0864 19.126 23.5077 19.126C22.8544 19.126 22.2571 18.958 21.7157 18.622C21.1837 18.286 20.7591 17.8147 20.4417 17.208C20.1337 16.592 19.9797 15.8873 19.9797 15.094ZM26.0837 15.122C26.0837 14.646 25.9904 14.24 25.8037 13.904C25.6171 13.5587 25.3651 13.2973 25.0477 13.12C24.7304 12.9333 24.3897 12.84 24.0257 12.84C23.6617 12.84 23.3257 12.9287 23.0177 13.106C22.7097 13.2833 22.4577 13.5447 22.2617 13.89C22.0751 14.226 21.9817 14.6273 21.9817 15.094C21.9817 15.5607 22.0751 15.9713 22.2617 16.326C22.4577 16.6713 22.7097 16.9373 23.0177 17.124C23.3351 17.3107 23.6711 17.404 24.0257 17.404C24.3897 17.404 24.7304 17.3153 25.0477 17.138C25.3651 16.9513 25.6171 16.69 25.8037 16.354C25.9904 16.0087 26.0837 15.598 26.0837 15.122Z" fill="#AD2120"/>
<path d="M19.0921 12.252C19.0921 12.7747 18.9661 13.2647 18.7141 13.722C18.4714 14.1793 18.0841 14.548 17.5521 14.828C17.0294 15.108 16.3667 15.248 15.5641 15.248H13.9261V19H11.9661V9.228H15.5641C16.3201 9.228 16.9641 9.35866 17.4961 9.62C18.0281 9.88133 18.4247 10.2407 18.6861 10.698C18.9567 11.1553 19.0921 11.6733 19.0921 12.252ZM15.4801 13.666C16.0214 13.666 16.4227 13.5447 16.6841 13.302C16.9454 13.05 17.0761 12.7 17.0761 12.252C17.0761 11.3 16.5441 10.824 15.4801 10.824H13.9261V13.666H15.4801Z" fill="#AD2120"/>
<circle cx="51" cy="14" r="7.5" stroke="#AD2120"/>
<path d="M52.126 12.06V12.247H53.545V12.973H52.071C52.005 13.479 51.8583 13.875 51.631 14.161C51.411 14.447 51.0883 14.6523 50.663 14.777C50.245 14.9017 49.6877 14.964 48.991 14.964V15.833C48.991 16.823 49.4237 17.318 50.289 17.318C51.1397 17.318 51.565 16.8413 51.565 15.888H52.489C52.4817 16.6213 52.2873 17.175 51.906 17.549C51.5247 17.923 50.982 18.11 50.278 18.11C49.552 18.11 48.9983 17.9083 48.617 17.505C48.243 17.1017 48.056 16.537 48.056 15.811V14.26C48.892 14.26 49.508 14.2343 49.904 14.183C50.3073 14.1243 50.6007 14.007 50.784 13.831C50.9673 13.6477 51.0847 13.3617 51.136 12.973H47.561V12.247H51.18V12.049V11.059H47.561V10.322H53.545V11.059H52.126V12.06Z" fill="#AD2120"/>
</svg>
