<svg width="72" height="72" viewBox="0 0 72 72" fill="none" xmlns="http://www.w3.org/2000/svg">
<circle cx="36" cy="36" r="36" fill="#D0FFF3"/>
<circle cx="36" cy="36" r="25" fill="#189877"/>
<path d="M47.8025 28.2266L32.1051 43.7867C31.9671 43.9233 31.7801 44 31.5851 44C31.3901 44 31.2031 43.9233 31.0651 43.7867L24.1975 36.9792C24.0675 36.8409 23.9968 36.658 24.0001 36.4691C24.0035 36.2801 24.0807 36.0998 24.2155 35.9662C24.3503 35.8325 24.5322 35.756 24.7228 35.7527C24.9135 35.7493 25.098 35.8195 25.2374 35.9483L31.5851 42.2392L46.7626 27.1958C46.902 27.0669 47.0865 26.9968 47.2772 27.0001C47.4678 27.0034 47.6497 27.08 47.7845 27.2136C47.9193 27.3473 47.9965 27.5276 47.9999 27.7165C48.0033 27.9055 47.9325 28.0883 47.8025 28.2266Z" fill="white"/>
</svg>
