<svg width="40" height="40" viewBox="0 0 40 40" fill="none" xmlns="http://www.w3.org/2000/svg">
<path d="M8.65381 23.4725L12.3807 20.1063C13.1159 19.4423 14.0713 19.0747 15.0619 19.0747H21.7345C22.4264 19.0747 23.6082 19.5447 23.6082 21.2916C23.6082 22.504 21.6903 23.4726 21.1144 23.7867H16.5459H23.2086C25.2155 23.298 27.0571 22.6918 30.4336 21.9543C32.0333 21.6048 33.6384 24.5175 30.8524 25.8809C28.1592 27.1989 26.5768 27.9751 26.0881 28.1322C23.8543 28.7953 19.0063 29.9682 17.9584 29.9682C16.69 29.9682 11.2428 29.9124 8.65381 29.9124V23.4725Z" stroke="white"/>
<path d="M3.81445 23.5683C3.81445 23.2369 4.08308 22.9683 4.41445 22.9683H8.65375V29.9683H4.41445C4.08308 29.9683 3.81445 29.6996 3.81445 29.3683V23.5683Z" stroke="white"/>
<path d="M24.085 14.7317C24.085 11.8221 26.4437 9.46338 29.3533 9.46338V9.46338C32.2629 9.46338 34.6216 11.8221 34.6216 14.7317V16.9896C34.6216 18.6522 33.2738 20 31.6112 20H27.0954C25.4328 20 24.085 18.6522 24.085 16.9896V14.7317Z" stroke="white" stroke-width="0.8"/>
<path d="M30.6274 14.0711L30.4566 14.6539H27.201L27.3718 14.0711H30.6274ZM29.1001 18L27.2613 15.7492L27.2512 15.3271H28.1656C28.4034 15.3271 28.6061 15.2937 28.7735 15.2267C28.941 15.158 29.0691 15.0558 29.1579 14.9202C29.2466 14.7829 29.291 14.6104 29.291 14.4027C29.291 14.0962 29.1989 13.8559 29.0147 13.6817C28.8305 13.5059 28.5474 13.418 28.1656 13.418H27.201L27.3718 12.8553H28.1656C28.5742 12.8553 28.9092 12.9231 29.1704 13.0587C29.4334 13.1927 29.6276 13.3769 29.7532 13.6114C29.8805 13.8442 29.9442 14.108 29.9442 14.4027C29.9442 14.669 29.8855 14.9143 29.7683 15.1387C29.6528 15.3615 29.4669 15.5407 29.2106 15.6763C28.9561 15.812 28.6195 15.8798 28.2008 15.8798H28.1857L29.8839 17.9598V18H29.1001ZM30.6274 12.8553L30.4566 13.4381L27.8943 13.418L28.0651 12.8553H30.6274Z" fill="white"/>
<path d="M31.6111 7.07427C31.6111 8.26187 30.6483 9.22461 29.4607 9.22461L29.2457 9.22461C28.0581 9.22461 27.0954 8.26187 27.0954 7.07427V7.07427C27.0954 6.59923 27.4805 6.21413 27.9555 6.21413L30.7509 6.21413C31.226 6.21413 31.6111 6.59923 31.6111 7.07427V7.07427Z" stroke="white" stroke-width="0.8"/>
</svg>
