<svg width="40" height="40" viewBox="0 0 40 40" fill="none" xmlns="http://www.w3.org/2000/svg">
<path d="M15.6213 15.2212L14.1862 16.6563L15.6213 18.0915" stroke="white" stroke-width="0.69811" stroke-linecap="round"/>
<path d="M20.2747 16.3077C20.4674 16.3077 20.6237 16.464 20.6237 16.6567C20.6237 16.8495 20.4674 17.0058 20.2747 17.0058V16.3077ZM20.2747 17.0058H14.1858V16.3077H20.2747V17.0058Z" fill="white"/>
<path d="M19.4734 19.6606L20.9085 21.0958L19.4734 22.531" stroke="white" stroke-width="0.69811" stroke-linecap="round"/>
<path d="M14.8201 20.7471C14.6273 20.7471 14.471 20.9034 14.471 21.0962C14.471 21.289 14.6273 21.4452 14.8201 21.4452V20.7471ZM14.8201 21.4452H20.9089V20.7471H14.8201V21.4452Z" fill="white"/>
<path d="M29.0464 24.8333L28.7527 25.238L28.7527 25.238L29.0464 24.8333ZM29.0464 34V34.5H29.4612L29.5378 34.0923L29.0464 34ZM21.9402 34H21.4402V34.5H21.9402V34ZM23.3614 30.3333L23.7566 30.6397L24.0118 30.3105L23.7342 30.0001L23.3614 30.3333ZM21.4664 28.5L21.21 28.9292L21.4664 28.5ZM19.0977 27.125L18.8267 27.5452L19.0977 27.125ZM18.624 24.375L18.2774 24.0146L18.624 24.375ZM22.8876 24.8333L22.6699 25.2834L22.8876 24.8333ZM25.8561 27.9427C26.0546 28.1347 26.3711 28.1295 26.5632 27.931C26.7552 27.7326 26.75 27.416 26.5515 27.224L25.8561 27.9427ZM24.1555 23.4759C24.7559 23.6695 26.9431 23.9249 28.7527 25.238L29.34 24.4286C27.3599 22.9918 24.8096 22.6361 24.4625 22.5241L24.1555 23.4759ZM28.7527 25.238C29.1561 25.5307 29.343 25.9022 29.4308 26.4228C29.525 26.981 29.4962 27.6375 29.4939 28.4986L30.4939 28.5014C30.496 27.7125 30.5296 26.9246 30.4168 26.2564C30.2978 25.5506 30.0086 24.9138 29.34 24.4286L28.7527 25.238ZM29.4939 28.4986C29.4918 29.2706 29.3429 30.1842 29.1471 31.138C28.9576 32.0607 28.7121 33.0717 28.555 33.9077L29.5378 34.0923C29.6965 33.2477 29.9224 32.3337 30.1266 31.3391C30.3245 30.3756 30.4915 29.3794 30.4939 28.5014L29.4939 28.4986ZM29.0464 33.5H21.9402V34.5H29.0464V33.5ZM22.4402 34C22.4402 33.4883 22.6943 32.01 23.7566 30.6397L22.9663 30.027C21.7546 31.59 21.4402 33.2895 21.4402 34H22.4402ZM23.7342 30.0001C22.5925 28.7232 22.1759 28.3414 21.7229 28.0708L21.21 28.9292C21.513 29.1103 21.8354 29.3768 22.9887 30.6666L23.7342 30.0001ZM21.7229 28.0708C21.2571 27.7925 20.7585 27.5095 20.3318 27.2669C19.8973 27.0199 19.551 26.8224 19.3687 26.7048L18.8267 27.5452C19.0387 27.6819 19.4165 27.8969 19.8376 28.1363C20.2666 28.3801 20.7553 28.6575 21.21 28.9292L21.7229 28.0708ZM19.3687 26.7048C18.7204 26.2866 18.5296 25.9201 18.5035 25.6648C18.4774 25.4093 18.5986 25.093 18.9705 24.7354L18.2774 24.0146C17.7913 24.482 17.4388 25.0823 17.5087 25.7665C17.5787 26.4507 18.0538 27.0467 18.8267 27.5452L19.3687 26.7048ZM18.9705 24.7354C19.0604 24.649 19.2165 24.5704 19.4705 24.5315C19.7228 24.4929 20.0373 24.4992 20.3973 24.5514C21.1175 24.6559 21.9454 24.933 22.6699 25.2834L23.1053 24.3832C22.3109 23.999 21.3842 23.6842 20.5409 23.5618C20.1193 23.5006 19.6998 23.4848 19.3192 23.543C18.9404 23.601 18.5648 23.7383 18.2774 24.0146L18.9705 24.7354ZM22.6699 25.2834C23.0782 25.4809 23.6269 25.8993 24.2175 26.4135C24.7982 26.9192 25.3811 27.483 25.8561 27.9427L26.5515 27.224C26.0793 26.767 25.4778 26.185 24.8742 25.6594C24.2803 25.1423 23.6446 24.6441 23.1053 24.3832L22.6699 25.2834Z" fill="white"/>
<rect x="21" y="34" width="9" height="3" rx="0.3" stroke="white"/>
<path d="M24 25.3871V5C24 3.89543 23.1046 3 22 3H12C10.8954 3 10 3.89543 10 5V30C10 31.1046 10.8954 32 12 32H22.25" stroke="white"/>
<path d="M19.9279 9.74565L19.743 10.3767H16.2176L16.4026 9.74565H19.9279ZM18.2741 14L16.2829 11.5627L16.272 11.1057H17.2622C17.5197 11.1057 17.7391 11.0695 17.9204 10.9969C18.1018 10.9226 18.2405 10.812 18.3366 10.6651C18.4327 10.5164 18.4808 10.3296 18.4808 10.1047C18.4808 9.77285 18.3811 9.51263 18.1816 9.32403C17.9821 9.13361 17.6756 9.03841 17.2622 9.03841H16.2176L16.4026 8.42909H17.2622C17.7046 8.42909 18.0673 8.50254 18.3502 8.64942C18.6349 8.7945 18.8453 8.99398 18.9813 9.24786C19.1191 9.49993 19.188 9.78555 19.188 10.1047C19.188 10.3931 19.1246 10.6587 18.9976 10.9017C18.8725 11.1429 18.6712 11.337 18.3937 11.4838C18.1181 11.6307 17.7536 11.7042 17.3002 11.7042H17.2839L19.1228 13.9565V14H18.2741ZM19.9279 8.42909L19.743 9.06017L16.9684 9.03841L17.1534 8.42909H19.9279Z" fill="white"/>
</svg>
