<svg width="40" height="40" viewBox="0 0 40 40" fill="none" xmlns="http://www.w3.org/2000/svg">
<path d="M28.875 11.375L28.6818 12.0341H25L25.1932 11.375H28.875ZM27.1477 15.8182L25.0682 13.2727L25.0568 12.7955H26.0909C26.3598 12.7955 26.589 12.7576 26.7784 12.6818C26.9678 12.6042 27.1127 12.4886 27.2131 12.3352C27.3134 12.1799 27.3636 11.9848 27.3636 11.75C27.3636 11.4034 27.2595 11.1316 27.0511 10.9347C26.8428 10.7358 26.5227 10.6364 26.0909 10.6364H25L25.1932 10H26.0909C26.553 10 26.9318 10.0767 27.2273 10.2301C27.5246 10.3816 27.7443 10.59 27.8864 10.8551C28.0303 11.1184 28.1023 11.4167 28.1023 11.75C28.1023 12.0511 28.036 12.3286 27.9034 12.5824C27.7727 12.8343 27.5625 13.0369 27.2727 13.1903C26.9848 13.3438 26.6042 13.4205 26.1307 13.4205H26.1136L28.0341 15.7727V15.8182H27.1477ZM28.875 10L28.6818 10.6591L25.7841 10.6364L25.9773 10H28.875Z" fill="white"/>
<rect x="5.5" y="21.5" width="4" height="12" rx="0.5" stroke="white"/>
<path d="M9.5 23C9.83333 23 10.9 22.7 12.5 21.5C14.5 20 16.5 16.5 17.5 16C18.3 15.6 19.8333 15.5 20.5 15.5L21.5 18C25 18 32.1 18 32.5 18C33.5 18 35 18.5 35 20C35 21.2 33.6667 22.1667 33 22.5C33.5 23 34.5 23.6411 34.5 25C34.5 26 33.1667 26.6667 32.5 27C33.1667 27.3333 34.5 28.3 34.5 29.5C34.5 31 33 31.5 32 31.5C33 32 34 34.7 32 35.5C31 36 22.6194 35.5 19 35.5C16.5 35.5 13.5 34 9.5 32" stroke="white" stroke-linecap="round" stroke-linejoin="round"/>
<path d="M22 18L20.5 8.5H33.5L32 18" stroke="white" stroke-linecap="round" stroke-linejoin="round"/>
<path d="M21.5 16.5L18.5 6.5H33L32.5 8" stroke="white" stroke-linecap="round" stroke-linejoin="round"/>
</svg>
