<svg width="32" height="32" viewBox="0 0 32 32" fill="none" xmlns="http://www.w3.org/2000/svg">
<path d="M13.4727 5.49902H7.47266C6.92037 5.49902 6.47266 5.94674 6.47266 6.49902V12.499C6.47266 13.0513 6.92037 13.499 7.47266 13.499H13.4727C14.0249 13.499 14.4727 13.0513 14.4727 12.499V6.49902C14.4727 5.94674 14.0249 5.49902 13.4727 5.49902Z" stroke="white" stroke-linecap="round" stroke-linejoin="round"/>
<path d="M13.4727 17.499H7.47266C6.92037 17.499 6.47266 17.9467 6.47266 18.499V24.499C6.47266 25.0513 6.92037 25.499 7.47266 25.499H13.4727C14.0249 25.499 14.4727 25.0513 14.4727 24.499V18.499C14.4727 17.9467 14.0249 17.499 13.4727 17.499Z" stroke="white" stroke-linecap="round" stroke-linejoin="round"/>
<path d="M24.4727 5.49902H18.4727C17.9204 5.49902 17.4727 5.94674 17.4727 6.49902V12.499C17.4727 13.0513 17.9204 13.499 18.4727 13.499H24.4727C25.0249 13.499 25.4727 13.0513 25.4727 12.499V6.49902C25.4727 5.94674 25.0249 5.49902 24.4727 5.49902Z" stroke="white" stroke-linecap="round" stroke-linejoin="round"/>
<path d="M17.4727 17.499V21.499" stroke="white" stroke-linecap="round" stroke-linejoin="round"/>
<path d="M17.4727 25.499H21.4727V17.499" stroke="white" stroke-linecap="round" stroke-linejoin="round"/>
<path d="M21.4727 19.499H25.4727" stroke="white" stroke-linecap="round" stroke-linejoin="round"/>
<path d="M25.4727 23.499V25.499" stroke="white" stroke-linecap="round" stroke-linejoin="round"/>
<path d="M2.53125 6.51038V5.48974C2.53125 4.38518 3.42668 3.48975 4.53125 3.48975H5.4695" stroke="white" stroke-linecap="round"/>
<path d="M29.4688 25.4896V26.5103C29.4688 27.6148 28.5733 28.5103 27.4687 28.5103H26.5305" stroke="white" stroke-linecap="round"/>
<path d="M29.4688 6.51038V5.48974C29.4688 4.38518 28.5733 3.48975 27.4687 3.48975H26.5305" stroke="white" stroke-linecap="round"/>
<path d="M2.53125 25.4896V26.5103C2.53125 27.6148 3.42668 28.5103 4.53125 28.5103H5.4695" stroke="white" stroke-linecap="round"/>
</svg>
